%TF.GenerationSoftware,KiCad,Pcbnew,7.0.6*%
%TF.CreationDate,2023-08-06T19:51:51+10:00*%
%TF.ProjectId,headphone_sum_FRONT,68656164-7068-46f6-9e65-5f73756d5f46,rev?*%
%TF.SameCoordinates,Original*%
%TF.FileFunction,Legend,Top*%
%TF.FilePolarity,Positive*%
%FSLAX46Y46*%
G04 Gerber Fmt 4.6, Leading zero omitted, Abs format (unit mm)*
G04 Created by KiCad (PCBNEW 7.0.6) date 2023-08-06 19:51:51*
%MOMM*%
%LPD*%
G01*
G04 APERTURE LIST*
%ADD10C,1.000000*%
%ADD11C,0.500000*%
%ADD12C,0.200000*%
%ADD13C,0.300000*%
%ADD14C,0.050000*%
%ADD15C,3.200000*%
G04 APERTURE END LIST*
D10*
X-3149600Y58674000D02*
X-13004800Y58674000D01*
X-3149600Y84734400D02*
X-13004800Y84734400D01*
D11*
X-3421600Y50571000D02*
G75*
G03*
X-3421600Y50571000I-4600000J0D01*
G01*
D10*
X-3200400Y110439200D02*
X-13055600Y110439200D01*
X-8030000Y68170000D02*
X-8030000Y74040000D01*
X-8026400Y94194600D02*
X-8026400Y100064600D01*
D12*
X-4112300Y114373258D02*
X-4040871Y114587544D01*
X-4040871Y114587544D02*
X-4040871Y114944686D01*
X-4040871Y114944686D02*
X-4112300Y115087544D01*
X-4112300Y115087544D02*
X-4183728Y115158972D01*
X-4183728Y115158972D02*
X-4326585Y115230401D01*
X-4326585Y115230401D02*
X-4469442Y115230401D01*
X-4469442Y115230401D02*
X-4612300Y115158972D01*
X-4612300Y115158972D02*
X-4683728Y115087544D01*
X-4683728Y115087544D02*
X-4755157Y114944686D01*
X-4755157Y114944686D02*
X-4826585Y114658972D01*
X-4826585Y114658972D02*
X-4898014Y114516115D01*
X-4898014Y114516115D02*
X-4969442Y114444686D01*
X-4969442Y114444686D02*
X-5112300Y114373258D01*
X-5112300Y114373258D02*
X-5255157Y114373258D01*
X-5255157Y114373258D02*
X-5398014Y114444686D01*
X-5398014Y114444686D02*
X-5469442Y114516115D01*
X-5469442Y114516115D02*
X-5540871Y114658972D01*
X-5540871Y114658972D02*
X-5540871Y115016115D01*
X-5540871Y115016115D02*
X-5469442Y115230401D01*
X-4112300Y115801829D02*
X-4040871Y116016115D01*
X-4040871Y116016115D02*
X-4040871Y116373257D01*
X-4040871Y116373257D02*
X-4112300Y116516115D01*
X-4112300Y116516115D02*
X-4183728Y116587543D01*
X-4183728Y116587543D02*
X-4326585Y116658972D01*
X-4326585Y116658972D02*
X-4469442Y116658972D01*
X-4469442Y116658972D02*
X-4612300Y116587543D01*
X-4612300Y116587543D02*
X-4683728Y116516115D01*
X-4683728Y116516115D02*
X-4755157Y116373257D01*
X-4755157Y116373257D02*
X-4826585Y116087543D01*
X-4826585Y116087543D02*
X-4898014Y115944686D01*
X-4898014Y115944686D02*
X-4969442Y115873257D01*
X-4969442Y115873257D02*
X-5112300Y115801829D01*
X-5112300Y115801829D02*
X-5255157Y115801829D01*
X-5255157Y115801829D02*
X-5398014Y115873257D01*
X-5398014Y115873257D02*
X-5469442Y115944686D01*
X-5469442Y115944686D02*
X-5540871Y116087543D01*
X-5540871Y116087543D02*
X-5540871Y116444686D01*
X-5540871Y116444686D02*
X-5469442Y116658972D01*
X-4112300Y117230400D02*
X-4040871Y117444686D01*
X-4040871Y117444686D02*
X-4040871Y117801828D01*
X-4040871Y117801828D02*
X-4112300Y117944686D01*
X-4112300Y117944686D02*
X-4183728Y118016114D01*
X-4183728Y118016114D02*
X-4326585Y118087543D01*
X-4326585Y118087543D02*
X-4469442Y118087543D01*
X-4469442Y118087543D02*
X-4612300Y118016114D01*
X-4612300Y118016114D02*
X-4683728Y117944686D01*
X-4683728Y117944686D02*
X-4755157Y117801828D01*
X-4755157Y117801828D02*
X-4826585Y117516114D01*
X-4826585Y117516114D02*
X-4898014Y117373257D01*
X-4898014Y117373257D02*
X-4969442Y117301828D01*
X-4969442Y117301828D02*
X-5112300Y117230400D01*
X-5112300Y117230400D02*
X-5255157Y117230400D01*
X-5255157Y117230400D02*
X-5398014Y117301828D01*
X-5398014Y117301828D02*
X-5469442Y117373257D01*
X-5469442Y117373257D02*
X-5540871Y117516114D01*
X-5540871Y117516114D02*
X-5540871Y117873257D01*
X-5540871Y117873257D02*
X-5469442Y118087543D01*
D13*
X-10455352Y96778762D02*
X-11407733Y96778762D01*
X-11407733Y96778762D02*
X-11407733Y98778762D01*
X-4105352Y68533962D02*
X-4772019Y69486343D01*
X-5248209Y68533962D02*
X-5248209Y70533962D01*
X-5248209Y70533962D02*
X-4486304Y70533962D01*
X-4486304Y70533962D02*
X-4295828Y70438724D01*
X-4295828Y70438724D02*
X-4200590Y70343486D01*
X-4200590Y70343486D02*
X-4105352Y70153010D01*
X-4105352Y70153010D02*
X-4105352Y69867296D01*
X-4105352Y69867296D02*
X-4200590Y69676820D01*
X-4200590Y69676820D02*
X-4295828Y69581581D01*
X-4295828Y69581581D02*
X-4486304Y69486343D01*
X-4486304Y69486343D02*
X-5248209Y69486343D01*
X-10455352Y70870762D02*
X-11407733Y70870762D01*
X-11407733Y70870762D02*
X-11407733Y72870762D01*
X-10397809Y27303162D02*
X-9731143Y25303162D01*
X-9731143Y25303162D02*
X-9064476Y27303162D01*
X-8016857Y27303162D02*
X-7635904Y27303162D01*
X-7635904Y27303162D02*
X-7445428Y27207924D01*
X-7445428Y27207924D02*
X-7254952Y27017448D01*
X-7254952Y27017448D02*
X-7159714Y26636496D01*
X-7159714Y26636496D02*
X-7159714Y25969829D01*
X-7159714Y25969829D02*
X-7254952Y25588877D01*
X-7254952Y25588877D02*
X-7445428Y25398400D01*
X-7445428Y25398400D02*
X-7635904Y25303162D01*
X-7635904Y25303162D02*
X-8016857Y25303162D01*
X-8016857Y25303162D02*
X-8207333Y25398400D01*
X-8207333Y25398400D02*
X-8397809Y25588877D01*
X-8397809Y25588877D02*
X-8493047Y25969829D01*
X-8493047Y25969829D02*
X-8493047Y26636496D01*
X-8493047Y26636496D02*
X-8397809Y27017448D01*
X-8397809Y27017448D02*
X-8207333Y27207924D01*
X-8207333Y27207924D02*
X-8016857Y27303162D01*
X-5350190Y25303162D02*
X-6302571Y25303162D01*
X-6302571Y25303162D02*
X-6302571Y27303162D01*
D11*
X-6638142Y1449633D02*
X-9638142Y1449633D01*
X-6638142Y2735347D02*
X-8209571Y2735347D01*
X-8209571Y2735347D02*
X-8495285Y2592490D01*
X-8495285Y2592490D02*
X-8638142Y2306776D01*
X-8638142Y2306776D02*
X-8638142Y1878205D01*
X-8638142Y1878205D02*
X-8495285Y1592490D01*
X-8495285Y1592490D02*
X-8352428Y1449633D01*
X-6781000Y5306776D02*
X-6638142Y5021062D01*
X-6638142Y5021062D02*
X-6638142Y4449633D01*
X-6638142Y4449633D02*
X-6781000Y4163919D01*
X-6781000Y4163919D02*
X-7066714Y4021062D01*
X-7066714Y4021062D02*
X-8209571Y4021062D01*
X-8209571Y4021062D02*
X-8495285Y4163919D01*
X-8495285Y4163919D02*
X-8638142Y4449633D01*
X-8638142Y4449633D02*
X-8638142Y5021062D01*
X-8638142Y5021062D02*
X-8495285Y5306776D01*
X-8495285Y5306776D02*
X-8209571Y5449633D01*
X-8209571Y5449633D02*
X-7923857Y5449633D01*
X-7923857Y5449633D02*
X-7638142Y4021062D01*
X-6638142Y8021062D02*
X-9638142Y8021062D01*
X-6781000Y8021062D02*
X-6638142Y7735348D01*
X-6638142Y7735348D02*
X-6638142Y7163920D01*
X-6638142Y7163920D02*
X-6781000Y6878205D01*
X-6781000Y6878205D02*
X-6923857Y6735348D01*
X-6923857Y6735348D02*
X-7209571Y6592491D01*
X-7209571Y6592491D02*
X-8066714Y6592491D01*
X-8066714Y6592491D02*
X-8352428Y6735348D01*
X-8352428Y6735348D02*
X-8495285Y6878205D01*
X-8495285Y6878205D02*
X-8638142Y7163920D01*
X-8638142Y7163920D02*
X-8638142Y7735348D01*
X-8638142Y7735348D02*
X-8495285Y8021062D01*
X-8638142Y9021063D02*
X-8638142Y10163920D01*
X-6638142Y9449634D02*
X-9209571Y9449634D01*
X-9209571Y9449634D02*
X-9495285Y9592491D01*
X-9495285Y9592491D02*
X-9638142Y9878206D01*
X-9638142Y9878206D02*
X-9638142Y10163920D01*
X-6638142Y11592492D02*
X-6781000Y11306777D01*
X-6781000Y11306777D02*
X-6923857Y11163920D01*
X-6923857Y11163920D02*
X-7209571Y11021063D01*
X-7209571Y11021063D02*
X-8066714Y11021063D01*
X-8066714Y11021063D02*
X-8352428Y11163920D01*
X-8352428Y11163920D02*
X-8495285Y11306777D01*
X-8495285Y11306777D02*
X-8638142Y11592492D01*
X-8638142Y11592492D02*
X-8638142Y12021063D01*
X-8638142Y12021063D02*
X-8495285Y12306777D01*
X-8495285Y12306777D02*
X-8352428Y12449634D01*
X-8352428Y12449634D02*
X-8066714Y12592492D01*
X-8066714Y12592492D02*
X-7209571Y12592492D01*
X-7209571Y12592492D02*
X-6923857Y12449634D01*
X-6923857Y12449634D02*
X-6781000Y12306777D01*
X-6781000Y12306777D02*
X-6638142Y12021063D01*
X-6638142Y12021063D02*
X-6638142Y11592492D01*
X-8638142Y13878206D02*
X-6638142Y13878206D01*
X-8352428Y13878206D02*
X-8495285Y14021063D01*
X-8495285Y14021063D02*
X-8638142Y14306778D01*
X-8638142Y14306778D02*
X-8638142Y14735349D01*
X-8638142Y14735349D02*
X-8495285Y15021063D01*
X-8495285Y15021063D02*
X-8209571Y15163920D01*
X-8209571Y15163920D02*
X-6638142Y15163920D01*
X-6781000Y17735349D02*
X-6638142Y17449635D01*
X-6638142Y17449635D02*
X-6638142Y16878206D01*
X-6638142Y16878206D02*
X-6781000Y16592492D01*
X-6781000Y16592492D02*
X-7066714Y16449635D01*
X-7066714Y16449635D02*
X-8209571Y16449635D01*
X-8209571Y16449635D02*
X-8495285Y16592492D01*
X-8495285Y16592492D02*
X-8638142Y16878206D01*
X-8638142Y16878206D02*
X-8638142Y17449635D01*
X-8638142Y17449635D02*
X-8495285Y17735349D01*
X-8495285Y17735349D02*
X-8209571Y17878206D01*
X-8209571Y17878206D02*
X-7923857Y17878206D01*
X-7923857Y17878206D02*
X-7638142Y16449635D01*
D13*
X-4156152Y94391162D02*
X-4822819Y95343543D01*
X-5299009Y94391162D02*
X-5299009Y96391162D01*
X-5299009Y96391162D02*
X-4537104Y96391162D01*
X-4537104Y96391162D02*
X-4346628Y96295924D01*
X-4346628Y96295924D02*
X-4251390Y96200686D01*
X-4251390Y96200686D02*
X-4156152Y96010210D01*
X-4156152Y96010210D02*
X-4156152Y95724496D01*
X-4156152Y95724496D02*
X-4251390Y95534020D01*
X-4251390Y95534020D02*
X-4346628Y95438781D01*
X-4346628Y95438781D02*
X-4537104Y95343543D01*
X-4537104Y95343543D02*
X-5299009Y95343543D01*
X-10229600Y42187562D02*
X-9848647Y42187562D01*
X-9848647Y42187562D02*
X-9658171Y42092324D01*
X-9658171Y42092324D02*
X-9467695Y41901848D01*
X-9467695Y41901848D02*
X-9372457Y41520896D01*
X-9372457Y41520896D02*
X-9372457Y40854229D01*
X-9372457Y40854229D02*
X-9467695Y40473277D01*
X-9467695Y40473277D02*
X-9658171Y40282800D01*
X-9658171Y40282800D02*
X-9848647Y40187562D01*
X-9848647Y40187562D02*
X-10229600Y40187562D01*
X-10229600Y40187562D02*
X-10420076Y40282800D01*
X-10420076Y40282800D02*
X-10610552Y40473277D01*
X-10610552Y40473277D02*
X-10705790Y40854229D01*
X-10705790Y40854229D02*
X-10705790Y41520896D01*
X-10705790Y41520896D02*
X-10610552Y41901848D01*
X-10610552Y41901848D02*
X-10420076Y42092324D01*
X-10420076Y42092324D02*
X-10229600Y42187562D01*
X-8515314Y42187562D02*
X-8515314Y40568515D01*
X-8515314Y40568515D02*
X-8420076Y40378039D01*
X-8420076Y40378039D02*
X-8324838Y40282800D01*
X-8324838Y40282800D02*
X-8134362Y40187562D01*
X-8134362Y40187562D02*
X-7753409Y40187562D01*
X-7753409Y40187562D02*
X-7562933Y40282800D01*
X-7562933Y40282800D02*
X-7467695Y40378039D01*
X-7467695Y40378039D02*
X-7372457Y40568515D01*
X-7372457Y40568515D02*
X-7372457Y42187562D01*
X-6705790Y42187562D02*
X-5562933Y42187562D01*
X-6134362Y40187562D02*
X-6134362Y42187562D01*
%LPC*%
D14*
X-3962400Y44907200D02*
X-5165754Y44781477D01*
X-3854637Y46092594D01*
X-3962400Y44907200D01*
G36*
X-3962400Y44907200D02*
G01*
X-5165754Y44781477D01*
X-3854637Y46092594D01*
X-3962400Y44907200D01*
G37*
D11*
X-3421600Y103581200D02*
G75*
G03*
X-3421600Y103581200I-4600000J0D01*
G01*
X-3421600Y77622400D02*
G75*
G03*
X-3421600Y77622400I-4600000J0D01*
G01*
D13*
X-9090380Y71780400D02*
G75*
G03*
X-9090380Y71780400I-1831620J0D01*
G01*
X-9090380Y97688400D02*
G75*
G03*
X-9090380Y97688400I-1831620J0D01*
G01*
D14*
X-10701806Y44748637D02*
X-11887200Y44856400D01*
X-12012923Y46059754D01*
X-10701806Y44748637D01*
G36*
X-10701806Y44748637D02*
G01*
X-11887200Y44856400D01*
X-12012923Y46059754D01*
X-10701806Y44748637D01*
G37*
D15*
%TO.C,M3 Screw*%
X-10481600Y-6250000D03*
%TD*%
%TO.C,M3 screw*%
X-10481600Y116250000D03*
%TD*%
%LPD*%
M02*
