%TF.GenerationSoftware,KiCad,Pcbnew,7.0.6*%
%TF.CreationDate,2023-08-06T19:51:04+10:00*%
%TF.ProjectId,headphone_sum,68656164-7068-46f6-9e65-5f73756d2e6b,rev?*%
%TF.SameCoordinates,Original*%
%TF.FileFunction,Copper,L2,Bot*%
%TF.FilePolarity,Positive*%
%FSLAX46Y46*%
G04 Gerber Fmt 4.6, Leading zero omitted, Abs format (unit mm)*
G04 Created by KiCad (PCBNEW 7.0.6) date 2023-08-06 19:51:04*
%MOMM*%
%LPD*%
G01*
G04 APERTURE LIST*
G04 Aperture macros list*
%AMRoundRect*
0 Rectangle with rounded corners*
0 $1 Rounding radius*
0 $2 $3 $4 $5 $6 $7 $8 $9 X,Y pos of 4 corners*
0 Add a 4 corners polygon primitive as box body*
4,1,4,$2,$3,$4,$5,$6,$7,$8,$9,$2,$3,0*
0 Add four circle primitives for the rounded corners*
1,1,$1+$1,$2,$3*
1,1,$1+$1,$4,$5*
1,1,$1+$1,$6,$7*
1,1,$1+$1,$8,$9*
0 Add four rect primitives between the rounded corners*
20,1,$1+$1,$2,$3,$4,$5,0*
20,1,$1+$1,$4,$5,$6,$7,0*
20,1,$1+$1,$6,$7,$8,$9,0*
20,1,$1+$1,$8,$9,$2,$3,0*%
G04 Aperture macros list end*
%TA.AperFunction,SMDPad,CuDef*%
%ADD10RoundRect,0.237500X0.237500X-0.300000X0.237500X0.300000X-0.237500X0.300000X-0.237500X-0.300000X0*%
%TD*%
%TA.AperFunction,ComponentPad*%
%ADD11R,1.700000X1.700000*%
%TD*%
%TA.AperFunction,ComponentPad*%
%ADD12O,1.700000X1.700000*%
%TD*%
%TA.AperFunction,SMDPad,CuDef*%
%ADD13RoundRect,0.250000X0.650000X-0.412500X0.650000X0.412500X-0.650000X0.412500X-0.650000X-0.412500X0*%
%TD*%
%TA.AperFunction,ComponentPad*%
%ADD14R,2.200000X1.500000*%
%TD*%
%TA.AperFunction,ComponentPad*%
%ADD15O,2.500000X1.400000*%
%TD*%
%TA.AperFunction,ComponentPad*%
%ADD16O,2.400000X1.500000*%
%TD*%
%TA.AperFunction,SMDPad,CuDef*%
%ADD17RoundRect,0.237500X0.237500X-0.250000X0.237500X0.250000X-0.237500X0.250000X-0.237500X-0.250000X0*%
%TD*%
%TA.AperFunction,SMDPad,CuDef*%
%ADD18RoundRect,0.250000X-0.412500X-0.650000X0.412500X-0.650000X0.412500X0.650000X-0.412500X0.650000X0*%
%TD*%
%TA.AperFunction,SMDPad,CuDef*%
%ADD19RoundRect,0.150000X0.825000X0.150000X-0.825000X0.150000X-0.825000X-0.150000X0.825000X-0.150000X0*%
%TD*%
%TA.AperFunction,SMDPad,CuDef*%
%ADD20RoundRect,0.237500X-0.250000X-0.237500X0.250000X-0.237500X0.250000X0.237500X-0.250000X0.237500X0*%
%TD*%
%TA.AperFunction,SMDPad,CuDef*%
%ADD21RoundRect,0.237500X0.250000X0.237500X-0.250000X0.237500X-0.250000X-0.237500X0.250000X-0.237500X0*%
%TD*%
%TA.AperFunction,SMDPad,CuDef*%
%ADD22R,0.600000X0.700000*%
%TD*%
%TA.AperFunction,ComponentPad*%
%ADD23R,1.800000X1.800000*%
%TD*%
%TA.AperFunction,ComponentPad*%
%ADD24C,1.800000*%
%TD*%
%TA.AperFunction,SMDPad,CuDef*%
%ADD25RoundRect,0.237500X-0.237500X0.250000X-0.237500X-0.250000X0.237500X-0.250000X0.237500X0.250000X0*%
%TD*%
%TA.AperFunction,SMDPad,CuDef*%
%ADD26RoundRect,0.237500X-0.237500X0.300000X-0.237500X-0.300000X0.237500X-0.300000X0.237500X0.300000X0*%
%TD*%
%TA.AperFunction,SMDPad,CuDef*%
%ADD27RoundRect,0.250000X0.412500X0.650000X-0.412500X0.650000X-0.412500X-0.650000X0.412500X-0.650000X0*%
%TD*%
%TA.AperFunction,ViaPad*%
%ADD28C,0.800000*%
%TD*%
%TA.AperFunction,Conductor*%
%ADD29C,0.300000*%
%TD*%
%TA.AperFunction,Conductor*%
%ADD30C,0.400000*%
%TD*%
%TA.AperFunction,Conductor*%
%ADD31C,0.600000*%
%TD*%
%TA.AperFunction,Conductor*%
%ADD32C,1.000000*%
%TD*%
G04 APERTURE END LIST*
D10*
%TO.P,C8,1*%
%TO.N,-12V*%
X7112000Y69241500D03*
%TO.P,C8,2*%
%TO.N,GND*%
X7112000Y70966500D03*
%TD*%
D11*
%TO.P,J6,1,Pin_1*%
%TO.N,Net-(D2-Pad1)*%
X4480000Y18181400D03*
D12*
%TO.P,J6,2,Pin_2*%
X1940000Y18181400D03*
%TO.P,J6,3,Pin_3*%
%TO.N,GND*%
X4480000Y15641400D03*
%TO.P,J6,4,Pin_4*%
X1940000Y15641400D03*
%TO.P,J6,5,Pin_5*%
X4480000Y13101400D03*
%TO.P,J6,6,Pin_6*%
X1940000Y13101400D03*
%TO.P,J6,7,Pin_7*%
X4480000Y10561400D03*
%TO.P,J6,8,Pin_8*%
X1940000Y10561400D03*
%TO.P,J6,9,Pin_9*%
%TO.N,Net-(D1-Pad2)*%
X4480000Y8021400D03*
%TO.P,J6,10,Pin_10*%
X1940000Y8021400D03*
%TD*%
D13*
%TO.P,C4,1*%
%TO.N,GND*%
X8208800Y13479700D03*
%TO.P,C4,2*%
%TO.N,-12V*%
X8208800Y16604700D03*
%TD*%
D14*
%TO.P,J2,S*%
%TO.N,GND*%
X5030000Y71107000D03*
D15*
%TO.P,J2,T*%
%TO.N,Net-(J2-PadT)*%
X5030000Y82507000D03*
D16*
%TO.P,J2,TN*%
%TO.N,unconnected-(J2-PadTN)*%
X5030000Y74207000D03*
%TD*%
D10*
%TO.P,C7,1*%
%TO.N,+12V*%
X2316000Y67824500D03*
%TO.P,C7,2*%
%TO.N,GND*%
X2316000Y69549500D03*
%TD*%
D17*
%TO.P,R14,1*%
%TO.N,Net-(J5-PadTN)*%
X4826000Y28399100D03*
%TO.P,R14,2*%
%TO.N,Net-(R10-Pad1)*%
X4826000Y30224100D03*
%TD*%
D18*
%TO.P,C14,1*%
%TO.N,Net-(C11-Pad2)*%
X2247500Y50444400D03*
%TO.P,C14,2*%
%TO.N,Net-(C14-Pad2)*%
X5372500Y50444400D03*
%TD*%
D14*
%TO.P,J4,S*%
%TO.N,GND*%
X5030000Y71093000D03*
D15*
%TO.P,J4,T*%
%TO.N,Net-(J4-PadT)*%
X5030000Y59693000D03*
D16*
%TO.P,J4,TN*%
%TO.N,unconnected-(J4-PadTN)*%
X5030000Y67993000D03*
%TD*%
D19*
%TO.P,U1,1*%
%TO.N,Net-(C12-Pad2)*%
X7458000Y91928000D03*
%TO.P,U1,2,-*%
%TO.N,Net-(R2-Pad1)*%
X7458000Y90658000D03*
%TO.P,U1,3,+*%
%TO.N,GND*%
X7458000Y89388000D03*
%TO.P,U1,4,V-*%
%TO.N,-12V*%
X7458000Y88118000D03*
%TO.P,U1,5,+*%
%TO.N,GND*%
X2508000Y88118000D03*
%TO.P,U1,6,-*%
%TO.N,Net-(C11-Pad1)*%
X2508000Y89388000D03*
%TO.P,U1,7*%
%TO.N,Net-(C11-Pad2)*%
X2508000Y90658000D03*
%TO.P,U1,8,V+*%
%TO.N,+12V*%
X2508000Y91928000D03*
%TD*%
D10*
%TO.P,C9,1*%
%TO.N,+12V*%
X2286000Y95454300D03*
%TO.P,C9,2*%
%TO.N,GND*%
X2286000Y97179300D03*
%TD*%
D20*
%TO.P,R5,1*%
%TO.N,Net-(C11-Pad1)*%
X3253100Y80010000D03*
%TO.P,R5,2*%
%TO.N,R_IN*%
X5078100Y80010000D03*
%TD*%
D21*
%TO.P,R11,1*%
%TO.N,Net-(J5-PadT)*%
X5027300Y53441600D03*
%TO.P,R11,2*%
%TO.N,Net-(R11-Pad2)*%
X3202300Y53441600D03*
%TD*%
D10*
%TO.P,C1,1*%
%TO.N,+12V*%
X3251200Y40387100D03*
%TO.P,C1,2*%
%TO.N,GND*%
X3251200Y42112100D03*
%TD*%
D17*
%TO.P,R8,1*%
%TO.N,Net-(C12-Pad2)*%
X7010400Y78995900D03*
%TO.P,R8,2*%
%TO.N,Net-(R2-Pad1)*%
X7010400Y80820900D03*
%TD*%
%TO.P,R3,1*%
%TO.N,Net-(R3-Pad1)*%
X7924800Y75439900D03*
%TO.P,R3,2*%
%TO.N,/L_POT_OUT*%
X7924800Y77264900D03*
%TD*%
D22*
%TO.P,D2,1,K*%
%TO.N,Net-(D2-Pad1)*%
X1941600Y20980400D03*
%TO.P,D2,2,A*%
%TO.N,-12V*%
X3341600Y20980400D03*
%TD*%
D23*
%TO.P,RV1,1,1*%
%TO.N,Net-(C13-Pad2)*%
X2489200Y26416000D03*
D24*
%TO.P,RV1,2,2*%
%TO.N,/L_POT_OUT*%
X4989200Y26416000D03*
%TO.P,RV1,3,3*%
%TO.N,GND*%
X7489200Y26416000D03*
%TO.P,RV1,4,4*%
%TO.N,Net-(C14-Pad2)*%
X2489200Y23916000D03*
%TO.P,RV1,5,5*%
%TO.N,/R_POT_OUT*%
X4989200Y23916000D03*
%TO.P,RV1,6,6*%
%TO.N,GND*%
X7489200Y23916000D03*
%TD*%
D17*
%TO.P,R1,1*%
%TO.N,Net-(R2-Pad1)*%
X8686800Y100027100D03*
%TO.P,R1,2*%
%TO.N,L_IN*%
X8686800Y101852100D03*
%TD*%
D14*
%TO.P,J1,S*%
%TO.N,GND*%
X5030000Y97142000D03*
D15*
%TO.P,J1,T*%
%TO.N,L_IN*%
X5030000Y108542000D03*
D16*
%TO.P,J1,TN*%
%TO.N,unconnected-(J1-PadTN)*%
X5030000Y100242000D03*
%TD*%
D25*
%TO.P,R4,1*%
%TO.N,Net-(R10-Pad2)*%
X2387600Y84171800D03*
%TO.P,R4,2*%
%TO.N,/R_POT_OUT*%
X2387600Y82346800D03*
%TD*%
D14*
%TO.P,J3,S*%
%TO.N,GND*%
X5030000Y97122600D03*
D15*
%TO.P,J3,T*%
%TO.N,R_IN*%
X5030000Y85722600D03*
D16*
%TO.P,J3,TN*%
%TO.N,Net-(C12-Pad2)*%
X5030000Y94022600D03*
%TD*%
D26*
%TO.P,C12,1*%
%TO.N,Net-(R2-Pad1)*%
X8585200Y80770900D03*
%TO.P,C12,2*%
%TO.N,Net-(C12-Pad2)*%
X8585200Y79045900D03*
%TD*%
D11*
%TO.P,J8,1,Pin_1*%
%TO.N,unconnected-(J8-Pad1)*%
X3805000Y2159000D03*
D12*
%TO.P,J8,2,Pin_2*%
%TO.N,unconnected-(J8-Pad2)*%
X6345000Y2159000D03*
%TD*%
D19*
%TO.P,U2,1*%
%TO.N,Net-(R12-Pad2)*%
X7097800Y65659000D03*
%TO.P,U2,2,-*%
%TO.N,Net-(R3-Pad1)*%
X7097800Y64389000D03*
%TO.P,U2,3,+*%
%TO.N,GND*%
X7097800Y63119000D03*
%TO.P,U2,4,V-*%
%TO.N,-12V*%
X7097800Y61849000D03*
%TO.P,U2,5,+*%
%TO.N,Net-(R12-Pad2)*%
X2147800Y61849000D03*
%TO.P,U2,6,-*%
%TO.N,Net-(R11-Pad2)*%
X2147800Y63119000D03*
%TO.P,U2,7*%
X2147800Y64389000D03*
%TO.P,U2,8,V+*%
%TO.N,+12V*%
X2147800Y65659000D03*
%TD*%
D10*
%TO.P,C10,1*%
%TO.N,-12V*%
X7620000Y94082700D03*
%TO.P,C10,2*%
%TO.N,GND*%
X7620000Y95807700D03*
%TD*%
D27*
%TO.P,C13,1*%
%TO.N,Net-(C12-Pad2)*%
X5982100Y76809600D03*
%TO.P,C13,2*%
%TO.N,Net-(C13-Pad2)*%
X2857100Y76809600D03*
%TD*%
D25*
%TO.P,R13,1*%
%TO.N,Net-(J5-PadTN)*%
X3048000Y30274900D03*
%TO.P,R13,2*%
%TO.N,Net-(R13-Pad2)*%
X3048000Y28449900D03*
%TD*%
D17*
%TO.P,R12,1*%
%TO.N,Net-(J5-PadT)*%
X9042400Y53240300D03*
%TO.P,R12,2*%
%TO.N,Net-(R12-Pad2)*%
X9042400Y55065300D03*
%TD*%
D10*
%TO.P,C2,1*%
%TO.N,-12V*%
X7523000Y40519500D03*
%TO.P,C2,2*%
%TO.N,GND*%
X7523000Y42244500D03*
%TD*%
D11*
%TO.P,J7,1,Pin_1*%
%TO.N,GND*%
X2489200Y105968800D03*
D12*
%TO.P,J7,2,Pin_2*%
%TO.N,R_IN*%
X5029200Y105968800D03*
%TO.P,J7,3,Pin_3*%
%TO.N,L_IN*%
X7569200Y105968800D03*
%TD*%
D10*
%TO.P,C6,1*%
%TO.N,-12V*%
X8081800Y18573900D03*
%TO.P,C6,2*%
%TO.N,GND*%
X8081800Y20298900D03*
%TD*%
D17*
%TO.P,R6,1*%
%TO.N,Net-(C11-Pad1)*%
X7518400Y57710700D03*
%TO.P,R6,2*%
%TO.N,Net-(J4-PadT)*%
X7518400Y59535700D03*
%TD*%
D26*
%TO.P,C5,1*%
%TO.N,GND*%
X8001000Y11530500D03*
%TO.P,C5,2*%
%TO.N,+12V*%
X8001000Y9805500D03*
%TD*%
D25*
%TO.P,R9,1*%
%TO.N,Net-(R12-Pad2)*%
X7416800Y55065300D03*
%TO.P,R9,2*%
%TO.N,Net-(R3-Pad1)*%
X7416800Y53240300D03*
%TD*%
D22*
%TO.P,D1,1,K*%
%TO.N,+12V*%
X3341600Y4876800D03*
%TO.P,D1,2,A*%
%TO.N,Net-(D1-Pad2)*%
X1941600Y4876800D03*
%TD*%
D10*
%TO.P,C11,1*%
%TO.N,Net-(C11-Pad1)*%
X2743200Y101194700D03*
%TO.P,C11,2*%
%TO.N,Net-(C11-Pad2)*%
X2743200Y102919700D03*
%TD*%
D13*
%TO.P,C3,1*%
%TO.N,+12V*%
X8208800Y4716700D03*
%TO.P,C3,2*%
%TO.N,GND*%
X8208800Y7841700D03*
%TD*%
D14*
%TO.P,J5,S*%
%TO.N,GND*%
X5030000Y44056000D03*
D15*
%TO.P,J5,T*%
%TO.N,Net-(J5-PadT)*%
X5030000Y55456000D03*
D16*
%TO.P,J5,TN*%
%TO.N,Net-(J5-PadTN)*%
X5030000Y47156000D03*
%TD*%
D19*
%TO.P,U3,1*%
%TO.N,Net-(R10-Pad1)*%
X7458000Y38588000D03*
%TO.P,U3,2,-*%
%TO.N,Net-(R10-Pad2)*%
X7458000Y37318000D03*
%TO.P,U3,3,+*%
%TO.N,GND*%
X7458000Y36048000D03*
%TO.P,U3,4,V-*%
%TO.N,-12V*%
X7458000Y34778000D03*
%TO.P,U3,5,+*%
%TO.N,Net-(R10-Pad1)*%
X2508000Y34778000D03*
%TO.P,U3,6,-*%
%TO.N,Net-(R13-Pad2)*%
X2508000Y36048000D03*
%TO.P,U3,7*%
X2508000Y37318000D03*
%TO.P,U3,8,V+*%
%TO.N,+12V*%
X2508000Y38588000D03*
%TD*%
D25*
%TO.P,R2,1*%
%TO.N,Net-(R2-Pad1)*%
X7975600Y86104100D03*
%TO.P,R2,2*%
%TO.N,Net-(J2-PadT)*%
X7975600Y84279100D03*
%TD*%
D20*
%TO.P,R10,1*%
%TO.N,Net-(R10-Pad1)*%
X6453500Y30226000D03*
%TO.P,R10,2*%
%TO.N,Net-(R10-Pad2)*%
X8278500Y30226000D03*
%TD*%
D25*
%TO.P,R7,1*%
%TO.N,Net-(C11-Pad2)*%
X1168400Y102969700D03*
%TO.P,R7,2*%
%TO.N,Net-(C11-Pad1)*%
X1168400Y101144700D03*
%TD*%
D28*
%TO.N,Net-(C11-Pad1)*%
X3860800Y69494400D03*
%TO.N,GND*%
X8234200Y14864400D03*
%TO.N,Net-(J5-PadTN)*%
X3860800Y31800800D03*
%TO.N,-12V*%
X8669220Y88138000D03*
X7658300Y67005200D03*
X8669220Y94081600D03*
X8514419Y40690800D03*
X9245600Y23418800D03*
X7783532Y60946532D03*
%TO.N,Net-(R12-Pad2)*%
X6146800Y66344800D03*
X4368800Y61874400D03*
%TO.N,/L_POT_OUT*%
X6871672Y56730561D03*
%TO.N,-12V*%
X8890000Y34848800D03*
%TO.N,Net-(C11-Pad2)*%
X1117600Y52425600D03*
X4114800Y90678000D03*
%TO.N,/R_POT_OUT*%
X1333460Y31394400D03*
X3590207Y57493100D03*
%TO.N,+12V*%
X9072400Y6126800D03*
%TO.N,/L_POT_OUT*%
X6045200Y52324000D03*
X8077200Y48310800D03*
%TO.N,+12V*%
X9144000Y9906000D03*
X1828800Y93726000D03*
X6197600Y32410400D03*
%TO.N,Net-(C11-Pad2)*%
X2895600Y98755200D03*
X1900390Y87084494D03*
%TO.N,GND*%
X2082800Y42062400D03*
%TO.N,Net-(R10-Pad2)*%
X8701689Y39594753D03*
X7679020Y83057989D03*
%TO.N,GND*%
X8229600Y97078800D03*
X4889806Y22212735D03*
%TO.N,+12V*%
X1879600Y43383200D03*
%TO.N,GND*%
X2290600Y71074600D03*
%TO.N,Net-(C13-Pad2)*%
X4521200Y76809600D03*
%TO.N,Net-(C14-Pad2)*%
X7569200Y50355300D03*
%TO.N,Net-(R3-Pad1)*%
X8229600Y69443600D03*
X5892800Y64312800D03*
X7664900Y52006700D03*
X8203157Y73280043D03*
%TO.N,R_IN*%
X5080000Y81127600D03*
%TO.N,+12V*%
X711200Y69443600D03*
%TO.N,Net-(R10-Pad1)*%
X5466476Y39847124D03*
X3403600Y33629600D03*
%TO.N,+12V*%
X2032000Y40386000D03*
%TO.N,Net-(C11-Pad1)*%
X5029200Y57810400D03*
X3051423Y81131023D03*
X2743200Y72796400D03*
X1879600Y98602800D03*
X3995860Y89357200D03*
%TO.N,GND*%
X1676400Y47345600D03*
X9224800Y20274600D03*
%TD*%
D29*
%TO.N,Net-(C12-Pad2)*%
X2771220Y83334780D02*
X3302000Y82804000D01*
X7010400Y78995900D02*
X5982100Y77967600D01*
X5030000Y94022600D02*
X5030000Y93228000D01*
X5413664Y88515536D02*
X1524000Y84625871D01*
X4090120Y81152296D02*
X4090120Y79526680D01*
X6330000Y91928000D02*
X5394880Y90992880D01*
X6330000Y91928000D02*
X7458000Y91928000D01*
X5030000Y93228000D02*
X6330000Y91928000D01*
X4620900Y78995900D02*
X7010400Y78995900D01*
X3302000Y82804000D02*
X3302000Y81940416D01*
X1524000Y83717729D02*
X1906949Y83334780D01*
X5982100Y77967600D02*
X5982100Y76809600D01*
X1906949Y83334780D02*
X2771220Y83334780D01*
X5394880Y88534320D02*
X5413664Y88515536D01*
D30*
X7060400Y79045900D02*
X7010400Y78995900D01*
X8585200Y79045900D02*
X7060400Y79045900D01*
D29*
X1524000Y84625871D02*
X1524000Y83717729D01*
D31*
%TO.N,-12V*%
X7478000Y88138000D02*
X7458000Y88118000D01*
D32*
X5212400Y20980400D02*
X5822000Y21590000D01*
D31*
X7783532Y61163268D02*
X7097800Y61849000D01*
X7112000Y67551500D02*
X7112000Y69241500D01*
X8669220Y94081600D02*
X7621100Y94081600D01*
D32*
X3341600Y20980400D02*
X5212400Y20980400D01*
X9245600Y23418800D02*
X9245600Y22707600D01*
X8432800Y21894800D02*
X6126800Y21894800D01*
X9245600Y22707600D02*
X8432800Y21894800D01*
D31*
X7783532Y60946532D02*
X7783532Y61163268D01*
D30*
%TO.N,+12V*%
X254000Y64491400D02*
X1421600Y65659000D01*
D31*
X1341480Y68813320D02*
X1341480Y68799020D01*
X2286000Y95454300D02*
X3149600Y94590700D01*
X4013200Y37706359D02*
X3131559Y38588000D01*
D32*
X3501700Y4716700D02*
X3341600Y4876800D01*
%TO.N,GND*%
X1935000Y15621000D02*
X1935000Y13081000D01*
D31*
X433960Y40413560D02*
X2082800Y42062400D01*
D32*
X4475000Y13081000D02*
X4475000Y10541000D01*
X1016000Y97282000D02*
X2183300Y97282000D01*
D31*
X7458000Y36048000D02*
X8819200Y36048000D01*
D32*
X1676400Y47345600D02*
X1740400Y47345600D01*
X4480000Y13101400D02*
X7830500Y13101400D01*
D31*
X4889806Y22212735D02*
X4852141Y22250400D01*
%TO.N,+12V*%
X1828800Y93726000D02*
X2286000Y94183200D01*
X711200Y69443600D02*
X1341480Y68813320D01*
X2336800Y67803700D02*
X2316000Y67824500D01*
D30*
X2032000Y40386000D02*
X2033100Y40387100D01*
D32*
X8208800Y5263200D02*
X8208800Y4716700D01*
D31*
X2033100Y40387100D02*
X3251200Y40387100D01*
%TO.N,GND*%
X9568720Y94977680D02*
X8738700Y95807700D01*
X4852141Y22250400D02*
X1168400Y22250400D01*
X9601200Y39222162D02*
X9601200Y40876121D01*
D32*
X2895300Y97179300D02*
X2932600Y97142000D01*
D30*
%TO.N,Net-(J5-PadT)*%
X5027300Y55453300D02*
X5030000Y55456000D01*
D29*
X8205380Y54077320D02*
X9042400Y53240300D01*
D30*
X5027300Y53441600D02*
X5027300Y55453300D01*
D31*
X5029500Y55455500D02*
X5030000Y55456000D01*
D30*
%TO.N,Net-(J5-PadTN)*%
X4826000Y28399100D02*
X4826000Y28496900D01*
X4114800Y31341700D02*
X4114800Y31546800D01*
X4114800Y31546800D02*
X3860800Y31800800D01*
X4826000Y28496900D02*
X3048000Y30274900D01*
X3048000Y30274900D02*
X4114800Y31341700D01*
%TO.N,GND*%
X5308600Y63119000D02*
X4572000Y63855600D01*
X3352800Y67310000D02*
X3352800Y68512700D01*
X622160Y88118000D02*
X575080Y88070920D01*
D32*
X660400Y88156240D02*
X660400Y96926400D01*
X575080Y72790120D02*
X575080Y88070920D01*
D31*
X8616000Y89388000D02*
X9568720Y90340720D01*
D30*
X3352800Y68512700D02*
X2316000Y69549500D01*
D32*
X7830500Y13101400D02*
X8208800Y13479700D01*
X7523000Y43023000D02*
X6490000Y44056000D01*
D31*
%TO.N,+12V*%
X4013200Y34899600D02*
X4013200Y37706359D01*
X6197600Y32715200D02*
X4013200Y34899600D01*
X2336800Y65848000D02*
X2336800Y67803700D01*
D29*
%TO.N,Net-(R3-Pad1)*%
X8229600Y67493870D02*
X8422320Y67301150D01*
X8422320Y64729680D02*
X8081640Y64389000D01*
X7416800Y52254800D02*
X7416800Y53240300D01*
X5969000Y64389000D02*
X7097800Y64389000D01*
%TO.N,Net-(R12-Pad2)*%
X6756400Y55219600D02*
X6756400Y55763845D01*
X5878245Y56642000D02*
X3149600Y56642000D01*
D30*
X4343400Y61849000D02*
X2147800Y61849000D01*
D29*
X7416800Y55065300D02*
X6910700Y55065300D01*
D30*
X6412000Y66344800D02*
X7097800Y65659000D01*
D32*
%TO.N,GND*%
X1935000Y13081000D02*
X1935000Y10541000D01*
X2286000Y97179300D02*
X2895300Y97179300D01*
D31*
X433960Y22984840D02*
X433960Y40413560D01*
D32*
X4475000Y15621000D02*
X4475000Y13081000D01*
D29*
%TO.N,Net-(R10-Pad2)*%
X6348100Y84228300D02*
X2438400Y84228300D01*
D30*
X8890000Y37744400D02*
X8463600Y37318000D01*
D29*
X7518411Y83057989D02*
X6348100Y84228300D01*
D30*
X8890000Y39406442D02*
X8890000Y37744400D01*
D29*
%TO.N,Net-(R13-Pad2)*%
X2184400Y29313500D02*
X3048000Y28449900D01*
X1133480Y33105720D02*
X2184400Y32054800D01*
D30*
X2508000Y36048000D02*
X2508000Y37318000D01*
D29*
X1133480Y35626680D02*
X1133480Y33105720D01*
X1554800Y36048000D02*
X1133480Y35626680D01*
X2184400Y32054800D02*
X2184400Y29313500D01*
X2508000Y36048000D02*
X1554800Y36048000D01*
%TO.N,Net-(J2-PadT)*%
X7939490Y82258489D02*
X8428531Y82747530D01*
D30*
X5078100Y82458900D02*
X5030000Y82507000D01*
D29*
X5030000Y82507000D02*
X5278511Y82258489D01*
X8428531Y82747530D02*
X8428531Y83417869D01*
X7975600Y83892100D02*
X8265650Y83602050D01*
D30*
%TO.N,Net-(R12-Pad2)*%
X6146800Y66344800D02*
X6412000Y66344800D01*
D29*
X6756400Y55763845D02*
X5878245Y56642000D01*
X2147800Y57643800D02*
X2147800Y61849000D01*
X3149600Y56642000D02*
X2147800Y57643800D01*
X6910700Y55065300D02*
X6756400Y55219600D01*
D30*
X4368800Y61874400D02*
X4343400Y61849000D01*
X9042400Y55065300D02*
X7416800Y55065300D01*
D32*
%TO.N,GND*%
X8208800Y13479700D02*
X8208800Y11738300D01*
X7523000Y42244500D02*
X7523000Y43023000D01*
D30*
X2508000Y88118000D02*
X622160Y88118000D01*
D31*
X9589520Y39210482D02*
X9601200Y39222162D01*
D32*
%TO.N,-12V*%
X5822000Y20441600D02*
X8208800Y18054800D01*
D29*
%TO.N,Net-(J2-PadT)*%
X7975600Y84279100D02*
X7975600Y83892100D01*
X8428531Y83417869D02*
X8229600Y83616800D01*
X5278511Y82258489D02*
X7939490Y82258489D01*
%TO.N,Net-(C12-Pad2)*%
X3302000Y81940416D02*
X4090120Y81152296D01*
X5394880Y90992880D02*
X5394880Y88534320D01*
%TO.N,/R_POT_OUT*%
X4592280Y58643480D02*
X3657600Y57708800D01*
X8788400Y68942430D02*
X8788400Y67641498D01*
X8788400Y69944770D02*
X8979111Y69754059D01*
X1676400Y80815970D02*
X1676400Y75555644D01*
X8788400Y67641498D02*
X8921840Y67508057D01*
X8148280Y58643480D02*
X4592280Y58643480D01*
X7105720Y73107480D02*
X8788400Y71424800D01*
X1333460Y31394400D02*
X1168400Y31229340D01*
X2387600Y81527170D02*
X1676400Y80815970D01*
X8979111Y69754059D02*
X8979111Y69133141D01*
X4328800Y23916000D02*
X4989200Y23916000D01*
X3657600Y57560493D02*
X3590207Y57493100D01*
X8921840Y59417040D02*
X8148280Y58643480D01*
X8979111Y69133141D02*
X8788400Y68942430D01*
X3079289Y25165511D02*
X4328800Y23916000D01*
D30*
%TO.N,Net-(R2-Pad1)*%
X7213600Y92811600D02*
X8636000Y92811600D01*
X6618880Y93406320D02*
X7213600Y92811600D01*
X6618880Y95343507D02*
X6629520Y95332867D01*
X8544400Y90658000D02*
X7458000Y90658000D01*
X8636000Y92811600D02*
X8839200Y92608400D01*
X7010400Y80820900D02*
X7060400Y80770900D01*
X6618880Y96088693D02*
X6618880Y95343507D01*
D29*
X8952480Y85127220D02*
X8952480Y81138180D01*
D30*
X6629520Y96099333D02*
X6618880Y96088693D01*
X8839200Y90952800D02*
X8544400Y90658000D01*
D29*
X6975862Y90658000D02*
X7458000Y90658000D01*
X7975600Y86104100D02*
X6998450Y86104100D01*
D30*
X6629520Y95332867D02*
X6629520Y93546454D01*
X6629520Y93546454D02*
X6618880Y93535814D01*
D29*
X6083480Y89765618D02*
X6975862Y90658000D01*
D30*
X8686800Y100027100D02*
X6629520Y97969820D01*
X6629520Y97969820D02*
X6629520Y96099333D01*
D29*
X6998450Y86104100D02*
X6083480Y87019070D01*
%TO.N,/L_POT_OUT*%
X8534400Y56743600D02*
X6884711Y56743600D01*
X6884711Y56743600D02*
X6871672Y56730561D01*
X7924800Y77264900D02*
X9601200Y75588500D01*
X8077200Y48310800D02*
X8432800Y48666400D01*
X9601200Y75588500D02*
X9601200Y57810400D01*
X7112000Y51257200D02*
X6045200Y52324000D01*
X8432800Y48666400D02*
X8432800Y50551670D01*
X9601200Y57810400D02*
X8534400Y56743600D01*
X7727270Y51257200D02*
X7112000Y51257200D01*
X8432800Y50551670D02*
X7727270Y51257200D01*
D32*
%TO.N,GND*%
X1740400Y47345600D02*
X5030000Y44056000D01*
X8229600Y97078800D02*
X7620000Y96469200D01*
X575080Y88070920D02*
X660400Y88156240D01*
X4475000Y10541000D02*
X1935000Y10541000D01*
X1935000Y15621000D02*
X4475000Y15621000D01*
D31*
X9589520Y36818320D02*
X9589520Y39210482D01*
D32*
X2183300Y97282000D02*
X2286000Y97179300D01*
X2932600Y97142000D02*
X5030000Y97142000D01*
D31*
X8738700Y95807700D02*
X7620000Y95807700D01*
D30*
X4572000Y66090800D02*
X3352800Y67310000D01*
%TO.N,Net-(C11-Pad2)*%
X2895600Y98755200D02*
X6045200Y98755200D01*
X7061200Y101447600D02*
X5589100Y102919700D01*
X5589100Y102919700D02*
X2743200Y102919700D01*
D29*
X1117600Y51574300D02*
X2247500Y50444400D01*
D30*
X6045200Y98755200D02*
X7061200Y99771200D01*
D29*
X4795360Y88650410D02*
X4795360Y89997440D01*
D30*
X4094800Y90658000D02*
X4114800Y90678000D01*
D29*
X4795360Y89997440D02*
X4114800Y90678000D01*
D30*
X2743200Y102919700D02*
X2693200Y102969700D01*
D29*
X1900390Y87084494D02*
X3229444Y87084494D01*
D30*
X2693200Y102969700D02*
X1168400Y102969700D01*
D29*
X3229444Y87084494D02*
X4795360Y88650410D01*
D30*
X7061200Y99771200D02*
X7061200Y101447600D01*
X2508000Y90658000D02*
X4094800Y90658000D01*
D29*
X1117600Y52425600D02*
X1117600Y51574300D01*
%TO.N,Net-(C12-Pad2)*%
X4090120Y79526680D02*
X4620900Y78995900D01*
D31*
%TO.N,GND*%
X9568720Y90340720D02*
X9568720Y94977680D01*
D32*
X9200500Y20298900D02*
X8081800Y20298900D01*
D31*
X2316000Y71049200D02*
X2316000Y69549500D01*
D32*
X7620000Y96469200D02*
X7620000Y95807700D01*
%TO.N,-12V*%
X5822000Y21590000D02*
X5822000Y20441600D01*
D31*
X7528800Y34848800D02*
X7458000Y34778000D01*
X8514419Y40690800D02*
X8343119Y40519500D01*
X7658300Y67005200D02*
X7112000Y67551500D01*
X7621100Y94081600D02*
X7620000Y94082700D01*
X8890000Y34848800D02*
X7528800Y34848800D01*
D32*
X6126800Y21894800D02*
X5822000Y21590000D01*
X8208800Y18054800D02*
X8208800Y16604700D01*
D31*
X8669220Y88138000D02*
X7478000Y88138000D01*
X8343119Y40519500D02*
X7523000Y40519500D01*
D32*
%TO.N,Net-(D1-Pad2)*%
X1960400Y7975600D02*
X4434200Y7975600D01*
X1940000Y6442000D02*
X1941600Y6440400D01*
X1941600Y6440400D02*
X1941600Y4876800D01*
X1940000Y8021400D02*
X1940000Y6442000D01*
%TO.N,Net-(D2-Pad1)*%
X1940000Y18181400D02*
X1940000Y20978800D01*
X1935000Y18161000D02*
X4475000Y18161000D01*
X1940000Y20978800D02*
X1941600Y20980400D01*
D30*
%TO.N,Net-(J4-PadT)*%
X5187300Y59535700D02*
X5030000Y59693000D01*
X7518400Y59535700D02*
X5187300Y59535700D01*
D29*
%TO.N,Net-(R11-Pad2)*%
X1473200Y53441600D02*
X1168400Y53746400D01*
X1168400Y53746400D02*
X1168400Y61199480D01*
D30*
X2147800Y63119000D02*
X2147800Y64389000D01*
D29*
X823280Y62697680D02*
X1244600Y63119000D01*
D30*
%TO.N,Net-(R10-Pad2)*%
X8463600Y37318000D02*
X7458000Y37318000D01*
X6279200Y37318000D02*
X7458000Y37318000D01*
D29*
X7679020Y83057989D02*
X7518411Y83057989D01*
D30*
X8701689Y39594753D02*
X8890000Y39406442D01*
X8278500Y30226000D02*
X8278500Y31955100D01*
X5842000Y36880800D02*
X6279200Y37318000D01*
X8278500Y31955100D02*
X5842000Y34391600D01*
X5842000Y34391600D02*
X5842000Y36880800D01*
D31*
%TO.N,GND*%
X1168400Y22250400D02*
X433960Y22984840D01*
X9601200Y40876121D02*
X8232821Y42244500D01*
X2290600Y71074600D02*
X2316000Y71049200D01*
D32*
X1935000Y13081000D02*
X4475000Y13081000D01*
D29*
%TO.N,/R_POT_OUT*%
X1676400Y75555644D02*
X4124564Y73107480D01*
X2387600Y82346800D02*
X2387600Y81527170D01*
X1168400Y25237778D02*
X1240667Y25165511D01*
X1240667Y25165511D02*
X3079289Y25165511D01*
X4124564Y73107480D02*
X7105720Y73107480D01*
X8921840Y67508057D02*
X8921840Y59417040D01*
X8788400Y71424800D02*
X8788400Y69944770D01*
X3657600Y57708800D02*
X3657600Y57560493D01*
X1168400Y31229340D02*
X1168400Y25237778D01*
D30*
%TO.N,L_IN*%
X8145600Y108542000D02*
X5030000Y108542000D01*
D29*
X7569200Y105968800D02*
X7569200Y106034600D01*
X7569200Y106034600D02*
X5061800Y108542000D01*
D30*
X9144000Y107543600D02*
X8145600Y108542000D01*
D29*
X5061800Y108542000D02*
X5030000Y108542000D01*
D30*
X8686800Y101852100D02*
X9144000Y102309300D01*
X9144000Y102309300D02*
X9144000Y107543600D01*
D32*
%TO.N,+12V*%
X9072400Y6126800D02*
X8208800Y5263200D01*
D30*
X254000Y45008800D02*
X254000Y64491400D01*
D31*
X2286000Y94183200D02*
X2286000Y95454300D01*
D32*
%TO.N,GND*%
X8234200Y14864400D02*
X8234200Y13505100D01*
D31*
X2132500Y42112100D02*
X3251200Y42112100D01*
D32*
X660400Y96926400D02*
X1016000Y97282000D01*
X9224800Y20274600D02*
X9200500Y20298900D01*
X2316000Y71049200D02*
X575080Y72790120D01*
D30*
X4572000Y63855600D02*
X4572000Y66090800D01*
X7097800Y63119000D02*
X5308600Y63119000D01*
D31*
X7458000Y89388000D02*
X8616000Y89388000D01*
D30*
%TO.N,+12V*%
X1879600Y43383200D02*
X254000Y45008800D01*
D31*
X6197600Y32410400D02*
X6197600Y32715200D01*
D29*
%TO.N,Net-(C13-Pad2)*%
X4521200Y76809600D02*
X2857100Y76809600D01*
%TO.N,Net-(C14-Pad2)*%
X7569200Y50355300D02*
X5461600Y50355300D01*
%TO.N,Net-(J5-PadT)*%
X5663020Y54077320D02*
X8205380Y54077320D01*
X5027300Y53441600D02*
X5663020Y54077320D01*
D31*
%TO.N,+12V*%
X3149600Y94590700D02*
X3149600Y92569600D01*
D32*
X9125100Y9887100D02*
X8234200Y9887100D01*
D31*
X1341480Y68799020D02*
X2316000Y67824500D01*
D29*
%TO.N,Net-(R3-Pad1)*%
X8081640Y64389000D02*
X7097800Y64389000D01*
D30*
X8331200Y73408086D02*
X8331200Y75389100D01*
D29*
X8229600Y69443600D02*
X8229600Y67493870D01*
X8422320Y67301150D02*
X8422320Y64729680D01*
X7664900Y52006700D02*
X7416800Y52254800D01*
D30*
X8203157Y73280043D02*
X8331200Y73408086D01*
D29*
X5892800Y64312800D02*
X5969000Y64389000D01*
%TO.N,R_IN*%
X5080000Y81127600D02*
X5078100Y81125700D01*
X5078100Y81125700D02*
X5078100Y80010000D01*
D30*
%TO.N,Net-(R2-Pad1)*%
X7060400Y80770900D02*
X8585200Y80770900D01*
D29*
X7975600Y86104100D02*
X8952480Y85127220D01*
X6083480Y87019070D02*
X6083480Y89765618D01*
D30*
X6618880Y93535814D02*
X6618880Y93406320D01*
X8839200Y92608400D02*
X8839200Y90952800D01*
D29*
X8952480Y81138180D02*
X8585200Y80770900D01*
D31*
%TO.N,GND*%
X7112000Y70966500D02*
X5156500Y70966500D01*
D32*
X8208800Y11738300D02*
X8001000Y11530500D01*
D31*
X8819200Y36048000D02*
X9589520Y36818320D01*
D32*
X4480000Y10561400D02*
X7199700Y7841700D01*
D31*
%TO.N,+12V*%
X2508000Y38588000D02*
X2508000Y39643900D01*
D30*
X1421600Y65659000D02*
X2147800Y65659000D01*
D31*
X2508000Y39643900D02*
X3251200Y40387100D01*
X3149600Y92569600D02*
X2508000Y91928000D01*
%TO.N,Net-(R10-Pad1)*%
X5466476Y39847124D02*
X6198876Y39847124D01*
X3403600Y33629600D02*
X2508000Y34525200D01*
X2508000Y34525200D02*
X2508000Y34778000D01*
X6198876Y39847124D02*
X7458000Y38588000D01*
D30*
X4826000Y32207200D02*
X4826000Y30224100D01*
X6453500Y30226000D02*
X4827900Y30226000D01*
X3403600Y33629600D02*
X4826000Y32207200D01*
X4827900Y30226000D02*
X4826000Y30224100D01*
D29*
%TO.N,Net-(R11-Pad2)*%
X3202300Y53441600D02*
X1473200Y53441600D01*
X1244600Y63119000D02*
X2147800Y63119000D01*
X1115893Y61199480D02*
X823280Y61492093D01*
X823280Y61492093D02*
X823280Y62697680D01*
X1168400Y61199480D02*
X1115893Y61199480D01*
D31*
%TO.N,GND*%
X2082800Y42062400D02*
X2132500Y42112100D01*
D32*
X8171100Y7879400D02*
X8208800Y7841700D01*
D31*
%TO.N,+12V*%
X3131559Y38588000D02*
X2508000Y38588000D01*
X2147800Y65659000D02*
X2336800Y65848000D01*
D32*
X8208800Y4716700D02*
X3501700Y4716700D01*
D31*
%TO.N,GND*%
X5156500Y70966500D02*
X5030000Y71093000D01*
D32*
X6490000Y44056000D02*
X5030000Y44056000D01*
D31*
X8232821Y42244500D02*
X7523000Y42244500D01*
D32*
X7199700Y7841700D02*
X8208800Y7841700D01*
D30*
%TO.N,Net-(C11-Pad1)*%
X3995860Y89357200D02*
X3965060Y89388000D01*
X2743200Y72796400D02*
X3403600Y72136000D01*
X2743200Y101194700D02*
X1218400Y101194700D01*
X7469500Y57759600D02*
X7518400Y57710700D01*
X1168400Y101144700D02*
X1168400Y99314000D01*
X3051423Y80211677D02*
X3253100Y80010000D01*
X3403600Y69951600D02*
X3860800Y69494400D01*
X1168400Y99314000D02*
X1879600Y98602800D01*
X3051423Y81131023D02*
X3051423Y80211677D01*
X1218400Y101194700D02*
X1168400Y101144700D01*
X5080000Y57759600D02*
X7469500Y57759600D01*
X5029200Y57810400D02*
X5080000Y57759600D01*
X3965060Y89388000D02*
X2508000Y89388000D01*
X3403600Y72136000D02*
X3403600Y69951600D01*
%TD*%
M02*
