%TF.GenerationSoftware,KiCad,Pcbnew,7.0.7*%
%TF.CreationDate,2023-08-29T15:37:37+10:00*%
%TF.ProjectId,headphone_sum,68656164-7068-46f6-9e65-5f73756d2e6b,rev?*%
%TF.SameCoordinates,Original*%
%TF.FileFunction,Legend,Top*%
%TF.FilePolarity,Positive*%
%FSLAX46Y46*%
G04 Gerber Fmt 4.6, Leading zero omitted, Abs format (unit mm)*
G04 Created by KiCad (PCBNEW 7.0.7) date 2023-08-29 15:37:37*
%MOMM*%
%LPD*%
G01*
G04 APERTURE LIST*
%ADD10C,0.300000*%
%ADD11C,1.000000*%
%ADD12C,0.778011*%
%ADD13C,0.500000*%
%ADD14C,0.200000*%
%ADD15C,0.050000*%
%ADD16C,3.200000*%
G04 APERTURE END LIST*
D10*
X-4187352Y68448362D02*
X-4854019Y69400743D01*
X-5330209Y68448362D02*
X-5330209Y70448362D01*
X-5330209Y70448362D02*
X-4568304Y70448362D01*
X-4568304Y70448362D02*
X-4377828Y70353124D01*
X-4377828Y70353124D02*
X-4282590Y70257886D01*
X-4282590Y70257886D02*
X-4187352Y70067410D01*
X-4187352Y70067410D02*
X-4187352Y69781696D01*
X-4187352Y69781696D02*
X-4282590Y69591220D01*
X-4282590Y69591220D02*
X-4377828Y69495981D01*
X-4377828Y69495981D02*
X-4568304Y69400743D01*
X-4568304Y69400743D02*
X-5330209Y69400743D01*
X-10486552Y70835962D02*
X-11438933Y70835962D01*
X-11438933Y70835962D02*
X-11438933Y72835962D01*
D11*
X-8057600Y68251800D02*
X-8057600Y74121800D01*
D12*
X-9817395Y60183000D02*
G75*
G03*
X-9817395Y60183000I-389005J0D01*
G01*
X-5717395Y60158000D02*
G75*
G03*
X-5717395Y60158000I-389005J0D01*
G01*
X-11567395Y108958000D02*
G75*
G03*
X-11567395Y108958000I-389005J0D01*
G01*
X-3667395Y108958000D02*
G75*
G03*
X-3667395Y108958000I-389005J0D01*
G01*
D11*
X-8026400Y94194600D02*
X-8026400Y100064600D01*
X-3149600Y58674000D02*
X-13004800Y58674000D01*
X-3149600Y84734400D02*
X-13004800Y84734400D01*
D13*
X-3421600Y50571000D02*
G75*
G03*
X-3421600Y50571000I-4600000J0D01*
G01*
D11*
X-3200400Y110439200D02*
X-13055600Y110439200D01*
D14*
X-4112300Y114373258D02*
X-4040871Y114587544D01*
X-4040871Y114587544D02*
X-4040871Y114944686D01*
X-4040871Y114944686D02*
X-4112300Y115087544D01*
X-4112300Y115087544D02*
X-4183728Y115158972D01*
X-4183728Y115158972D02*
X-4326585Y115230401D01*
X-4326585Y115230401D02*
X-4469442Y115230401D01*
X-4469442Y115230401D02*
X-4612300Y115158972D01*
X-4612300Y115158972D02*
X-4683728Y115087544D01*
X-4683728Y115087544D02*
X-4755157Y114944686D01*
X-4755157Y114944686D02*
X-4826585Y114658972D01*
X-4826585Y114658972D02*
X-4898014Y114516115D01*
X-4898014Y114516115D02*
X-4969442Y114444686D01*
X-4969442Y114444686D02*
X-5112300Y114373258D01*
X-5112300Y114373258D02*
X-5255157Y114373258D01*
X-5255157Y114373258D02*
X-5398014Y114444686D01*
X-5398014Y114444686D02*
X-5469442Y114516115D01*
X-5469442Y114516115D02*
X-5540871Y114658972D01*
X-5540871Y114658972D02*
X-5540871Y115016115D01*
X-5540871Y115016115D02*
X-5469442Y115230401D01*
X-4112300Y115801829D02*
X-4040871Y116016115D01*
X-4040871Y116016115D02*
X-4040871Y116373257D01*
X-4040871Y116373257D02*
X-4112300Y116516115D01*
X-4112300Y116516115D02*
X-4183728Y116587543D01*
X-4183728Y116587543D02*
X-4326585Y116658972D01*
X-4326585Y116658972D02*
X-4469442Y116658972D01*
X-4469442Y116658972D02*
X-4612300Y116587543D01*
X-4612300Y116587543D02*
X-4683728Y116516115D01*
X-4683728Y116516115D02*
X-4755157Y116373257D01*
X-4755157Y116373257D02*
X-4826585Y116087543D01*
X-4826585Y116087543D02*
X-4898014Y115944686D01*
X-4898014Y115944686D02*
X-4969442Y115873257D01*
X-4969442Y115873257D02*
X-5112300Y115801829D01*
X-5112300Y115801829D02*
X-5255157Y115801829D01*
X-5255157Y115801829D02*
X-5398014Y115873257D01*
X-5398014Y115873257D02*
X-5469442Y115944686D01*
X-5469442Y115944686D02*
X-5540871Y116087543D01*
X-5540871Y116087543D02*
X-5540871Y116444686D01*
X-5540871Y116444686D02*
X-5469442Y116658972D01*
X-4112300Y117230400D02*
X-4040871Y117444686D01*
X-4040871Y117444686D02*
X-4040871Y117801828D01*
X-4040871Y117801828D02*
X-4112300Y117944686D01*
X-4112300Y117944686D02*
X-4183728Y118016114D01*
X-4183728Y118016114D02*
X-4326585Y118087543D01*
X-4326585Y118087543D02*
X-4469442Y118087543D01*
X-4469442Y118087543D02*
X-4612300Y118016114D01*
X-4612300Y118016114D02*
X-4683728Y117944686D01*
X-4683728Y117944686D02*
X-4755157Y117801828D01*
X-4755157Y117801828D02*
X-4826585Y117516114D01*
X-4826585Y117516114D02*
X-4898014Y117373257D01*
X-4898014Y117373257D02*
X-4969442Y117301828D01*
X-4969442Y117301828D02*
X-5112300Y117230400D01*
X-5112300Y117230400D02*
X-5255157Y117230400D01*
X-5255157Y117230400D02*
X-5398014Y117301828D01*
X-5398014Y117301828D02*
X-5469442Y117373257D01*
X-5469442Y117373257D02*
X-5540871Y117516114D01*
X-5540871Y117516114D02*
X-5540871Y117873257D01*
X-5540871Y117873257D02*
X-5469442Y118087543D01*
D10*
X-10455352Y96778762D02*
X-11407733Y96778762D01*
X-11407733Y96778762D02*
X-11407733Y98778762D01*
X-10397809Y27303162D02*
X-9731143Y25303162D01*
X-9731143Y25303162D02*
X-9064476Y27303162D01*
X-8016857Y27303162D02*
X-7635904Y27303162D01*
X-7635904Y27303162D02*
X-7445428Y27207924D01*
X-7445428Y27207924D02*
X-7254952Y27017448D01*
X-7254952Y27017448D02*
X-7159714Y26636496D01*
X-7159714Y26636496D02*
X-7159714Y25969829D01*
X-7159714Y25969829D02*
X-7254952Y25588877D01*
X-7254952Y25588877D02*
X-7445428Y25398400D01*
X-7445428Y25398400D02*
X-7635904Y25303162D01*
X-7635904Y25303162D02*
X-8016857Y25303162D01*
X-8016857Y25303162D02*
X-8207333Y25398400D01*
X-8207333Y25398400D02*
X-8397809Y25588877D01*
X-8397809Y25588877D02*
X-8493047Y25969829D01*
X-8493047Y25969829D02*
X-8493047Y26636496D01*
X-8493047Y26636496D02*
X-8397809Y27017448D01*
X-8397809Y27017448D02*
X-8207333Y27207924D01*
X-8207333Y27207924D02*
X-8016857Y27303162D01*
X-5350190Y25303162D02*
X-6302571Y25303162D01*
X-6302571Y25303162D02*
X-6302571Y27303162D01*
D13*
X-6638142Y1449633D02*
X-9638142Y1449633D01*
X-6638142Y2735347D02*
X-8209571Y2735347D01*
X-8209571Y2735347D02*
X-8495285Y2592490D01*
X-8495285Y2592490D02*
X-8638142Y2306776D01*
X-8638142Y2306776D02*
X-8638142Y1878205D01*
X-8638142Y1878205D02*
X-8495285Y1592490D01*
X-8495285Y1592490D02*
X-8352428Y1449633D01*
X-6781000Y5306776D02*
X-6638142Y5021062D01*
X-6638142Y5021062D02*
X-6638142Y4449633D01*
X-6638142Y4449633D02*
X-6781000Y4163919D01*
X-6781000Y4163919D02*
X-7066714Y4021062D01*
X-7066714Y4021062D02*
X-8209571Y4021062D01*
X-8209571Y4021062D02*
X-8495285Y4163919D01*
X-8495285Y4163919D02*
X-8638142Y4449633D01*
X-8638142Y4449633D02*
X-8638142Y5021062D01*
X-8638142Y5021062D02*
X-8495285Y5306776D01*
X-8495285Y5306776D02*
X-8209571Y5449633D01*
X-8209571Y5449633D02*
X-7923857Y5449633D01*
X-7923857Y5449633D02*
X-7638142Y4021062D01*
X-6638142Y8021062D02*
X-9638142Y8021062D01*
X-6781000Y8021062D02*
X-6638142Y7735348D01*
X-6638142Y7735348D02*
X-6638142Y7163920D01*
X-6638142Y7163920D02*
X-6781000Y6878205D01*
X-6781000Y6878205D02*
X-6923857Y6735348D01*
X-6923857Y6735348D02*
X-7209571Y6592491D01*
X-7209571Y6592491D02*
X-8066714Y6592491D01*
X-8066714Y6592491D02*
X-8352428Y6735348D01*
X-8352428Y6735348D02*
X-8495285Y6878205D01*
X-8495285Y6878205D02*
X-8638142Y7163920D01*
X-8638142Y7163920D02*
X-8638142Y7735348D01*
X-8638142Y7735348D02*
X-8495285Y8021062D01*
X-8638142Y9021063D02*
X-8638142Y10163920D01*
X-6638142Y9449634D02*
X-9209571Y9449634D01*
X-9209571Y9449634D02*
X-9495285Y9592491D01*
X-9495285Y9592491D02*
X-9638142Y9878206D01*
X-9638142Y9878206D02*
X-9638142Y10163920D01*
X-6638142Y11592492D02*
X-6781000Y11306777D01*
X-6781000Y11306777D02*
X-6923857Y11163920D01*
X-6923857Y11163920D02*
X-7209571Y11021063D01*
X-7209571Y11021063D02*
X-8066714Y11021063D01*
X-8066714Y11021063D02*
X-8352428Y11163920D01*
X-8352428Y11163920D02*
X-8495285Y11306777D01*
X-8495285Y11306777D02*
X-8638142Y11592492D01*
X-8638142Y11592492D02*
X-8638142Y12021063D01*
X-8638142Y12021063D02*
X-8495285Y12306777D01*
X-8495285Y12306777D02*
X-8352428Y12449634D01*
X-8352428Y12449634D02*
X-8066714Y12592492D01*
X-8066714Y12592492D02*
X-7209571Y12592492D01*
X-7209571Y12592492D02*
X-6923857Y12449634D01*
X-6923857Y12449634D02*
X-6781000Y12306777D01*
X-6781000Y12306777D02*
X-6638142Y12021063D01*
X-6638142Y12021063D02*
X-6638142Y11592492D01*
X-8638142Y13878206D02*
X-6638142Y13878206D01*
X-8352428Y13878206D02*
X-8495285Y14021063D01*
X-8495285Y14021063D02*
X-8638142Y14306778D01*
X-8638142Y14306778D02*
X-8638142Y14735349D01*
X-8638142Y14735349D02*
X-8495285Y15021063D01*
X-8495285Y15021063D02*
X-8209571Y15163920D01*
X-8209571Y15163920D02*
X-6638142Y15163920D01*
X-6781000Y17735349D02*
X-6638142Y17449635D01*
X-6638142Y17449635D02*
X-6638142Y16878206D01*
X-6638142Y16878206D02*
X-6781000Y16592492D01*
X-6781000Y16592492D02*
X-7066714Y16449635D01*
X-7066714Y16449635D02*
X-8209571Y16449635D01*
X-8209571Y16449635D02*
X-8495285Y16592492D01*
X-8495285Y16592492D02*
X-8638142Y16878206D01*
X-8638142Y16878206D02*
X-8638142Y17449635D01*
X-8638142Y17449635D02*
X-8495285Y17735349D01*
X-8495285Y17735349D02*
X-8209571Y17878206D01*
X-8209571Y17878206D02*
X-7923857Y17878206D01*
X-7923857Y17878206D02*
X-7638142Y16449635D01*
D10*
X-4156152Y94391162D02*
X-4822819Y95343543D01*
X-5299009Y94391162D02*
X-5299009Y96391162D01*
X-5299009Y96391162D02*
X-4537104Y96391162D01*
X-4537104Y96391162D02*
X-4346628Y96295924D01*
X-4346628Y96295924D02*
X-4251390Y96200686D01*
X-4251390Y96200686D02*
X-4156152Y96010210D01*
X-4156152Y96010210D02*
X-4156152Y95724496D01*
X-4156152Y95724496D02*
X-4251390Y95534020D01*
X-4251390Y95534020D02*
X-4346628Y95438781D01*
X-4346628Y95438781D02*
X-4537104Y95343543D01*
X-4537104Y95343543D02*
X-5299009Y95343543D01*
D13*
G36*
X-9806262Y41897261D02*
G01*
X-9693436Y41784436D01*
X-9622457Y41500518D01*
X-9622457Y40895407D01*
X-9693436Y40611488D01*
X-9806260Y40498664D01*
X-9907664Y40447962D01*
X-10170582Y40447962D01*
X-10271985Y40498664D01*
X-10384810Y40611489D01*
X-10455790Y40895407D01*
X-10455790Y41500518D01*
X-10384810Y41784436D01*
X-10271985Y41897261D01*
X-10170582Y41947962D01*
X-9907664Y41947962D01*
X-9806262Y41897261D01*
G37*
G36*
X-5027219Y39662248D02*
G01*
X-11241504Y39662248D01*
X-11241504Y40864629D01*
X-10955790Y40864629D01*
X-10949814Y40834590D01*
X-10948326Y40803995D01*
X-10853088Y40423043D01*
X-10845147Y40406235D01*
X-10841522Y40388007D01*
X-10824506Y40362542D01*
X-10811422Y40334844D01*
X-10797654Y40322355D01*
X-10787329Y40306901D01*
X-10596853Y40116424D01*
X-10563537Y40094164D01*
X-10531879Y40069593D01*
X-10341403Y39974355D01*
X-10332740Y39971983D01*
X-10325271Y39966992D01*
X-10285968Y39959175D01*
X-10247322Y39948591D01*
X-10238410Y39949715D01*
X-10229600Y39947962D01*
X-9848647Y39947962D01*
X-9839836Y39949715D01*
X-9830925Y39948591D01*
X-9792278Y39959175D01*
X-9752976Y39966992D01*
X-9745506Y39971983D01*
X-9736844Y39974355D01*
X-9546367Y40069593D01*
X-9514706Y40094165D01*
X-9481394Y40116424D01*
X-9290918Y40306900D01*
X-9280590Y40322356D01*
X-9266825Y40334844D01*
X-9253742Y40362538D01*
X-9236725Y40388006D01*
X-9233098Y40406236D01*
X-9225159Y40423043D01*
X-9186191Y40578915D01*
X-8765314Y40578915D01*
X-8763561Y40570105D01*
X-8764685Y40561193D01*
X-8754101Y40522547D01*
X-8746284Y40483244D01*
X-8741293Y40475775D01*
X-8738921Y40467112D01*
X-8643683Y40276635D01*
X-8619117Y40244984D01*
X-8596854Y40211663D01*
X-8501615Y40116424D01*
X-8468295Y40094161D01*
X-8436641Y40069593D01*
X-8246165Y39974355D01*
X-8237502Y39971983D01*
X-8230033Y39966992D01*
X-8190730Y39959175D01*
X-8152084Y39948591D01*
X-8143172Y39949715D01*
X-8134362Y39947962D01*
X-7753409Y39947962D01*
X-7744598Y39949715D01*
X-7735687Y39948591D01*
X-7697040Y39959175D01*
X-7657738Y39966992D01*
X-7650268Y39971983D01*
X-7641606Y39974355D01*
X-7451129Y40069593D01*
X-7419474Y40094161D01*
X-7386155Y40116424D01*
X-7290917Y40211664D01*
X-7268655Y40244982D01*
X-7244088Y40276636D01*
X-7148850Y40467112D01*
X-7146477Y40475775D01*
X-7141487Y40483244D01*
X-7133669Y40522547D01*
X-7123086Y40561193D01*
X-7124209Y40570105D01*
X-7122457Y40578915D01*
X-7122457Y42197962D01*
X-6955790Y42197962D01*
X-6936760Y42102291D01*
X-6882567Y42021185D01*
X-6801461Y41966992D01*
X-6705790Y41947962D01*
X-6384362Y41947962D01*
X-6384362Y40197962D01*
X-6365332Y40102291D01*
X-6311139Y40021185D01*
X-6230033Y39966992D01*
X-6134362Y39947962D01*
X-6038691Y39966992D01*
X-5957585Y40021185D01*
X-5903392Y40102291D01*
X-5884362Y40197962D01*
X-5884362Y41947962D01*
X-5562933Y41947962D01*
X-5467262Y41966992D01*
X-5386156Y42021185D01*
X-5331963Y42102291D01*
X-5312933Y42197962D01*
X-5331963Y42293633D01*
X-5386156Y42374739D01*
X-5467262Y42428932D01*
X-5562933Y42447962D01*
X-6705790Y42447962D01*
X-6801461Y42428932D01*
X-6882567Y42374739D01*
X-6936760Y42293633D01*
X-6955790Y42197962D01*
X-7122457Y42197962D01*
X-7141487Y42293633D01*
X-7195680Y42374739D01*
X-7276786Y42428932D01*
X-7372457Y42447962D01*
X-7468128Y42428932D01*
X-7549234Y42374739D01*
X-7603427Y42293633D01*
X-7622457Y42197962D01*
X-7622457Y40637933D01*
X-7673159Y40536528D01*
X-7711023Y40498663D01*
X-7812426Y40447962D01*
X-8075344Y40447962D01*
X-8176747Y40498664D01*
X-8214612Y40536529D01*
X-8265314Y40637932D01*
X-8265314Y42197962D01*
X-8284344Y42293633D01*
X-8338537Y42374739D01*
X-8419643Y42428932D01*
X-8515314Y42447962D01*
X-8610985Y42428932D01*
X-8692091Y42374739D01*
X-8746284Y42293633D01*
X-8765314Y42197962D01*
X-8765314Y40578915D01*
X-9186191Y40578915D01*
X-9129921Y40803995D01*
X-9128432Y40834590D01*
X-9122457Y40864629D01*
X-9122457Y41531296D01*
X-9128432Y41561336D01*
X-9129921Y41591930D01*
X-9225159Y41972882D01*
X-9233098Y41989689D01*
X-9236725Y42007919D01*
X-9253742Y42033388D01*
X-9266825Y42061081D01*
X-9280590Y42073570D01*
X-9290918Y42089025D01*
X-9481394Y42279501D01*
X-9514712Y42301764D01*
X-9546367Y42326331D01*
X-9736844Y42421569D01*
X-9745506Y42423942D01*
X-9752976Y42428932D01*
X-9792278Y42436750D01*
X-9830925Y42447333D01*
X-9839836Y42446210D01*
X-9848647Y42447962D01*
X-10229600Y42447962D01*
X-10238410Y42446210D01*
X-10247322Y42447333D01*
X-10285968Y42436750D01*
X-10325271Y42428932D01*
X-10332740Y42423942D01*
X-10341403Y42421569D01*
X-10531879Y42326331D01*
X-10563530Y42301767D01*
X-10596853Y42279501D01*
X-10787329Y42089025D01*
X-10797656Y42073569D01*
X-10811422Y42061081D01*
X-10824504Y42033388D01*
X-10841522Y42007919D01*
X-10845148Y41989690D01*
X-10853088Y41972882D01*
X-10948326Y41591930D01*
X-10949814Y41561336D01*
X-10955790Y41531296D01*
X-10955790Y40864629D01*
X-11241504Y40864629D01*
X-11241504Y42733676D01*
X-5027219Y42733676D01*
X-5027219Y39662248D01*
G37*
%LPC*%
D10*
X-9121580Y71745600D02*
G75*
G03*
X-9121580Y71745600I-1831620J0D01*
G01*
D15*
X-3962400Y44907200D02*
X-5165754Y44781477D01*
X-3854637Y46092594D01*
X-3962400Y44907200D01*
G36*
X-3962400Y44907200D02*
G01*
X-5165754Y44781477D01*
X-3854637Y46092594D01*
X-3962400Y44907200D01*
G37*
D13*
X-3421600Y103581200D02*
G75*
G03*
X-3421600Y103581200I-4600000J0D01*
G01*
X-3421600Y77622400D02*
G75*
G03*
X-3421600Y77622400I-4600000J0D01*
G01*
D10*
X-9090380Y97688400D02*
G75*
G03*
X-9090380Y97688400I-1831620J0D01*
G01*
D15*
X-10701806Y44748637D02*
X-11887200Y44856400D01*
X-12012923Y46059754D01*
X-10701806Y44748637D01*
G36*
X-10701806Y44748637D02*
G01*
X-11887200Y44856400D01*
X-12012923Y46059754D01*
X-10701806Y44748637D01*
G37*
D16*
%TO.C,M3 Screw*%
X-10481600Y-6250000D03*
%TD*%
%TO.C,M3 screw*%
X-10481600Y116250000D03*
%TD*%
%LPD*%
M02*
