%TF.GenerationSoftware,KiCad,Pcbnew,7.0.7*%
%TF.CreationDate,2023-09-10T14:09:33+10:00*%
%TF.ProjectId,headphone_sum,68656164-7068-46f6-9e65-5f73756d2e6b,rev?*%
%TF.SameCoordinates,Original*%
%TF.FileFunction,Other,Comment*%
%FSLAX46Y46*%
G04 Gerber Fmt 4.6, Leading zero omitted, Abs format (unit mm)*
G04 Created by KiCad (PCBNEW 7.0.7) date 2023-09-10 14:09:33*
%MOMM*%
%LPD*%
G01*
G04 APERTURE LIST*
%ADD10C,0.051000*%
G04 APERTURE END LIST*
D10*
X3791904Y50353605D02*
X3791904Y50753605D01*
X4020475Y50353605D02*
X3849046Y50582176D01*
X4020475Y50753605D02*
X3791904Y50525033D01*
X4191904Y50563129D02*
X4325237Y50563129D01*
X4382380Y50353605D02*
X4191904Y50353605D01*
X4191904Y50353605D02*
X4191904Y50753605D01*
X4191904Y50753605D02*
X4382380Y50753605D01*
X4553809Y50563129D02*
X4687142Y50563129D01*
X4744285Y50353605D02*
X4553809Y50353605D01*
X4553809Y50353605D02*
X4553809Y50753605D01*
X4553809Y50753605D02*
X4744285Y50753605D01*
X4915714Y50353605D02*
X4915714Y50753605D01*
X4915714Y50753605D02*
X5068095Y50753605D01*
X5068095Y50753605D02*
X5106190Y50734557D01*
X5106190Y50734557D02*
X5125237Y50715510D01*
X5125237Y50715510D02*
X5144285Y50677414D01*
X5144285Y50677414D02*
X5144285Y50620272D01*
X5144285Y50620272D02*
X5125237Y50582176D01*
X5125237Y50582176D02*
X5106190Y50563129D01*
X5106190Y50563129D02*
X5068095Y50544081D01*
X5068095Y50544081D02*
X4915714Y50544081D01*
X5391904Y50753605D02*
X5468095Y50753605D01*
X5468095Y50753605D02*
X5506190Y50734557D01*
X5506190Y50734557D02*
X5544285Y50696462D01*
X5544285Y50696462D02*
X5563333Y50620272D01*
X5563333Y50620272D02*
X5563333Y50486938D01*
X5563333Y50486938D02*
X5544285Y50410748D01*
X5544285Y50410748D02*
X5506190Y50372652D01*
X5506190Y50372652D02*
X5468095Y50353605D01*
X5468095Y50353605D02*
X5391904Y50353605D01*
X5391904Y50353605D02*
X5353809Y50372652D01*
X5353809Y50372652D02*
X5315714Y50410748D01*
X5315714Y50410748D02*
X5296666Y50486938D01*
X5296666Y50486938D02*
X5296666Y50620272D01*
X5296666Y50620272D02*
X5315714Y50696462D01*
X5315714Y50696462D02*
X5353809Y50734557D01*
X5353809Y50734557D02*
X5391904Y50753605D01*
X5734762Y50753605D02*
X5734762Y50429795D01*
X5734762Y50429795D02*
X5753809Y50391700D01*
X5753809Y50391700D02*
X5772857Y50372652D01*
X5772857Y50372652D02*
X5810952Y50353605D01*
X5810952Y50353605D02*
X5887143Y50353605D01*
X5887143Y50353605D02*
X5925238Y50372652D01*
X5925238Y50372652D02*
X5944285Y50391700D01*
X5944285Y50391700D02*
X5963333Y50429795D01*
X5963333Y50429795D02*
X5963333Y50753605D01*
X6096667Y50753605D02*
X6325238Y50753605D01*
X6210952Y50353605D02*
X6210952Y50753605D01*
X3791904Y90460205D02*
X3791904Y90860205D01*
X4020475Y90460205D02*
X3849046Y90688776D01*
X4020475Y90860205D02*
X3791904Y90631633D01*
X4191904Y90669729D02*
X4325237Y90669729D01*
X4382380Y90460205D02*
X4191904Y90460205D01*
X4191904Y90460205D02*
X4191904Y90860205D01*
X4191904Y90860205D02*
X4382380Y90860205D01*
X4553809Y90669729D02*
X4687142Y90669729D01*
X4744285Y90460205D02*
X4553809Y90460205D01*
X4553809Y90460205D02*
X4553809Y90860205D01*
X4553809Y90860205D02*
X4744285Y90860205D01*
X4915714Y90460205D02*
X4915714Y90860205D01*
X4915714Y90860205D02*
X5068095Y90860205D01*
X5068095Y90860205D02*
X5106190Y90841157D01*
X5106190Y90841157D02*
X5125237Y90822110D01*
X5125237Y90822110D02*
X5144285Y90784014D01*
X5144285Y90784014D02*
X5144285Y90726872D01*
X5144285Y90726872D02*
X5125237Y90688776D01*
X5125237Y90688776D02*
X5106190Y90669729D01*
X5106190Y90669729D02*
X5068095Y90650681D01*
X5068095Y90650681D02*
X4915714Y90650681D01*
X5391904Y90860205D02*
X5468095Y90860205D01*
X5468095Y90860205D02*
X5506190Y90841157D01*
X5506190Y90841157D02*
X5544285Y90803062D01*
X5544285Y90803062D02*
X5563333Y90726872D01*
X5563333Y90726872D02*
X5563333Y90593538D01*
X5563333Y90593538D02*
X5544285Y90517348D01*
X5544285Y90517348D02*
X5506190Y90479252D01*
X5506190Y90479252D02*
X5468095Y90460205D01*
X5468095Y90460205D02*
X5391904Y90460205D01*
X5391904Y90460205D02*
X5353809Y90479252D01*
X5353809Y90479252D02*
X5315714Y90517348D01*
X5315714Y90517348D02*
X5296666Y90593538D01*
X5296666Y90593538D02*
X5296666Y90726872D01*
X5296666Y90726872D02*
X5315714Y90803062D01*
X5315714Y90803062D02*
X5353809Y90841157D01*
X5353809Y90841157D02*
X5391904Y90860205D01*
X5734762Y90860205D02*
X5734762Y90536395D01*
X5734762Y90536395D02*
X5753809Y90498300D01*
X5753809Y90498300D02*
X5772857Y90479252D01*
X5772857Y90479252D02*
X5810952Y90460205D01*
X5810952Y90460205D02*
X5887143Y90460205D01*
X5887143Y90460205D02*
X5925238Y90479252D01*
X5925238Y90479252D02*
X5944285Y90498300D01*
X5944285Y90498300D02*
X5963333Y90536395D01*
X5963333Y90536395D02*
X5963333Y90860205D01*
X6096667Y90860205D02*
X6325238Y90860205D01*
X6210952Y90460205D02*
X6210952Y90860205D01*
X3791904Y77404605D02*
X3791904Y77804605D01*
X4020475Y77404605D02*
X3849046Y77633176D01*
X4020475Y77804605D02*
X3791904Y77576033D01*
X4191904Y77614129D02*
X4325237Y77614129D01*
X4382380Y77404605D02*
X4191904Y77404605D01*
X4191904Y77404605D02*
X4191904Y77804605D01*
X4191904Y77804605D02*
X4382380Y77804605D01*
X4553809Y77614129D02*
X4687142Y77614129D01*
X4744285Y77404605D02*
X4553809Y77404605D01*
X4553809Y77404605D02*
X4553809Y77804605D01*
X4553809Y77804605D02*
X4744285Y77804605D01*
X4915714Y77404605D02*
X4915714Y77804605D01*
X4915714Y77804605D02*
X5068095Y77804605D01*
X5068095Y77804605D02*
X5106190Y77785557D01*
X5106190Y77785557D02*
X5125237Y77766510D01*
X5125237Y77766510D02*
X5144285Y77728414D01*
X5144285Y77728414D02*
X5144285Y77671272D01*
X5144285Y77671272D02*
X5125237Y77633176D01*
X5125237Y77633176D02*
X5106190Y77614129D01*
X5106190Y77614129D02*
X5068095Y77595081D01*
X5068095Y77595081D02*
X4915714Y77595081D01*
X5391904Y77804605D02*
X5468095Y77804605D01*
X5468095Y77804605D02*
X5506190Y77785557D01*
X5506190Y77785557D02*
X5544285Y77747462D01*
X5544285Y77747462D02*
X5563333Y77671272D01*
X5563333Y77671272D02*
X5563333Y77537938D01*
X5563333Y77537938D02*
X5544285Y77461748D01*
X5544285Y77461748D02*
X5506190Y77423652D01*
X5506190Y77423652D02*
X5468095Y77404605D01*
X5468095Y77404605D02*
X5391904Y77404605D01*
X5391904Y77404605D02*
X5353809Y77423652D01*
X5353809Y77423652D02*
X5315714Y77461748D01*
X5315714Y77461748D02*
X5296666Y77537938D01*
X5296666Y77537938D02*
X5296666Y77671272D01*
X5296666Y77671272D02*
X5315714Y77747462D01*
X5315714Y77747462D02*
X5353809Y77785557D01*
X5353809Y77785557D02*
X5391904Y77804605D01*
X5734762Y77804605D02*
X5734762Y77480795D01*
X5734762Y77480795D02*
X5753809Y77442700D01*
X5753809Y77442700D02*
X5772857Y77423652D01*
X5772857Y77423652D02*
X5810952Y77404605D01*
X5810952Y77404605D02*
X5887143Y77404605D01*
X5887143Y77404605D02*
X5925238Y77423652D01*
X5925238Y77423652D02*
X5944285Y77442700D01*
X5944285Y77442700D02*
X5963333Y77480795D01*
X5963333Y77480795D02*
X5963333Y77804605D01*
X6096667Y77804605D02*
X6325238Y77804605D01*
X6210952Y77404605D02*
X6210952Y77804605D01*
X3791904Y103439605D02*
X3791904Y103839605D01*
X4020475Y103439605D02*
X3849046Y103668176D01*
X4020475Y103839605D02*
X3791904Y103611033D01*
X4191904Y103649129D02*
X4325237Y103649129D01*
X4382380Y103439605D02*
X4191904Y103439605D01*
X4191904Y103439605D02*
X4191904Y103839605D01*
X4191904Y103839605D02*
X4382380Y103839605D01*
X4553809Y103649129D02*
X4687142Y103649129D01*
X4744285Y103439605D02*
X4553809Y103439605D01*
X4553809Y103439605D02*
X4553809Y103839605D01*
X4553809Y103839605D02*
X4744285Y103839605D01*
X4915714Y103439605D02*
X4915714Y103839605D01*
X4915714Y103839605D02*
X5068095Y103839605D01*
X5068095Y103839605D02*
X5106190Y103820557D01*
X5106190Y103820557D02*
X5125237Y103801510D01*
X5125237Y103801510D02*
X5144285Y103763414D01*
X5144285Y103763414D02*
X5144285Y103706272D01*
X5144285Y103706272D02*
X5125237Y103668176D01*
X5125237Y103668176D02*
X5106190Y103649129D01*
X5106190Y103649129D02*
X5068095Y103630081D01*
X5068095Y103630081D02*
X4915714Y103630081D01*
X5391904Y103839605D02*
X5468095Y103839605D01*
X5468095Y103839605D02*
X5506190Y103820557D01*
X5506190Y103820557D02*
X5544285Y103782462D01*
X5544285Y103782462D02*
X5563333Y103706272D01*
X5563333Y103706272D02*
X5563333Y103572938D01*
X5563333Y103572938D02*
X5544285Y103496748D01*
X5544285Y103496748D02*
X5506190Y103458652D01*
X5506190Y103458652D02*
X5468095Y103439605D01*
X5468095Y103439605D02*
X5391904Y103439605D01*
X5391904Y103439605D02*
X5353809Y103458652D01*
X5353809Y103458652D02*
X5315714Y103496748D01*
X5315714Y103496748D02*
X5296666Y103572938D01*
X5296666Y103572938D02*
X5296666Y103706272D01*
X5296666Y103706272D02*
X5315714Y103782462D01*
X5315714Y103782462D02*
X5353809Y103820557D01*
X5353809Y103820557D02*
X5391904Y103839605D01*
X5734762Y103839605D02*
X5734762Y103515795D01*
X5734762Y103515795D02*
X5753809Y103477700D01*
X5753809Y103477700D02*
X5772857Y103458652D01*
X5772857Y103458652D02*
X5810952Y103439605D01*
X5810952Y103439605D02*
X5887143Y103439605D01*
X5887143Y103439605D02*
X5925238Y103458652D01*
X5925238Y103458652D02*
X5944285Y103477700D01*
X5944285Y103477700D02*
X5963333Y103515795D01*
X5963333Y103515795D02*
X5963333Y103839605D01*
X6096667Y103839605D02*
X6325238Y103839605D01*
X6210952Y103439605D02*
X6210952Y103839605D01*
X3791904Y64430605D02*
X3791904Y64830605D01*
X4020475Y64430605D02*
X3849046Y64659176D01*
X4020475Y64830605D02*
X3791904Y64602033D01*
X4191904Y64640129D02*
X4325237Y64640129D01*
X4382380Y64430605D02*
X4191904Y64430605D01*
X4191904Y64430605D02*
X4191904Y64830605D01*
X4191904Y64830605D02*
X4382380Y64830605D01*
X4553809Y64640129D02*
X4687142Y64640129D01*
X4744285Y64430605D02*
X4553809Y64430605D01*
X4553809Y64430605D02*
X4553809Y64830605D01*
X4553809Y64830605D02*
X4744285Y64830605D01*
X4915714Y64430605D02*
X4915714Y64830605D01*
X4915714Y64830605D02*
X5068095Y64830605D01*
X5068095Y64830605D02*
X5106190Y64811557D01*
X5106190Y64811557D02*
X5125237Y64792510D01*
X5125237Y64792510D02*
X5144285Y64754414D01*
X5144285Y64754414D02*
X5144285Y64697272D01*
X5144285Y64697272D02*
X5125237Y64659176D01*
X5125237Y64659176D02*
X5106190Y64640129D01*
X5106190Y64640129D02*
X5068095Y64621081D01*
X5068095Y64621081D02*
X4915714Y64621081D01*
X5391904Y64830605D02*
X5468095Y64830605D01*
X5468095Y64830605D02*
X5506190Y64811557D01*
X5506190Y64811557D02*
X5544285Y64773462D01*
X5544285Y64773462D02*
X5563333Y64697272D01*
X5563333Y64697272D02*
X5563333Y64563938D01*
X5563333Y64563938D02*
X5544285Y64487748D01*
X5544285Y64487748D02*
X5506190Y64449652D01*
X5506190Y64449652D02*
X5468095Y64430605D01*
X5468095Y64430605D02*
X5391904Y64430605D01*
X5391904Y64430605D02*
X5353809Y64449652D01*
X5353809Y64449652D02*
X5315714Y64487748D01*
X5315714Y64487748D02*
X5296666Y64563938D01*
X5296666Y64563938D02*
X5296666Y64697272D01*
X5296666Y64697272D02*
X5315714Y64773462D01*
X5315714Y64773462D02*
X5353809Y64811557D01*
X5353809Y64811557D02*
X5391904Y64830605D01*
X5734762Y64830605D02*
X5734762Y64506795D01*
X5734762Y64506795D02*
X5753809Y64468700D01*
X5753809Y64468700D02*
X5772857Y64449652D01*
X5772857Y64449652D02*
X5810952Y64430605D01*
X5810952Y64430605D02*
X5887143Y64430605D01*
X5887143Y64430605D02*
X5925238Y64449652D01*
X5925238Y64449652D02*
X5944285Y64468700D01*
X5944285Y64468700D02*
X5963333Y64506795D01*
X5963333Y64506795D02*
X5963333Y64830605D01*
X6096667Y64830605D02*
X6325238Y64830605D01*
X6210952Y64430605D02*
X6210952Y64830605D01*
M02*
