%TF.GenerationSoftware,KiCad,Pcbnew,7.0.7*%
%TF.CreationDate,2023-08-29T15:38:33+10:00*%
%TF.ProjectId,headphone_sum,68656164-7068-46f6-9e65-5f73756d2e6b,rev?*%
%TF.SameCoordinates,Original*%
%TF.FileFunction,Legend,Bot*%
%TF.FilePolarity,Positive*%
%FSLAX46Y46*%
G04 Gerber Fmt 4.6, Leading zero omitted, Abs format (unit mm)*
G04 Created by KiCad (PCBNEW 7.0.7) date 2023-08-29 15:38:33*
%MOMM*%
%LPD*%
G01*
G04 APERTURE LIST*
G04 Aperture macros list*
%AMRoundRect*
0 Rectangle with rounded corners*
0 $1 Rounding radius*
0 $2 $3 $4 $5 $6 $7 $8 $9 X,Y pos of 4 corners*
0 Add a 4 corners polygon primitive as box body*
4,1,4,$2,$3,$4,$5,$6,$7,$8,$9,$2,$3,0*
0 Add four circle primitives for the rounded corners*
1,1,$1+$1,$2,$3*
1,1,$1+$1,$4,$5*
1,1,$1+$1,$6,$7*
1,1,$1+$1,$8,$9*
0 Add four rect primitives between the rounded corners*
20,1,$1+$1,$2,$3,$4,$5,0*
20,1,$1+$1,$4,$5,$6,$7,0*
20,1,$1+$1,$6,$7,$8,$9,0*
20,1,$1+$1,$8,$9,$2,$3,0*%
G04 Aperture macros list end*
%ADD10C,0.100000*%
%ADD11C,0.200000*%
%ADD12C,0.150000*%
%ADD13C,0.120000*%
%ADD14RoundRect,0.237500X-0.237500X0.250000X-0.237500X-0.250000X0.237500X-0.250000X0.237500X0.250000X0*%
%ADD15R,2.200000X1.500000*%
%ADD16O,2.500000X1.400000*%
%ADD17O,2.400000X1.500000*%
%ADD18RoundRect,0.237500X0.237500X-0.300000X0.237500X0.300000X-0.237500X0.300000X-0.237500X-0.300000X0*%
%ADD19RoundRect,0.237500X-0.250000X-0.237500X0.250000X-0.237500X0.250000X0.237500X-0.250000X0.237500X0*%
%ADD20RoundRect,0.250000X0.650000X-0.412500X0.650000X0.412500X-0.650000X0.412500X-0.650000X-0.412500X0*%
%ADD21RoundRect,0.150000X0.825000X0.150000X-0.825000X0.150000X-0.825000X-0.150000X0.825000X-0.150000X0*%
%ADD22RoundRect,0.250000X0.412500X0.650000X-0.412500X0.650000X-0.412500X-0.650000X0.412500X-0.650000X0*%
%ADD23RoundRect,0.237500X0.237500X-0.250000X0.237500X0.250000X-0.237500X0.250000X-0.237500X-0.250000X0*%
%ADD24RoundRect,0.237500X-0.237500X0.300000X-0.237500X-0.300000X0.237500X-0.300000X0.237500X0.300000X0*%
%ADD25R,0.600000X0.700000*%
%ADD26RoundRect,0.250000X-0.412500X-0.650000X0.412500X-0.650000X0.412500X0.650000X-0.412500X0.650000X0*%
%ADD27R,1.700000X1.700000*%
%ADD28O,1.700000X1.700000*%
%ADD29RoundRect,0.237500X0.250000X0.237500X-0.250000X0.237500X-0.250000X-0.237500X0.250000X-0.237500X0*%
%ADD30R,1.800000X1.800000*%
%ADD31C,1.800000*%
G04 APERTURE END LIST*
D10*
X854923Y51073477D02*
X854923Y50692524D01*
X1083495Y51149667D02*
X283495Y50883000D01*
X283495Y50883000D02*
X1083495Y50616334D01*
X550161Y50349667D02*
X1083495Y50349667D01*
X626352Y50349667D02*
X588257Y50311572D01*
X588257Y50311572D02*
X550161Y50235382D01*
X550161Y50235382D02*
X550161Y50121096D01*
X550161Y50121096D02*
X588257Y50044905D01*
X588257Y50044905D02*
X664447Y50006810D01*
X664447Y50006810D02*
X1083495Y50006810D01*
X1083495Y49283000D02*
X283495Y49283000D01*
X1045400Y49283000D02*
X1083495Y49359191D01*
X1083495Y49359191D02*
X1083495Y49511572D01*
X1083495Y49511572D02*
X1045400Y49587762D01*
X1045400Y49587762D02*
X1007304Y49625857D01*
X1007304Y49625857D02*
X931114Y49663953D01*
X931114Y49663953D02*
X702542Y49663953D01*
X702542Y49663953D02*
X626352Y49625857D01*
X626352Y49625857D02*
X588257Y49587762D01*
X588257Y49587762D02*
X550161Y49511572D01*
X550161Y49511572D02*
X550161Y49359191D01*
X550161Y49359191D02*
X588257Y49283000D01*
X1083495Y48902047D02*
X550161Y48902047D01*
X702542Y48902047D02*
X626352Y48863952D01*
X626352Y48863952D02*
X588257Y48825857D01*
X588257Y48825857D02*
X550161Y48749666D01*
X550161Y48749666D02*
X550161Y48673476D01*
X1045400Y48102047D02*
X1083495Y48178238D01*
X1083495Y48178238D02*
X1083495Y48330619D01*
X1083495Y48330619D02*
X1045400Y48406809D01*
X1045400Y48406809D02*
X969209Y48444905D01*
X969209Y48444905D02*
X664447Y48444905D01*
X664447Y48444905D02*
X588257Y48406809D01*
X588257Y48406809D02*
X550161Y48330619D01*
X550161Y48330619D02*
X550161Y48178238D01*
X550161Y48178238D02*
X588257Y48102047D01*
X588257Y48102047D02*
X664447Y48063952D01*
X664447Y48063952D02*
X740638Y48063952D01*
X740638Y48063952D02*
X816828Y48444905D01*
X550161Y47797286D02*
X1083495Y47644905D01*
X1083495Y47644905D02*
X702542Y47492524D01*
X702542Y47492524D02*
X1083495Y47340143D01*
X1083495Y47340143D02*
X550161Y47187762D01*
X1083495Y46273476D02*
X283495Y46273476D01*
X283495Y46273476D02*
X283495Y45968714D01*
X283495Y45968714D02*
X321590Y45892524D01*
X321590Y45892524D02*
X359685Y45854429D01*
X359685Y45854429D02*
X435876Y45816333D01*
X435876Y45816333D02*
X550161Y45816333D01*
X550161Y45816333D02*
X626352Y45854429D01*
X626352Y45854429D02*
X664447Y45892524D01*
X664447Y45892524D02*
X702542Y45968714D01*
X702542Y45968714D02*
X702542Y46273476D01*
X1045400Y45168714D02*
X1083495Y45244905D01*
X1083495Y45244905D02*
X1083495Y45397286D01*
X1083495Y45397286D02*
X1045400Y45473476D01*
X1045400Y45473476D02*
X969209Y45511572D01*
X969209Y45511572D02*
X664447Y45511572D01*
X664447Y45511572D02*
X588257Y45473476D01*
X588257Y45473476D02*
X550161Y45397286D01*
X550161Y45397286D02*
X550161Y45244905D01*
X550161Y45244905D02*
X588257Y45168714D01*
X588257Y45168714D02*
X664447Y45130619D01*
X664447Y45130619D02*
X740638Y45130619D01*
X740638Y45130619D02*
X816828Y45511572D01*
X1083495Y44787762D02*
X550161Y44787762D01*
X702542Y44787762D02*
X626352Y44749667D01*
X626352Y44749667D02*
X588257Y44711572D01*
X588257Y44711572D02*
X550161Y44635381D01*
X550161Y44635381D02*
X550161Y44559191D01*
X1083495Y44292524D02*
X550161Y44292524D01*
X702542Y44292524D02*
X626352Y44254429D01*
X626352Y44254429D02*
X588257Y44216334D01*
X588257Y44216334D02*
X550161Y44140143D01*
X550161Y44140143D02*
X550161Y44063953D01*
X550161Y43873477D02*
X1083495Y43683001D01*
X550161Y43492524D02*
X1083495Y43683001D01*
X1083495Y43683001D02*
X1273971Y43759191D01*
X1273971Y43759191D02*
X1312066Y43797286D01*
X1312066Y43797286D02*
X1350161Y43873477D01*
X1045400Y43149667D02*
X1083495Y43149667D01*
X1083495Y43149667D02*
X1159685Y43187762D01*
X1159685Y43187762D02*
X1197780Y43225858D01*
X359685Y42235382D02*
X321590Y42197286D01*
X321590Y42197286D02*
X283495Y42121096D01*
X283495Y42121096D02*
X283495Y41930620D01*
X283495Y41930620D02*
X321590Y41854429D01*
X321590Y41854429D02*
X359685Y41816334D01*
X359685Y41816334D02*
X435876Y41778239D01*
X435876Y41778239D02*
X512066Y41778239D01*
X512066Y41778239D02*
X626352Y41816334D01*
X626352Y41816334D02*
X1083495Y42273477D01*
X1083495Y42273477D02*
X1083495Y41778239D01*
X283495Y41283000D02*
X283495Y41206810D01*
X283495Y41206810D02*
X321590Y41130619D01*
X321590Y41130619D02*
X359685Y41092524D01*
X359685Y41092524D02*
X435876Y41054429D01*
X435876Y41054429D02*
X588257Y41016334D01*
X588257Y41016334D02*
X778733Y41016334D01*
X778733Y41016334D02*
X931114Y41054429D01*
X931114Y41054429D02*
X1007304Y41092524D01*
X1007304Y41092524D02*
X1045400Y41130619D01*
X1045400Y41130619D02*
X1083495Y41206810D01*
X1083495Y41206810D02*
X1083495Y41283000D01*
X1083495Y41283000D02*
X1045400Y41359191D01*
X1045400Y41359191D02*
X1007304Y41397286D01*
X1007304Y41397286D02*
X931114Y41435381D01*
X931114Y41435381D02*
X778733Y41473477D01*
X778733Y41473477D02*
X588257Y41473477D01*
X588257Y41473477D02*
X435876Y41435381D01*
X435876Y41435381D02*
X359685Y41397286D01*
X359685Y41397286D02*
X321590Y41359191D01*
X321590Y41359191D02*
X283495Y41283000D01*
X359685Y40711572D02*
X321590Y40673476D01*
X321590Y40673476D02*
X283495Y40597286D01*
X283495Y40597286D02*
X283495Y40406810D01*
X283495Y40406810D02*
X321590Y40330619D01*
X321590Y40330619D02*
X359685Y40292524D01*
X359685Y40292524D02*
X435876Y40254429D01*
X435876Y40254429D02*
X512066Y40254429D01*
X512066Y40254429D02*
X626352Y40292524D01*
X626352Y40292524D02*
X1083495Y40749667D01*
X1083495Y40749667D02*
X1083495Y40254429D01*
X283495Y39987762D02*
X283495Y39492524D01*
X283495Y39492524D02*
X588257Y39759190D01*
X588257Y39759190D02*
X588257Y39644905D01*
X588257Y39644905D02*
X626352Y39568714D01*
X626352Y39568714D02*
X664447Y39530619D01*
X664447Y39530619D02*
X740638Y39492524D01*
X740638Y39492524D02*
X931114Y39492524D01*
X931114Y39492524D02*
X1007304Y39530619D01*
X1007304Y39530619D02*
X1045400Y39568714D01*
X1045400Y39568714D02*
X1083495Y39644905D01*
X1083495Y39644905D02*
X1083495Y39873476D01*
X1083495Y39873476D02*
X1045400Y39949667D01*
X1045400Y39949667D02*
X1007304Y39987762D01*
X3107304Y48590143D02*
X3145400Y48628239D01*
X3145400Y48628239D02*
X3183495Y48742524D01*
X3183495Y48742524D02*
X3183495Y48818715D01*
X3183495Y48818715D02*
X3145400Y48933001D01*
X3145400Y48933001D02*
X3069209Y49009191D01*
X3069209Y49009191D02*
X2993019Y49047286D01*
X2993019Y49047286D02*
X2840638Y49085382D01*
X2840638Y49085382D02*
X2726352Y49085382D01*
X2726352Y49085382D02*
X2573971Y49047286D01*
X2573971Y49047286D02*
X2497780Y49009191D01*
X2497780Y49009191D02*
X2421590Y48933001D01*
X2421590Y48933001D02*
X2383495Y48818715D01*
X2383495Y48818715D02*
X2383495Y48742524D01*
X2383495Y48742524D02*
X2421590Y48628239D01*
X2421590Y48628239D02*
X2459685Y48590143D01*
X3107304Y47790143D02*
X3145400Y47828239D01*
X3145400Y47828239D02*
X3183495Y47942524D01*
X3183495Y47942524D02*
X3183495Y48018715D01*
X3183495Y48018715D02*
X3145400Y48133001D01*
X3145400Y48133001D02*
X3069209Y48209191D01*
X3069209Y48209191D02*
X2993019Y48247286D01*
X2993019Y48247286D02*
X2840638Y48285382D01*
X2840638Y48285382D02*
X2726352Y48285382D01*
X2726352Y48285382D02*
X2573971Y48247286D01*
X2573971Y48247286D02*
X2497780Y48209191D01*
X2497780Y48209191D02*
X2421590Y48133001D01*
X2421590Y48133001D02*
X2383495Y48018715D01*
X2383495Y48018715D02*
X2383495Y47942524D01*
X2383495Y47942524D02*
X2421590Y47828239D01*
X2421590Y47828239D02*
X2459685Y47790143D01*
X2764447Y46571096D02*
X2802542Y46456810D01*
X2802542Y46456810D02*
X2840638Y46418715D01*
X2840638Y46418715D02*
X2916828Y46380619D01*
X2916828Y46380619D02*
X3031114Y46380619D01*
X3031114Y46380619D02*
X3107304Y46418715D01*
X3107304Y46418715D02*
X3145400Y46456810D01*
X3145400Y46456810D02*
X3183495Y46533000D01*
X3183495Y46533000D02*
X3183495Y46837762D01*
X3183495Y46837762D02*
X2383495Y46837762D01*
X2383495Y46837762D02*
X2383495Y46571096D01*
X2383495Y46571096D02*
X2421590Y46494905D01*
X2421590Y46494905D02*
X2459685Y46456810D01*
X2459685Y46456810D02*
X2535876Y46418715D01*
X2535876Y46418715D02*
X2612066Y46418715D01*
X2612066Y46418715D02*
X2688257Y46456810D01*
X2688257Y46456810D02*
X2726352Y46494905D01*
X2726352Y46494905D02*
X2764447Y46571096D01*
X2764447Y46571096D02*
X2764447Y46837762D01*
X2802542Y45885381D02*
X3183495Y45885381D01*
X2383495Y46152048D02*
X2802542Y45885381D01*
X2802542Y45885381D02*
X2383495Y45618715D01*
X2650161Y44399667D02*
X3183495Y44399667D01*
X2345400Y44590143D02*
X2916828Y44780620D01*
X2916828Y44780620D02*
X2916828Y44285381D01*
X3107304Y43980619D02*
X3145400Y43942524D01*
X3145400Y43942524D02*
X3183495Y43980619D01*
X3183495Y43980619D02*
X3145400Y44018715D01*
X3145400Y44018715D02*
X3107304Y43980619D01*
X3107304Y43980619D02*
X3183495Y43980619D01*
X2383495Y43447286D02*
X2383495Y43371096D01*
X2383495Y43371096D02*
X2421590Y43294905D01*
X2421590Y43294905D02*
X2459685Y43256810D01*
X2459685Y43256810D02*
X2535876Y43218715D01*
X2535876Y43218715D02*
X2688257Y43180620D01*
X2688257Y43180620D02*
X2878733Y43180620D01*
X2878733Y43180620D02*
X3031114Y43218715D01*
X3031114Y43218715D02*
X3107304Y43256810D01*
X3107304Y43256810D02*
X3145400Y43294905D01*
X3145400Y43294905D02*
X3183495Y43371096D01*
X3183495Y43371096D02*
X3183495Y43447286D01*
X3183495Y43447286D02*
X3145400Y43523477D01*
X3145400Y43523477D02*
X3107304Y43561572D01*
X3107304Y43561572D02*
X3031114Y43599667D01*
X3031114Y43599667D02*
X2878733Y43637763D01*
X2878733Y43637763D02*
X2688257Y43637763D01*
X2688257Y43637763D02*
X2535876Y43599667D01*
X2535876Y43599667D02*
X2459685Y43561572D01*
X2459685Y43561572D02*
X2421590Y43523477D01*
X2421590Y43523477D02*
X2383495Y43447286D01*
X695161Y3428858D02*
X1228495Y3238382D01*
X1228495Y3238382D02*
X695161Y3047905D01*
X1228495Y2324096D02*
X1228495Y2781239D01*
X1228495Y2552667D02*
X428495Y2552667D01*
X428495Y2552667D02*
X542780Y2628858D01*
X542780Y2628858D02*
X618971Y2705048D01*
X618971Y2705048D02*
X657066Y2781239D01*
X1152304Y1981238D02*
X1190400Y1943143D01*
X1190400Y1943143D02*
X1228495Y1981238D01*
X1228495Y1981238D02*
X1190400Y2019334D01*
X1190400Y2019334D02*
X1152304Y1981238D01*
X1152304Y1981238D02*
X1228495Y1981238D01*
X1228495Y1181239D02*
X1228495Y1638382D01*
X1228495Y1409810D02*
X428495Y1409810D01*
X428495Y1409810D02*
X542780Y1486001D01*
X542780Y1486001D02*
X618971Y1562191D01*
X618971Y1562191D02*
X657066Y1638382D01*
D11*
X6311457Y20505781D02*
X6644790Y20981972D01*
X6882885Y20505781D02*
X6882885Y21505781D01*
X6882885Y21505781D02*
X6501933Y21505781D01*
X6501933Y21505781D02*
X6406695Y21458162D01*
X6406695Y21458162D02*
X6359076Y21410543D01*
X6359076Y21410543D02*
X6311457Y21315305D01*
X6311457Y21315305D02*
X6311457Y21172448D01*
X6311457Y21172448D02*
X6359076Y21077210D01*
X6359076Y21077210D02*
X6406695Y21029591D01*
X6406695Y21029591D02*
X6501933Y20981972D01*
X6501933Y20981972D02*
X6882885Y20981972D01*
X5882885Y21029591D02*
X5549552Y21029591D01*
X5406695Y20505781D02*
X5882885Y20505781D01*
X5882885Y20505781D02*
X5882885Y21505781D01*
X5882885Y21505781D02*
X5406695Y21505781D01*
X4978123Y20505781D02*
X4978123Y21505781D01*
X4978123Y21505781D02*
X4740028Y21505781D01*
X4740028Y21505781D02*
X4597171Y21458162D01*
X4597171Y21458162D02*
X4501933Y21362924D01*
X4501933Y21362924D02*
X4454314Y21267686D01*
X4454314Y21267686D02*
X4406695Y21077210D01*
X4406695Y21077210D02*
X4406695Y20934353D01*
X4406695Y20934353D02*
X4454314Y20743877D01*
X4454314Y20743877D02*
X4501933Y20648639D01*
X4501933Y20648639D02*
X4597171Y20553400D01*
X4597171Y20553400D02*
X4740028Y20505781D01*
X4740028Y20505781D02*
X4978123Y20505781D01*
D12*
X1343419Y84900858D02*
X867228Y85234191D01*
X1343419Y85472286D02*
X343419Y85472286D01*
X343419Y85472286D02*
X343419Y85091334D01*
X343419Y85091334D02*
X391038Y84996096D01*
X391038Y84996096D02*
X438657Y84948477D01*
X438657Y84948477D02*
X533895Y84900858D01*
X533895Y84900858D02*
X676752Y84900858D01*
X676752Y84900858D02*
X771990Y84948477D01*
X771990Y84948477D02*
X819609Y84996096D01*
X819609Y84996096D02*
X867228Y85091334D01*
X867228Y85091334D02*
X867228Y85472286D01*
X1343419Y83948477D02*
X1343419Y84519905D01*
X1343419Y84234191D02*
X343419Y84234191D01*
X343419Y84234191D02*
X486276Y84329429D01*
X486276Y84329429D02*
X581514Y84424667D01*
X581514Y84424667D02*
X629133Y84519905D01*
X343419Y83043715D02*
X343419Y83519905D01*
X343419Y83519905D02*
X819609Y83567524D01*
X819609Y83567524D02*
X771990Y83519905D01*
X771990Y83519905D02*
X724371Y83424667D01*
X724371Y83424667D02*
X724371Y83186572D01*
X724371Y83186572D02*
X771990Y83091334D01*
X771990Y83091334D02*
X819609Y83043715D01*
X819609Y83043715D02*
X914847Y82996096D01*
X914847Y82996096D02*
X1152942Y82996096D01*
X1152942Y82996096D02*
X1248180Y83043715D01*
X1248180Y83043715D02*
X1295800Y83091334D01*
X1295800Y83091334D02*
X1343419Y83186572D01*
X1343419Y83186572D02*
X1343419Y83424667D01*
X1343419Y83424667D02*
X1295800Y83519905D01*
X1295800Y83519905D02*
X1248180Y83567524D01*
X7973419Y99650858D02*
X7497228Y99984191D01*
X7973419Y100222286D02*
X6973419Y100222286D01*
X6973419Y100222286D02*
X6973419Y99841334D01*
X6973419Y99841334D02*
X7021038Y99746096D01*
X7021038Y99746096D02*
X7068657Y99698477D01*
X7068657Y99698477D02*
X7163895Y99650858D01*
X7163895Y99650858D02*
X7306752Y99650858D01*
X7306752Y99650858D02*
X7401990Y99698477D01*
X7401990Y99698477D02*
X7449609Y99746096D01*
X7449609Y99746096D02*
X7497228Y99841334D01*
X7497228Y99841334D02*
X7497228Y100222286D01*
X7973419Y98698477D02*
X7973419Y99269905D01*
X7973419Y98984191D02*
X6973419Y98984191D01*
X6973419Y98984191D02*
X7116276Y99079429D01*
X7116276Y99079429D02*
X7211514Y99174667D01*
X7211514Y99174667D02*
X7259133Y99269905D01*
X6973419Y97841334D02*
X6973419Y98031810D01*
X6973419Y98031810D02*
X7021038Y98127048D01*
X7021038Y98127048D02*
X7068657Y98174667D01*
X7068657Y98174667D02*
X7211514Y98269905D01*
X7211514Y98269905D02*
X7401990Y98317524D01*
X7401990Y98317524D02*
X7782942Y98317524D01*
X7782942Y98317524D02*
X7878180Y98269905D01*
X7878180Y98269905D02*
X7925800Y98222286D01*
X7925800Y98222286D02*
X7973419Y98127048D01*
X7973419Y98127048D02*
X7973419Y97936572D01*
X7973419Y97936572D02*
X7925800Y97841334D01*
X7925800Y97841334D02*
X7878180Y97793715D01*
X7878180Y97793715D02*
X7782942Y97746096D01*
X7782942Y97746096D02*
X7544847Y97746096D01*
X7544847Y97746096D02*
X7449609Y97793715D01*
X7449609Y97793715D02*
X7401990Y97841334D01*
X7401990Y97841334D02*
X7354371Y97936572D01*
X7354371Y97936572D02*
X7354371Y98127048D01*
X7354371Y98127048D02*
X7401990Y98222286D01*
X7401990Y98222286D02*
X7449609Y98269905D01*
X7449609Y98269905D02*
X7544847Y98317524D01*
X2072819Y30005258D02*
X1596628Y30338591D01*
X2072819Y30576686D02*
X1072819Y30576686D01*
X1072819Y30576686D02*
X1072819Y30195734D01*
X1072819Y30195734D02*
X1120438Y30100496D01*
X1120438Y30100496D02*
X1168057Y30052877D01*
X1168057Y30052877D02*
X1263295Y30005258D01*
X1263295Y30005258D02*
X1406152Y30005258D01*
X1406152Y30005258D02*
X1501390Y30052877D01*
X1501390Y30052877D02*
X1549009Y30100496D01*
X1549009Y30100496D02*
X1596628Y30195734D01*
X1596628Y30195734D02*
X1596628Y30576686D01*
X2072819Y29052877D02*
X2072819Y29624305D01*
X2072819Y29338591D02*
X1072819Y29338591D01*
X1072819Y29338591D02*
X1215676Y29433829D01*
X1215676Y29433829D02*
X1310914Y29529067D01*
X1310914Y29529067D02*
X1358533Y29624305D01*
X1072819Y28719543D02*
X1072819Y28100496D01*
X1072819Y28100496D02*
X1453771Y28433829D01*
X1453771Y28433829D02*
X1453771Y28290972D01*
X1453771Y28290972D02*
X1501390Y28195734D01*
X1501390Y28195734D02*
X1549009Y28148115D01*
X1549009Y28148115D02*
X1644247Y28100496D01*
X1644247Y28100496D02*
X1882342Y28100496D01*
X1882342Y28100496D02*
X1977580Y28148115D01*
X1977580Y28148115D02*
X2025200Y28195734D01*
X2025200Y28195734D02*
X2072819Y28290972D01*
X2072819Y28290972D02*
X2072819Y28576686D01*
X2072819Y28576686D02*
X2025200Y28671924D01*
X2025200Y28671924D02*
X1977580Y28719543D01*
X4626780Y103360458D02*
X4674400Y103408077D01*
X4674400Y103408077D02*
X4722019Y103550934D01*
X4722019Y103550934D02*
X4722019Y103646172D01*
X4722019Y103646172D02*
X4674400Y103789029D01*
X4674400Y103789029D02*
X4579161Y103884267D01*
X4579161Y103884267D02*
X4483923Y103931886D01*
X4483923Y103931886D02*
X4293447Y103979505D01*
X4293447Y103979505D02*
X4150590Y103979505D01*
X4150590Y103979505D02*
X3960114Y103931886D01*
X3960114Y103931886D02*
X3864876Y103884267D01*
X3864876Y103884267D02*
X3769638Y103789029D01*
X3769638Y103789029D02*
X3722019Y103646172D01*
X3722019Y103646172D02*
X3722019Y103550934D01*
X3722019Y103550934D02*
X3769638Y103408077D01*
X3769638Y103408077D02*
X3817257Y103360458D01*
X4722019Y102408077D02*
X4722019Y102979505D01*
X4722019Y102693791D02*
X3722019Y102693791D01*
X3722019Y102693791D02*
X3864876Y102789029D01*
X3864876Y102789029D02*
X3960114Y102884267D01*
X3960114Y102884267D02*
X4007733Y102979505D01*
X4722019Y101455696D02*
X4722019Y102027124D01*
X4722019Y101741410D02*
X3722019Y101741410D01*
X3722019Y101741410D02*
X3864876Y101836648D01*
X3864876Y101836648D02*
X3960114Y101931886D01*
X3960114Y101931886D02*
X4007733Y102027124D01*
X4235266Y80653181D02*
X4568599Y81129372D01*
X4806694Y80653181D02*
X4806694Y81653181D01*
X4806694Y81653181D02*
X4425742Y81653181D01*
X4425742Y81653181D02*
X4330504Y81605562D01*
X4330504Y81605562D02*
X4282885Y81557943D01*
X4282885Y81557943D02*
X4235266Y81462705D01*
X4235266Y81462705D02*
X4235266Y81319848D01*
X4235266Y81319848D02*
X4282885Y81224610D01*
X4282885Y81224610D02*
X4330504Y81176991D01*
X4330504Y81176991D02*
X4425742Y81129372D01*
X4425742Y81129372D02*
X4806694Y81129372D01*
X3330504Y81653181D02*
X3806694Y81653181D01*
X3806694Y81653181D02*
X3854313Y81176991D01*
X3854313Y81176991D02*
X3806694Y81224610D01*
X3806694Y81224610D02*
X3711456Y81272229D01*
X3711456Y81272229D02*
X3473361Y81272229D01*
X3473361Y81272229D02*
X3378123Y81224610D01*
X3378123Y81224610D02*
X3330504Y81176991D01*
X3330504Y81176991D02*
X3282885Y81081753D01*
X3282885Y81081753D02*
X3282885Y80843658D01*
X3282885Y80843658D02*
X3330504Y80748420D01*
X3330504Y80748420D02*
X3378123Y80700800D01*
X3378123Y80700800D02*
X3473361Y80653181D01*
X3473361Y80653181D02*
X3711456Y80653181D01*
X3711456Y80653181D02*
X3806694Y80700800D01*
X3806694Y80700800D02*
X3854313Y80748420D01*
X9435180Y2909867D02*
X9482800Y2957486D01*
X9482800Y2957486D02*
X9530419Y3100343D01*
X9530419Y3100343D02*
X9530419Y3195581D01*
X9530419Y3195581D02*
X9482800Y3338438D01*
X9482800Y3338438D02*
X9387561Y3433676D01*
X9387561Y3433676D02*
X9292323Y3481295D01*
X9292323Y3481295D02*
X9101847Y3528914D01*
X9101847Y3528914D02*
X8958990Y3528914D01*
X8958990Y3528914D02*
X8768514Y3481295D01*
X8768514Y3481295D02*
X8673276Y3433676D01*
X8673276Y3433676D02*
X8578038Y3338438D01*
X8578038Y3338438D02*
X8530419Y3195581D01*
X8530419Y3195581D02*
X8530419Y3100343D01*
X8530419Y3100343D02*
X8578038Y2957486D01*
X8578038Y2957486D02*
X8625657Y2909867D01*
X8530419Y2576533D02*
X8530419Y1957486D01*
X8530419Y1957486D02*
X8911371Y2290819D01*
X8911371Y2290819D02*
X8911371Y2147962D01*
X8911371Y2147962D02*
X8958990Y2052724D01*
X8958990Y2052724D02*
X9006609Y2005105D01*
X9006609Y2005105D02*
X9101847Y1957486D01*
X9101847Y1957486D02*
X9339942Y1957486D01*
X9339942Y1957486D02*
X9435180Y2005105D01*
X9435180Y2005105D02*
X9482800Y2052724D01*
X9482800Y2052724D02*
X9530419Y2147962D01*
X9530419Y2147962D02*
X9530419Y2433676D01*
X9530419Y2433676D02*
X9482800Y2528914D01*
X9482800Y2528914D02*
X9435180Y2576533D01*
X6227504Y36262981D02*
X6227504Y35453458D01*
X6227504Y35453458D02*
X6179885Y35358220D01*
X6179885Y35358220D02*
X6132266Y35310600D01*
X6132266Y35310600D02*
X6037028Y35262981D01*
X6037028Y35262981D02*
X5846552Y35262981D01*
X5846552Y35262981D02*
X5751314Y35310600D01*
X5751314Y35310600D02*
X5703695Y35358220D01*
X5703695Y35358220D02*
X5656076Y35453458D01*
X5656076Y35453458D02*
X5656076Y36262981D01*
X5275123Y36262981D02*
X4656076Y36262981D01*
X4656076Y36262981D02*
X4989409Y35882029D01*
X4989409Y35882029D02*
X4846552Y35882029D01*
X4846552Y35882029D02*
X4751314Y35834410D01*
X4751314Y35834410D02*
X4703695Y35786791D01*
X4703695Y35786791D02*
X4656076Y35691553D01*
X4656076Y35691553D02*
X4656076Y35453458D01*
X4656076Y35453458D02*
X4703695Y35358220D01*
X4703695Y35358220D02*
X4751314Y35310600D01*
X4751314Y35310600D02*
X4846552Y35262981D01*
X4846552Y35262981D02*
X5132266Y35262981D01*
X5132266Y35262981D02*
X5227504Y35310600D01*
X5227504Y35310600D02*
X5275123Y35358220D01*
X3403180Y74900858D02*
X3450800Y74948477D01*
X3450800Y74948477D02*
X3498419Y75091334D01*
X3498419Y75091334D02*
X3498419Y75186572D01*
X3498419Y75186572D02*
X3450800Y75329429D01*
X3450800Y75329429D02*
X3355561Y75424667D01*
X3355561Y75424667D02*
X3260323Y75472286D01*
X3260323Y75472286D02*
X3069847Y75519905D01*
X3069847Y75519905D02*
X2926990Y75519905D01*
X2926990Y75519905D02*
X2736514Y75472286D01*
X2736514Y75472286D02*
X2641276Y75424667D01*
X2641276Y75424667D02*
X2546038Y75329429D01*
X2546038Y75329429D02*
X2498419Y75186572D01*
X2498419Y75186572D02*
X2498419Y75091334D01*
X2498419Y75091334D02*
X2546038Y74948477D01*
X2546038Y74948477D02*
X2593657Y74900858D01*
X3498419Y73948477D02*
X3498419Y74519905D01*
X3498419Y74234191D02*
X2498419Y74234191D01*
X2498419Y74234191D02*
X2641276Y74329429D01*
X2641276Y74329429D02*
X2736514Y74424667D01*
X2736514Y74424667D02*
X2784133Y74519905D01*
X2498419Y73615143D02*
X2498419Y72996096D01*
X2498419Y72996096D02*
X2879371Y73329429D01*
X2879371Y73329429D02*
X2879371Y73186572D01*
X2879371Y73186572D02*
X2926990Y73091334D01*
X2926990Y73091334D02*
X2974609Y73043715D01*
X2974609Y73043715D02*
X3069847Y72996096D01*
X3069847Y72996096D02*
X3307942Y72996096D01*
X3307942Y72996096D02*
X3403180Y73043715D01*
X3403180Y73043715D02*
X3450800Y73091334D01*
X3450800Y73091334D02*
X3498419Y73186572D01*
X3498419Y73186572D02*
X3498419Y73472286D01*
X3498419Y73472286D02*
X3450800Y73567524D01*
X3450800Y73567524D02*
X3403180Y73615143D01*
X9452780Y41670267D02*
X9500400Y41717886D01*
X9500400Y41717886D02*
X9548019Y41860743D01*
X9548019Y41860743D02*
X9548019Y41955981D01*
X9548019Y41955981D02*
X9500400Y42098838D01*
X9500400Y42098838D02*
X9405161Y42194076D01*
X9405161Y42194076D02*
X9309923Y42241695D01*
X9309923Y42241695D02*
X9119447Y42289314D01*
X9119447Y42289314D02*
X8976590Y42289314D01*
X8976590Y42289314D02*
X8786114Y42241695D01*
X8786114Y42241695D02*
X8690876Y42194076D01*
X8690876Y42194076D02*
X8595638Y42098838D01*
X8595638Y42098838D02*
X8548019Y41955981D01*
X8548019Y41955981D02*
X8548019Y41860743D01*
X8548019Y41860743D02*
X8595638Y41717886D01*
X8595638Y41717886D02*
X8643257Y41670267D01*
X8643257Y41289314D02*
X8595638Y41241695D01*
X8595638Y41241695D02*
X8548019Y41146457D01*
X8548019Y41146457D02*
X8548019Y40908362D01*
X8548019Y40908362D02*
X8595638Y40813124D01*
X8595638Y40813124D02*
X8643257Y40765505D01*
X8643257Y40765505D02*
X8738495Y40717886D01*
X8738495Y40717886D02*
X8833733Y40717886D01*
X8833733Y40717886D02*
X8976590Y40765505D01*
X8976590Y40765505D02*
X9548019Y41336933D01*
X9548019Y41336933D02*
X9548019Y40717886D01*
X5331619Y33104058D02*
X4855428Y33437391D01*
X5331619Y33675486D02*
X4331619Y33675486D01*
X4331619Y33675486D02*
X4331619Y33294534D01*
X4331619Y33294534D02*
X4379238Y33199296D01*
X4379238Y33199296D02*
X4426857Y33151677D01*
X4426857Y33151677D02*
X4522095Y33104058D01*
X4522095Y33104058D02*
X4664952Y33104058D01*
X4664952Y33104058D02*
X4760190Y33151677D01*
X4760190Y33151677D02*
X4807809Y33199296D01*
X4807809Y33199296D02*
X4855428Y33294534D01*
X4855428Y33294534D02*
X4855428Y33675486D01*
X5331619Y32151677D02*
X5331619Y32723105D01*
X5331619Y32437391D02*
X4331619Y32437391D01*
X4331619Y32437391D02*
X4474476Y32532629D01*
X4474476Y32532629D02*
X4569714Y32627867D01*
X4569714Y32627867D02*
X4617333Y32723105D01*
X4664952Y31294534D02*
X5331619Y31294534D01*
X4284000Y31532629D02*
X4998285Y31770724D01*
X4998285Y31770724D02*
X4998285Y31151677D01*
X8128219Y82818267D02*
X7652028Y83151600D01*
X8128219Y83389695D02*
X7128219Y83389695D01*
X7128219Y83389695D02*
X7128219Y83008743D01*
X7128219Y83008743D02*
X7175838Y82913505D01*
X7175838Y82913505D02*
X7223457Y82865886D01*
X7223457Y82865886D02*
X7318695Y82818267D01*
X7318695Y82818267D02*
X7461552Y82818267D01*
X7461552Y82818267D02*
X7556790Y82865886D01*
X7556790Y82865886D02*
X7604409Y82913505D01*
X7604409Y82913505D02*
X7652028Y83008743D01*
X7652028Y83008743D02*
X7652028Y83389695D01*
X7556790Y82246838D02*
X7509171Y82342076D01*
X7509171Y82342076D02*
X7461552Y82389695D01*
X7461552Y82389695D02*
X7366314Y82437314D01*
X7366314Y82437314D02*
X7318695Y82437314D01*
X7318695Y82437314D02*
X7223457Y82389695D01*
X7223457Y82389695D02*
X7175838Y82342076D01*
X7175838Y82342076D02*
X7128219Y82246838D01*
X7128219Y82246838D02*
X7128219Y82056362D01*
X7128219Y82056362D02*
X7175838Y81961124D01*
X7175838Y81961124D02*
X7223457Y81913505D01*
X7223457Y81913505D02*
X7318695Y81865886D01*
X7318695Y81865886D02*
X7366314Y81865886D01*
X7366314Y81865886D02*
X7461552Y81913505D01*
X7461552Y81913505D02*
X7509171Y81961124D01*
X7509171Y81961124D02*
X7556790Y82056362D01*
X7556790Y82056362D02*
X7556790Y82246838D01*
X7556790Y82246838D02*
X7604409Y82342076D01*
X7604409Y82342076D02*
X7652028Y82389695D01*
X7652028Y82389695D02*
X7747266Y82437314D01*
X7747266Y82437314D02*
X7937742Y82437314D01*
X7937742Y82437314D02*
X8032980Y82389695D01*
X8032980Y82389695D02*
X8080600Y82342076D01*
X8080600Y82342076D02*
X8128219Y82246838D01*
X8128219Y82246838D02*
X8128219Y82056362D01*
X8128219Y82056362D02*
X8080600Y81961124D01*
X8080600Y81961124D02*
X8032980Y81913505D01*
X8032980Y81913505D02*
X7937742Y81865886D01*
X7937742Y81865886D02*
X7747266Y81865886D01*
X7747266Y81865886D02*
X7652028Y81913505D01*
X7652028Y81913505D02*
X7604409Y81961124D01*
X7604409Y81961124D02*
X7556790Y82056362D01*
X7600266Y14682620D02*
X7647885Y14635000D01*
X7647885Y14635000D02*
X7790742Y14587381D01*
X7790742Y14587381D02*
X7885980Y14587381D01*
X7885980Y14587381D02*
X8028837Y14635000D01*
X8028837Y14635000D02*
X8124075Y14730239D01*
X8124075Y14730239D02*
X8171694Y14825477D01*
X8171694Y14825477D02*
X8219313Y15015953D01*
X8219313Y15015953D02*
X8219313Y15158810D01*
X8219313Y15158810D02*
X8171694Y15349286D01*
X8171694Y15349286D02*
X8124075Y15444524D01*
X8124075Y15444524D02*
X8028837Y15539762D01*
X8028837Y15539762D02*
X7885980Y15587381D01*
X7885980Y15587381D02*
X7790742Y15587381D01*
X7790742Y15587381D02*
X7647885Y15539762D01*
X7647885Y15539762D02*
X7600266Y15492143D01*
X6743123Y15254048D02*
X6743123Y14587381D01*
X6981218Y15635000D02*
X7219313Y14920715D01*
X7219313Y14920715D02*
X6600266Y14920715D01*
X9598819Y51595258D02*
X9122628Y51928591D01*
X9598819Y52166686D02*
X8598819Y52166686D01*
X8598819Y52166686D02*
X8598819Y51785734D01*
X8598819Y51785734D02*
X8646438Y51690496D01*
X8646438Y51690496D02*
X8694057Y51642877D01*
X8694057Y51642877D02*
X8789295Y51595258D01*
X8789295Y51595258D02*
X8932152Y51595258D01*
X8932152Y51595258D02*
X9027390Y51642877D01*
X9027390Y51642877D02*
X9075009Y51690496D01*
X9075009Y51690496D02*
X9122628Y51785734D01*
X9122628Y51785734D02*
X9122628Y52166686D01*
X9598819Y50642877D02*
X9598819Y51214305D01*
X9598819Y50928591D02*
X8598819Y50928591D01*
X8598819Y50928591D02*
X8741676Y51023829D01*
X8741676Y51023829D02*
X8836914Y51119067D01*
X8836914Y51119067D02*
X8884533Y51214305D01*
X8694057Y50261924D02*
X8646438Y50214305D01*
X8646438Y50214305D02*
X8598819Y50119067D01*
X8598819Y50119067D02*
X8598819Y49880972D01*
X8598819Y49880972D02*
X8646438Y49785734D01*
X8646438Y49785734D02*
X8694057Y49738115D01*
X8694057Y49738115D02*
X8789295Y49690496D01*
X8789295Y49690496D02*
X8884533Y49690496D01*
X8884533Y49690496D02*
X9027390Y49738115D01*
X9027390Y49738115D02*
X9598819Y50309543D01*
X9598819Y50309543D02*
X9598819Y49690496D01*
X7807780Y11052867D02*
X7855400Y11100486D01*
X7855400Y11100486D02*
X7903019Y11243343D01*
X7903019Y11243343D02*
X7903019Y11338581D01*
X7903019Y11338581D02*
X7855400Y11481438D01*
X7855400Y11481438D02*
X7760161Y11576676D01*
X7760161Y11576676D02*
X7664923Y11624295D01*
X7664923Y11624295D02*
X7474447Y11671914D01*
X7474447Y11671914D02*
X7331590Y11671914D01*
X7331590Y11671914D02*
X7141114Y11624295D01*
X7141114Y11624295D02*
X7045876Y11576676D01*
X7045876Y11576676D02*
X6950638Y11481438D01*
X6950638Y11481438D02*
X6903019Y11338581D01*
X6903019Y11338581D02*
X6903019Y11243343D01*
X6903019Y11243343D02*
X6950638Y11100486D01*
X6950638Y11100486D02*
X6998257Y11052867D01*
X6903019Y10148105D02*
X6903019Y10624295D01*
X6903019Y10624295D02*
X7379209Y10671914D01*
X7379209Y10671914D02*
X7331590Y10624295D01*
X7331590Y10624295D02*
X7283971Y10529057D01*
X7283971Y10529057D02*
X7283971Y10290962D01*
X7283971Y10290962D02*
X7331590Y10195724D01*
X7331590Y10195724D02*
X7379209Y10148105D01*
X7379209Y10148105D02*
X7474447Y10100486D01*
X7474447Y10100486D02*
X7712542Y10100486D01*
X7712542Y10100486D02*
X7807780Y10148105D01*
X7807780Y10148105D02*
X7855400Y10195724D01*
X7855400Y10195724D02*
X7903019Y10290962D01*
X7903019Y10290962D02*
X7903019Y10529057D01*
X7903019Y10529057D02*
X7855400Y10624295D01*
X7855400Y10624295D02*
X7807780Y10671914D01*
X8024019Y51373067D02*
X7547828Y51706400D01*
X8024019Y51944495D02*
X7024019Y51944495D01*
X7024019Y51944495D02*
X7024019Y51563543D01*
X7024019Y51563543D02*
X7071638Y51468305D01*
X7071638Y51468305D02*
X7119257Y51420686D01*
X7119257Y51420686D02*
X7214495Y51373067D01*
X7214495Y51373067D02*
X7357352Y51373067D01*
X7357352Y51373067D02*
X7452590Y51420686D01*
X7452590Y51420686D02*
X7500209Y51468305D01*
X7500209Y51468305D02*
X7547828Y51563543D01*
X7547828Y51563543D02*
X7547828Y51944495D01*
X8024019Y50896876D02*
X8024019Y50706400D01*
X8024019Y50706400D02*
X7976400Y50611162D01*
X7976400Y50611162D02*
X7928780Y50563543D01*
X7928780Y50563543D02*
X7785923Y50468305D01*
X7785923Y50468305D02*
X7595447Y50420686D01*
X7595447Y50420686D02*
X7214495Y50420686D01*
X7214495Y50420686D02*
X7119257Y50468305D01*
X7119257Y50468305D02*
X7071638Y50515924D01*
X7071638Y50515924D02*
X7024019Y50611162D01*
X7024019Y50611162D02*
X7024019Y50801638D01*
X7024019Y50801638D02*
X7071638Y50896876D01*
X7071638Y50896876D02*
X7119257Y50944495D01*
X7119257Y50944495D02*
X7214495Y50992114D01*
X7214495Y50992114D02*
X7452590Y50992114D01*
X7452590Y50992114D02*
X7547828Y50944495D01*
X7547828Y50944495D02*
X7595447Y50896876D01*
X7595447Y50896876D02*
X7643066Y50801638D01*
X7643066Y50801638D02*
X7643066Y50611162D01*
X7643066Y50611162D02*
X7595447Y50515924D01*
X7595447Y50515924D02*
X7547828Y50468305D01*
X7547828Y50468305D02*
X7452590Y50420686D01*
X5506694Y4403181D02*
X5506694Y5403181D01*
X5506694Y5403181D02*
X5268599Y5403181D01*
X5268599Y5403181D02*
X5125742Y5355562D01*
X5125742Y5355562D02*
X5030504Y5260324D01*
X5030504Y5260324D02*
X4982885Y5165086D01*
X4982885Y5165086D02*
X4935266Y4974610D01*
X4935266Y4974610D02*
X4935266Y4831753D01*
X4935266Y4831753D02*
X4982885Y4641277D01*
X4982885Y4641277D02*
X5030504Y4546039D01*
X5030504Y4546039D02*
X5125742Y4450800D01*
X5125742Y4450800D02*
X5268599Y4403181D01*
X5268599Y4403181D02*
X5506694Y4403181D01*
X3982885Y4403181D02*
X4554313Y4403181D01*
X4268599Y4403181D02*
X4268599Y5403181D01*
X4268599Y5403181D02*
X4363837Y5260324D01*
X4363837Y5260324D02*
X4459075Y5165086D01*
X4459075Y5165086D02*
X4554313Y5117467D01*
X7907257Y28348781D02*
X8240590Y28824972D01*
X8478685Y28348781D02*
X8478685Y29348781D01*
X8478685Y29348781D02*
X8097733Y29348781D01*
X8097733Y29348781D02*
X8002495Y29301162D01*
X8002495Y29301162D02*
X7954876Y29253543D01*
X7954876Y29253543D02*
X7907257Y29158305D01*
X7907257Y29158305D02*
X7907257Y29015448D01*
X7907257Y29015448D02*
X7954876Y28920210D01*
X7954876Y28920210D02*
X8002495Y28872591D01*
X8002495Y28872591D02*
X8097733Y28824972D01*
X8097733Y28824972D02*
X8478685Y28824972D01*
X6954876Y28348781D02*
X7526304Y28348781D01*
X7240590Y28348781D02*
X7240590Y29348781D01*
X7240590Y29348781D02*
X7335828Y29205924D01*
X7335828Y29205924D02*
X7431066Y29110686D01*
X7431066Y29110686D02*
X7526304Y29063067D01*
X6335828Y29348781D02*
X6240590Y29348781D01*
X6240590Y29348781D02*
X6145352Y29301162D01*
X6145352Y29301162D02*
X6097733Y29253543D01*
X6097733Y29253543D02*
X6050114Y29158305D01*
X6050114Y29158305D02*
X6002495Y28967829D01*
X6002495Y28967829D02*
X6002495Y28729734D01*
X6002495Y28729734D02*
X6050114Y28539258D01*
X6050114Y28539258D02*
X6097733Y28444020D01*
X6097733Y28444020D02*
X6145352Y28396400D01*
X6145352Y28396400D02*
X6240590Y28348781D01*
X6240590Y28348781D02*
X6335828Y28348781D01*
X6335828Y28348781D02*
X6431066Y28396400D01*
X6431066Y28396400D02*
X6478685Y28444020D01*
X6478685Y28444020D02*
X6526304Y28539258D01*
X6526304Y28539258D02*
X6573923Y28729734D01*
X6573923Y28729734D02*
X6573923Y28967829D01*
X6573923Y28967829D02*
X6526304Y29158305D01*
X6526304Y29158305D02*
X6478685Y29253543D01*
X6478685Y29253543D02*
X6431066Y29301162D01*
X6431066Y29301162D02*
X6335828Y29348781D01*
X9249580Y22213867D02*
X9297200Y22261486D01*
X9297200Y22261486D02*
X9344819Y22404343D01*
X9344819Y22404343D02*
X9344819Y22499581D01*
X9344819Y22499581D02*
X9297200Y22642438D01*
X9297200Y22642438D02*
X9201961Y22737676D01*
X9201961Y22737676D02*
X9106723Y22785295D01*
X9106723Y22785295D02*
X8916247Y22832914D01*
X8916247Y22832914D02*
X8773390Y22832914D01*
X8773390Y22832914D02*
X8582914Y22785295D01*
X8582914Y22785295D02*
X8487676Y22737676D01*
X8487676Y22737676D02*
X8392438Y22642438D01*
X8392438Y22642438D02*
X8344819Y22499581D01*
X8344819Y22499581D02*
X8344819Y22404343D01*
X8344819Y22404343D02*
X8392438Y22261486D01*
X8392438Y22261486D02*
X8440057Y22213867D01*
X8344819Y21356724D02*
X8344819Y21547200D01*
X8344819Y21547200D02*
X8392438Y21642438D01*
X8392438Y21642438D02*
X8440057Y21690057D01*
X8440057Y21690057D02*
X8582914Y21785295D01*
X8582914Y21785295D02*
X8773390Y21832914D01*
X8773390Y21832914D02*
X9154342Y21832914D01*
X9154342Y21832914D02*
X9249580Y21785295D01*
X9249580Y21785295D02*
X9297200Y21737676D01*
X9297200Y21737676D02*
X9344819Y21642438D01*
X9344819Y21642438D02*
X9344819Y21451962D01*
X9344819Y21451962D02*
X9297200Y21356724D01*
X9297200Y21356724D02*
X9249580Y21309105D01*
X9249580Y21309105D02*
X9154342Y21261486D01*
X9154342Y21261486D02*
X8916247Y21261486D01*
X8916247Y21261486D02*
X8821009Y21309105D01*
X8821009Y21309105D02*
X8773390Y21356724D01*
X8773390Y21356724D02*
X8725771Y21451962D01*
X8725771Y21451962D02*
X8725771Y21642438D01*
X8725771Y21642438D02*
X8773390Y21737676D01*
X8773390Y21737676D02*
X8821009Y21785295D01*
X8821009Y21785295D02*
X8916247Y21832914D01*
X1674019Y99326367D02*
X1197828Y99659700D01*
X1674019Y99897795D02*
X674019Y99897795D01*
X674019Y99897795D02*
X674019Y99516843D01*
X674019Y99516843D02*
X721638Y99421605D01*
X721638Y99421605D02*
X769257Y99373986D01*
X769257Y99373986D02*
X864495Y99326367D01*
X864495Y99326367D02*
X1007352Y99326367D01*
X1007352Y99326367D02*
X1102590Y99373986D01*
X1102590Y99373986D02*
X1150209Y99421605D01*
X1150209Y99421605D02*
X1197828Y99516843D01*
X1197828Y99516843D02*
X1197828Y99897795D01*
X674019Y98993033D02*
X674019Y98326367D01*
X674019Y98326367D02*
X1674019Y98754938D01*
X9409580Y95588058D02*
X9457200Y95635677D01*
X9457200Y95635677D02*
X9504819Y95778534D01*
X9504819Y95778534D02*
X9504819Y95873772D01*
X9504819Y95873772D02*
X9457200Y96016629D01*
X9457200Y96016629D02*
X9361961Y96111867D01*
X9361961Y96111867D02*
X9266723Y96159486D01*
X9266723Y96159486D02*
X9076247Y96207105D01*
X9076247Y96207105D02*
X8933390Y96207105D01*
X8933390Y96207105D02*
X8742914Y96159486D01*
X8742914Y96159486D02*
X8647676Y96111867D01*
X8647676Y96111867D02*
X8552438Y96016629D01*
X8552438Y96016629D02*
X8504819Y95873772D01*
X8504819Y95873772D02*
X8504819Y95778534D01*
X8504819Y95778534D02*
X8552438Y95635677D01*
X8552438Y95635677D02*
X8600057Y95588058D01*
X9504819Y94635677D02*
X9504819Y95207105D01*
X9504819Y94921391D02*
X8504819Y94921391D01*
X8504819Y94921391D02*
X8647676Y95016629D01*
X8647676Y95016629D02*
X8742914Y95111867D01*
X8742914Y95111867D02*
X8790533Y95207105D01*
X8504819Y94016629D02*
X8504819Y93921391D01*
X8504819Y93921391D02*
X8552438Y93826153D01*
X8552438Y93826153D02*
X8600057Y93778534D01*
X8600057Y93778534D02*
X8695295Y93730915D01*
X8695295Y93730915D02*
X8885771Y93683296D01*
X8885771Y93683296D02*
X9123866Y93683296D01*
X9123866Y93683296D02*
X9314342Y93730915D01*
X9314342Y93730915D02*
X9409580Y93778534D01*
X9409580Y93778534D02*
X9457200Y93826153D01*
X9457200Y93826153D02*
X9504819Y93921391D01*
X9504819Y93921391D02*
X9504819Y94016629D01*
X9504819Y94016629D02*
X9457200Y94111867D01*
X9457200Y94111867D02*
X9409580Y94159486D01*
X9409580Y94159486D02*
X9314342Y94207105D01*
X9314342Y94207105D02*
X9123866Y94254724D01*
X9123866Y94254724D02*
X8885771Y94254724D01*
X8885771Y94254724D02*
X8695295Y94207105D01*
X8695295Y94207105D02*
X8600057Y94159486D01*
X8600057Y94159486D02*
X8552438Y94111867D01*
X8552438Y94111867D02*
X8504819Y94016629D01*
X1343419Y80924667D02*
X867228Y81258000D01*
X1343419Y81496095D02*
X343419Y81496095D01*
X343419Y81496095D02*
X343419Y81115143D01*
X343419Y81115143D02*
X391038Y81019905D01*
X391038Y81019905D02*
X438657Y80972286D01*
X438657Y80972286D02*
X533895Y80924667D01*
X533895Y80924667D02*
X676752Y80924667D01*
X676752Y80924667D02*
X771990Y80972286D01*
X771990Y80972286D02*
X819609Y81019905D01*
X819609Y81019905D02*
X867228Y81115143D01*
X867228Y81115143D02*
X867228Y81496095D01*
X676752Y80067524D02*
X1343419Y80067524D01*
X295800Y80305619D02*
X1010085Y80543714D01*
X1010085Y80543714D02*
X1010085Y79924667D01*
X9403219Y58789867D02*
X8927028Y59123200D01*
X9403219Y59361295D02*
X8403219Y59361295D01*
X8403219Y59361295D02*
X8403219Y58980343D01*
X8403219Y58980343D02*
X8450838Y58885105D01*
X8450838Y58885105D02*
X8498457Y58837486D01*
X8498457Y58837486D02*
X8593695Y58789867D01*
X8593695Y58789867D02*
X8736552Y58789867D01*
X8736552Y58789867D02*
X8831790Y58837486D01*
X8831790Y58837486D02*
X8879409Y58885105D01*
X8879409Y58885105D02*
X8927028Y58980343D01*
X8927028Y58980343D02*
X8927028Y59361295D01*
X8403219Y57932724D02*
X8403219Y58123200D01*
X8403219Y58123200D02*
X8450838Y58218438D01*
X8450838Y58218438D02*
X8498457Y58266057D01*
X8498457Y58266057D02*
X8641314Y58361295D01*
X8641314Y58361295D02*
X8831790Y58408914D01*
X8831790Y58408914D02*
X9212742Y58408914D01*
X9212742Y58408914D02*
X9307980Y58361295D01*
X9307980Y58361295D02*
X9355600Y58313676D01*
X9355600Y58313676D02*
X9403219Y58218438D01*
X9403219Y58218438D02*
X9403219Y58027962D01*
X9403219Y58027962D02*
X9355600Y57932724D01*
X9355600Y57932724D02*
X9307980Y57885105D01*
X9307980Y57885105D02*
X9212742Y57837486D01*
X9212742Y57837486D02*
X8974647Y57837486D01*
X8974647Y57837486D02*
X8879409Y57885105D01*
X8879409Y57885105D02*
X8831790Y57932724D01*
X8831790Y57932724D02*
X8784171Y58027962D01*
X8784171Y58027962D02*
X8784171Y58218438D01*
X8784171Y58218438D02*
X8831790Y58313676D01*
X8831790Y58313676D02*
X8879409Y58361295D01*
X8879409Y58361295D02*
X8974647Y58408914D01*
X5435504Y64121381D02*
X5435504Y63311858D01*
X5435504Y63311858D02*
X5387885Y63216620D01*
X5387885Y63216620D02*
X5340266Y63169000D01*
X5340266Y63169000D02*
X5245028Y63121381D01*
X5245028Y63121381D02*
X5054552Y63121381D01*
X5054552Y63121381D02*
X4959314Y63169000D01*
X4959314Y63169000D02*
X4911695Y63216620D01*
X4911695Y63216620D02*
X4864076Y63311858D01*
X4864076Y63311858D02*
X4864076Y64121381D01*
X4435504Y64026143D02*
X4387885Y64073762D01*
X4387885Y64073762D02*
X4292647Y64121381D01*
X4292647Y64121381D02*
X4054552Y64121381D01*
X4054552Y64121381D02*
X3959314Y64073762D01*
X3959314Y64073762D02*
X3911695Y64026143D01*
X3911695Y64026143D02*
X3864076Y63930905D01*
X3864076Y63930905D02*
X3864076Y63835667D01*
X3864076Y63835667D02*
X3911695Y63692810D01*
X3911695Y63692810D02*
X4483123Y63121381D01*
X4483123Y63121381D02*
X3864076Y63121381D01*
X2008094Y21744781D02*
X2008094Y22744781D01*
X2008094Y22744781D02*
X1769999Y22744781D01*
X1769999Y22744781D02*
X1627142Y22697162D01*
X1627142Y22697162D02*
X1531904Y22601924D01*
X1531904Y22601924D02*
X1484285Y22506686D01*
X1484285Y22506686D02*
X1436666Y22316210D01*
X1436666Y22316210D02*
X1436666Y22173353D01*
X1436666Y22173353D02*
X1484285Y21982877D01*
X1484285Y21982877D02*
X1531904Y21887639D01*
X1531904Y21887639D02*
X1627142Y21792400D01*
X1627142Y21792400D02*
X1769999Y21744781D01*
X1769999Y21744781D02*
X2008094Y21744781D01*
X1055713Y22649543D02*
X1008094Y22697162D01*
X1008094Y22697162D02*
X912856Y22744781D01*
X912856Y22744781D02*
X674761Y22744781D01*
X674761Y22744781D02*
X579523Y22697162D01*
X579523Y22697162D02*
X531904Y22649543D01*
X531904Y22649543D02*
X484285Y22554305D01*
X484285Y22554305D02*
X484285Y22459067D01*
X484285Y22459067D02*
X531904Y22316210D01*
X531904Y22316210D02*
X1103332Y21744781D01*
X1103332Y21744781D02*
X484285Y21744781D01*
X1273980Y67933867D02*
X1321600Y67981486D01*
X1321600Y67981486D02*
X1369219Y68124343D01*
X1369219Y68124343D02*
X1369219Y68219581D01*
X1369219Y68219581D02*
X1321600Y68362438D01*
X1321600Y68362438D02*
X1226361Y68457676D01*
X1226361Y68457676D02*
X1131123Y68505295D01*
X1131123Y68505295D02*
X940647Y68552914D01*
X940647Y68552914D02*
X797790Y68552914D01*
X797790Y68552914D02*
X607314Y68505295D01*
X607314Y68505295D02*
X512076Y68457676D01*
X512076Y68457676D02*
X416838Y68362438D01*
X416838Y68362438D02*
X369219Y68219581D01*
X369219Y68219581D02*
X369219Y68124343D01*
X369219Y68124343D02*
X416838Y67981486D01*
X416838Y67981486D02*
X464457Y67933867D01*
X369219Y67600533D02*
X369219Y66933867D01*
X369219Y66933867D02*
X1369219Y67362438D01*
X6786457Y48248420D02*
X6834076Y48200800D01*
X6834076Y48200800D02*
X6976933Y48153181D01*
X6976933Y48153181D02*
X7072171Y48153181D01*
X7072171Y48153181D02*
X7215028Y48200800D01*
X7215028Y48200800D02*
X7310266Y48296039D01*
X7310266Y48296039D02*
X7357885Y48391277D01*
X7357885Y48391277D02*
X7405504Y48581753D01*
X7405504Y48581753D02*
X7405504Y48724610D01*
X7405504Y48724610D02*
X7357885Y48915086D01*
X7357885Y48915086D02*
X7310266Y49010324D01*
X7310266Y49010324D02*
X7215028Y49105562D01*
X7215028Y49105562D02*
X7072171Y49153181D01*
X7072171Y49153181D02*
X6976933Y49153181D01*
X6976933Y49153181D02*
X6834076Y49105562D01*
X6834076Y49105562D02*
X6786457Y49057943D01*
X5834076Y48153181D02*
X6405504Y48153181D01*
X6119790Y48153181D02*
X6119790Y49153181D01*
X6119790Y49153181D02*
X6215028Y49010324D01*
X6215028Y49010324D02*
X6310266Y48915086D01*
X6310266Y48915086D02*
X6405504Y48867467D01*
X4976933Y48819848D02*
X4976933Y48153181D01*
X5215028Y49200800D02*
X5453123Y48486515D01*
X5453123Y48486515D02*
X4834076Y48486515D01*
X9809619Y76519067D02*
X9333428Y76852400D01*
X9809619Y77090495D02*
X8809619Y77090495D01*
X8809619Y77090495D02*
X8809619Y76709543D01*
X8809619Y76709543D02*
X8857238Y76614305D01*
X8857238Y76614305D02*
X8904857Y76566686D01*
X8904857Y76566686D02*
X9000095Y76519067D01*
X9000095Y76519067D02*
X9142952Y76519067D01*
X9142952Y76519067D02*
X9238190Y76566686D01*
X9238190Y76566686D02*
X9285809Y76614305D01*
X9285809Y76614305D02*
X9333428Y76709543D01*
X9333428Y76709543D02*
X9333428Y77090495D01*
X8809619Y76185733D02*
X8809619Y75566686D01*
X8809619Y75566686D02*
X9190571Y75900019D01*
X9190571Y75900019D02*
X9190571Y75757162D01*
X9190571Y75757162D02*
X9238190Y75661924D01*
X9238190Y75661924D02*
X9285809Y75614305D01*
X9285809Y75614305D02*
X9381047Y75566686D01*
X9381047Y75566686D02*
X9619142Y75566686D01*
X9619142Y75566686D02*
X9714380Y75614305D01*
X9714380Y75614305D02*
X9762000Y75661924D01*
X9762000Y75661924D02*
X9809619Y75757162D01*
X9809619Y75757162D02*
X9809619Y76042876D01*
X9809619Y76042876D02*
X9762000Y76138114D01*
X9762000Y76138114D02*
X9714380Y76185733D01*
X8023419Y102074667D02*
X7547228Y102408000D01*
X8023419Y102646095D02*
X7023419Y102646095D01*
X7023419Y102646095D02*
X7023419Y102265143D01*
X7023419Y102265143D02*
X7071038Y102169905D01*
X7071038Y102169905D02*
X7118657Y102122286D01*
X7118657Y102122286D02*
X7213895Y102074667D01*
X7213895Y102074667D02*
X7356752Y102074667D01*
X7356752Y102074667D02*
X7451990Y102122286D01*
X7451990Y102122286D02*
X7499609Y102169905D01*
X7499609Y102169905D02*
X7547228Y102265143D01*
X7547228Y102265143D02*
X7547228Y102646095D01*
X8023419Y101122286D02*
X8023419Y101693714D01*
X8023419Y101408000D02*
X7023419Y101408000D01*
X7023419Y101408000D02*
X7166276Y101503238D01*
X7166276Y101503238D02*
X7261514Y101598476D01*
X7261514Y101598476D02*
X7309133Y101693714D01*
X9020980Y71108867D02*
X9068600Y71156486D01*
X9068600Y71156486D02*
X9116219Y71299343D01*
X9116219Y71299343D02*
X9116219Y71394581D01*
X9116219Y71394581D02*
X9068600Y71537438D01*
X9068600Y71537438D02*
X8973361Y71632676D01*
X8973361Y71632676D02*
X8878123Y71680295D01*
X8878123Y71680295D02*
X8687647Y71727914D01*
X8687647Y71727914D02*
X8544790Y71727914D01*
X8544790Y71727914D02*
X8354314Y71680295D01*
X8354314Y71680295D02*
X8259076Y71632676D01*
X8259076Y71632676D02*
X8163838Y71537438D01*
X8163838Y71537438D02*
X8116219Y71394581D01*
X8116219Y71394581D02*
X8116219Y71299343D01*
X8116219Y71299343D02*
X8163838Y71156486D01*
X8163838Y71156486D02*
X8211457Y71108867D01*
X8544790Y70537438D02*
X8497171Y70632676D01*
X8497171Y70632676D02*
X8449552Y70680295D01*
X8449552Y70680295D02*
X8354314Y70727914D01*
X8354314Y70727914D02*
X8306695Y70727914D01*
X8306695Y70727914D02*
X8211457Y70680295D01*
X8211457Y70680295D02*
X8163838Y70632676D01*
X8163838Y70632676D02*
X8116219Y70537438D01*
X8116219Y70537438D02*
X8116219Y70346962D01*
X8116219Y70346962D02*
X8163838Y70251724D01*
X8163838Y70251724D02*
X8211457Y70204105D01*
X8211457Y70204105D02*
X8306695Y70156486D01*
X8306695Y70156486D02*
X8354314Y70156486D01*
X8354314Y70156486D02*
X8449552Y70204105D01*
X8449552Y70204105D02*
X8497171Y70251724D01*
X8497171Y70251724D02*
X8544790Y70346962D01*
X8544790Y70346962D02*
X8544790Y70537438D01*
X8544790Y70537438D02*
X8592409Y70632676D01*
X8592409Y70632676D02*
X8640028Y70680295D01*
X8640028Y70680295D02*
X8735266Y70727914D01*
X8735266Y70727914D02*
X8925742Y70727914D01*
X8925742Y70727914D02*
X9020980Y70680295D01*
X9020980Y70680295D02*
X9068600Y70632676D01*
X9068600Y70632676D02*
X9116219Y70537438D01*
X9116219Y70537438D02*
X9116219Y70346962D01*
X9116219Y70346962D02*
X9068600Y70251724D01*
X9068600Y70251724D02*
X9020980Y70204105D01*
X9020980Y70204105D02*
X8925742Y70156486D01*
X8925742Y70156486D02*
X8735266Y70156486D01*
X8735266Y70156486D02*
X8640028Y70204105D01*
X8640028Y70204105D02*
X8592409Y70251724D01*
X8592409Y70251724D02*
X8544790Y70346962D01*
X1232819Y108943734D02*
X1947104Y108943734D01*
X1947104Y108943734D02*
X2089961Y108991353D01*
X2089961Y108991353D02*
X2185200Y109086591D01*
X2185200Y109086591D02*
X2232819Y109229448D01*
X2232819Y109229448D02*
X2232819Y109324686D01*
X1232819Y108562781D02*
X1232819Y107896115D01*
X1232819Y107896115D02*
X2232819Y108324686D01*
X5744904Y91253981D02*
X5744904Y90444458D01*
X5744904Y90444458D02*
X5697285Y90349220D01*
X5697285Y90349220D02*
X5649666Y90301600D01*
X5649666Y90301600D02*
X5554428Y90253981D01*
X5554428Y90253981D02*
X5363952Y90253981D01*
X5363952Y90253981D02*
X5268714Y90301600D01*
X5268714Y90301600D02*
X5221095Y90349220D01*
X5221095Y90349220D02*
X5173476Y90444458D01*
X5173476Y90444458D02*
X5173476Y91253981D01*
X4173476Y90253981D02*
X4744904Y90253981D01*
X4459190Y90253981D02*
X4459190Y91253981D01*
X4459190Y91253981D02*
X4554428Y91111124D01*
X4554428Y91111124D02*
X4649666Y91015886D01*
X4649666Y91015886D02*
X4744904Y90968267D01*
X1400980Y96534267D02*
X1448600Y96581886D01*
X1448600Y96581886D02*
X1496219Y96724743D01*
X1496219Y96724743D02*
X1496219Y96819981D01*
X1496219Y96819981D02*
X1448600Y96962838D01*
X1448600Y96962838D02*
X1353361Y97058076D01*
X1353361Y97058076D02*
X1258123Y97105695D01*
X1258123Y97105695D02*
X1067647Y97153314D01*
X1067647Y97153314D02*
X924790Y97153314D01*
X924790Y97153314D02*
X734314Y97105695D01*
X734314Y97105695D02*
X639076Y97058076D01*
X639076Y97058076D02*
X543838Y96962838D01*
X543838Y96962838D02*
X496219Y96819981D01*
X496219Y96819981D02*
X496219Y96724743D01*
X496219Y96724743D02*
X543838Y96581886D01*
X543838Y96581886D02*
X591457Y96534267D01*
X1496219Y96058076D02*
X1496219Y95867600D01*
X1496219Y95867600D02*
X1448600Y95772362D01*
X1448600Y95772362D02*
X1400980Y95724743D01*
X1400980Y95724743D02*
X1258123Y95629505D01*
X1258123Y95629505D02*
X1067647Y95581886D01*
X1067647Y95581886D02*
X686695Y95581886D01*
X686695Y95581886D02*
X591457Y95629505D01*
X591457Y95629505D02*
X543838Y95677124D01*
X543838Y95677124D02*
X496219Y95772362D01*
X496219Y95772362D02*
X496219Y95962838D01*
X496219Y95962838D02*
X543838Y96058076D01*
X543838Y96058076D02*
X591457Y96105695D01*
X591457Y96105695D02*
X686695Y96153314D01*
X686695Y96153314D02*
X924790Y96153314D01*
X924790Y96153314D02*
X1020028Y96105695D01*
X1020028Y96105695D02*
X1067647Y96058076D01*
X1067647Y96058076D02*
X1115266Y95962838D01*
X1115266Y95962838D02*
X1115266Y95772362D01*
X1115266Y95772362D02*
X1067647Y95677124D01*
X1067647Y95677124D02*
X1020028Y95629505D01*
X1020028Y95629505D02*
X924790Y95581886D01*
X2674857Y54510781D02*
X3008190Y54986972D01*
X3246285Y54510781D02*
X3246285Y55510781D01*
X3246285Y55510781D02*
X2865333Y55510781D01*
X2865333Y55510781D02*
X2770095Y55463162D01*
X2770095Y55463162D02*
X2722476Y55415543D01*
X2722476Y55415543D02*
X2674857Y55320305D01*
X2674857Y55320305D02*
X2674857Y55177448D01*
X2674857Y55177448D02*
X2722476Y55082210D01*
X2722476Y55082210D02*
X2770095Y55034591D01*
X2770095Y55034591D02*
X2865333Y54986972D01*
X2865333Y54986972D02*
X3246285Y54986972D01*
X1722476Y54510781D02*
X2293904Y54510781D01*
X2008190Y54510781D02*
X2008190Y55510781D01*
X2008190Y55510781D02*
X2103428Y55367924D01*
X2103428Y55367924D02*
X2198666Y55272686D01*
X2198666Y55272686D02*
X2293904Y55225067D01*
X770095Y54510781D02*
X1341523Y54510781D01*
X1055809Y54510781D02*
X1055809Y55510781D01*
X1055809Y55510781D02*
X1151047Y55367924D01*
X1151047Y55367924D02*
X1246285Y55272686D01*
X1246285Y55272686D02*
X1341523Y55225067D01*
X9678180Y83625858D02*
X9725800Y83673477D01*
X9725800Y83673477D02*
X9773419Y83816334D01*
X9773419Y83816334D02*
X9773419Y83911572D01*
X9773419Y83911572D02*
X9725800Y84054429D01*
X9725800Y84054429D02*
X9630561Y84149667D01*
X9630561Y84149667D02*
X9535323Y84197286D01*
X9535323Y84197286D02*
X9344847Y84244905D01*
X9344847Y84244905D02*
X9201990Y84244905D01*
X9201990Y84244905D02*
X9011514Y84197286D01*
X9011514Y84197286D02*
X8916276Y84149667D01*
X8916276Y84149667D02*
X8821038Y84054429D01*
X8821038Y84054429D02*
X8773419Y83911572D01*
X8773419Y83911572D02*
X8773419Y83816334D01*
X8773419Y83816334D02*
X8821038Y83673477D01*
X8821038Y83673477D02*
X8868657Y83625858D01*
X9773419Y82673477D02*
X9773419Y83244905D01*
X9773419Y82959191D02*
X8773419Y82959191D01*
X8773419Y82959191D02*
X8916276Y83054429D01*
X8916276Y83054429D02*
X9011514Y83149667D01*
X9011514Y83149667D02*
X9059133Y83244905D01*
X8868657Y82292524D02*
X8821038Y82244905D01*
X8821038Y82244905D02*
X8773419Y82149667D01*
X8773419Y82149667D02*
X8773419Y81911572D01*
X8773419Y81911572D02*
X8821038Y81816334D01*
X8821038Y81816334D02*
X8868657Y81768715D01*
X8868657Y81768715D02*
X8963895Y81721096D01*
X8963895Y81721096D02*
X9059133Y81721096D01*
X9059133Y81721096D02*
X9201990Y81768715D01*
X9201990Y81768715D02*
X9773419Y82340143D01*
X9773419Y82340143D02*
X9773419Y81721096D01*
X5103180Y41499667D02*
X5150800Y41547286D01*
X5150800Y41547286D02*
X5198419Y41690143D01*
X5198419Y41690143D02*
X5198419Y41785381D01*
X5198419Y41785381D02*
X5150800Y41928238D01*
X5150800Y41928238D02*
X5055561Y42023476D01*
X5055561Y42023476D02*
X4960323Y42071095D01*
X4960323Y42071095D02*
X4769847Y42118714D01*
X4769847Y42118714D02*
X4626990Y42118714D01*
X4626990Y42118714D02*
X4436514Y42071095D01*
X4436514Y42071095D02*
X4341276Y42023476D01*
X4341276Y42023476D02*
X4246038Y41928238D01*
X4246038Y41928238D02*
X4198419Y41785381D01*
X4198419Y41785381D02*
X4198419Y41690143D01*
X4198419Y41690143D02*
X4246038Y41547286D01*
X4246038Y41547286D02*
X4293657Y41499667D01*
X5198419Y40547286D02*
X5198419Y41118714D01*
X5198419Y40833000D02*
X4198419Y40833000D01*
X4198419Y40833000D02*
X4341276Y40928238D01*
X4341276Y40928238D02*
X4436514Y41023476D01*
X4436514Y41023476D02*
X4484133Y41118714D01*
X1476933Y9753181D02*
X1476933Y9038896D01*
X1476933Y9038896D02*
X1524552Y8896039D01*
X1524552Y8896039D02*
X1619790Y8800800D01*
X1619790Y8800800D02*
X1762647Y8753181D01*
X1762647Y8753181D02*
X1857885Y8753181D01*
X572171Y9753181D02*
X762647Y9753181D01*
X762647Y9753181D02*
X857885Y9705562D01*
X857885Y9705562D02*
X905504Y9657943D01*
X905504Y9657943D02*
X1000742Y9515086D01*
X1000742Y9515086D02*
X1048361Y9324610D01*
X1048361Y9324610D02*
X1048361Y8943658D01*
X1048361Y8943658D02*
X1000742Y8848420D01*
X1000742Y8848420D02*
X953123Y8800800D01*
X953123Y8800800D02*
X857885Y8753181D01*
X857885Y8753181D02*
X667409Y8753181D01*
X667409Y8753181D02*
X572171Y8800800D01*
X572171Y8800800D02*
X524552Y8848420D01*
X524552Y8848420D02*
X476933Y8943658D01*
X476933Y8943658D02*
X476933Y9181753D01*
X476933Y9181753D02*
X524552Y9276991D01*
X524552Y9276991D02*
X572171Y9324610D01*
X572171Y9324610D02*
X667409Y9372229D01*
X667409Y9372229D02*
X857885Y9372229D01*
X857885Y9372229D02*
X953123Y9324610D01*
X953123Y9324610D02*
X1000742Y9276991D01*
X1000742Y9276991D02*
X1048361Y9181753D01*
X9852819Y85713867D02*
X9376628Y86047200D01*
X9852819Y86285295D02*
X8852819Y86285295D01*
X8852819Y86285295D02*
X8852819Y85904343D01*
X8852819Y85904343D02*
X8900438Y85809105D01*
X8900438Y85809105D02*
X8948057Y85761486D01*
X8948057Y85761486D02*
X9043295Y85713867D01*
X9043295Y85713867D02*
X9186152Y85713867D01*
X9186152Y85713867D02*
X9281390Y85761486D01*
X9281390Y85761486D02*
X9329009Y85809105D01*
X9329009Y85809105D02*
X9376628Y85904343D01*
X9376628Y85904343D02*
X9376628Y86285295D01*
X8948057Y85332914D02*
X8900438Y85285295D01*
X8900438Y85285295D02*
X8852819Y85190057D01*
X8852819Y85190057D02*
X8852819Y84951962D01*
X8852819Y84951962D02*
X8900438Y84856724D01*
X8900438Y84856724D02*
X8948057Y84809105D01*
X8948057Y84809105D02*
X9043295Y84761486D01*
X9043295Y84761486D02*
X9138533Y84761486D01*
X9138533Y84761486D02*
X9281390Y84809105D01*
X9281390Y84809105D02*
X9852819Y85380533D01*
X9852819Y85380533D02*
X9852819Y84761486D01*
D13*
%TO.C,R15*%
X2841100Y84512724D02*
X2841100Y84003276D01*
X1796100Y84512724D02*
X1796100Y84003276D01*
%TO.C,R16*%
X9466100Y98687724D02*
X9466100Y98178276D01*
X8421100Y98687724D02*
X8421100Y98178276D01*
%TO.C,R13*%
X3570500Y29617124D02*
X3570500Y29107676D01*
X2525500Y29617124D02*
X2525500Y29107676D01*
%TO.C,C11*%
X2233200Y101910933D02*
X2233200Y102203467D01*
X3253200Y101910933D02*
X3253200Y102203467D01*
%TO.C,R5*%
X4588876Y80355500D02*
X5098324Y80355500D01*
X4588876Y79310500D02*
X5098324Y79310500D01*
%TO.C,C3*%
X7433600Y5567948D02*
X7433600Y6990452D01*
X9253600Y5567948D02*
X9253600Y6990452D01*
%TO.C,U3*%
X4983000Y34123000D02*
X6933000Y34123000D01*
X4983000Y34123000D02*
X3033000Y34123000D01*
X4983000Y39243000D02*
X8433000Y39243000D01*
X4983000Y39243000D02*
X3033000Y39243000D01*
%TO.C,C13*%
X5130852Y75899600D02*
X3708348Y75899600D01*
X5130852Y77719600D02*
X3708348Y77719600D01*
%TO.C,C2*%
X7013000Y41235733D02*
X7013000Y41528267D01*
X8033000Y41235733D02*
X8033000Y41528267D01*
%TO.C,R14*%
X4303500Y29056876D02*
X4303500Y29566324D01*
X5348500Y29056876D02*
X5348500Y29566324D01*
%TO.C,R8*%
X6846100Y79653676D02*
X6846100Y80163124D01*
X7891100Y79653676D02*
X7891100Y80163124D01*
%TO.C,C4*%
X9253600Y14330948D02*
X9253600Y15753452D01*
X7433600Y14330948D02*
X7433600Y15753452D01*
%TO.C,R12*%
X8519900Y53898076D02*
X8519900Y54407524D01*
X9564900Y53898076D02*
X9564900Y54407524D01*
%TO.C,C5*%
X9253600Y10829267D02*
X9253600Y10536733D01*
X8233600Y10829267D02*
X8233600Y10536733D01*
%TO.C,R9*%
X7939300Y54407524D02*
X7939300Y53898076D01*
X6894300Y54407524D02*
X6894300Y53898076D01*
%TO.C,D1*%
X3791600Y5476800D02*
X3791600Y4276800D01*
X1941600Y4276800D02*
X3791600Y4276800D01*
X1941600Y5476800D02*
X3791600Y5476800D01*
%TO.C,R10*%
X7111276Y30748500D02*
X7620724Y30748500D01*
X7111276Y29703500D02*
X7620724Y29703500D01*
%TO.C,C6*%
X7571800Y19290133D02*
X7571800Y19582667D01*
X8591800Y19290133D02*
X8591800Y19582667D01*
%TO.C,R7*%
X1690900Y102311924D02*
X1690900Y101802476D01*
X645900Y102311924D02*
X645900Y101802476D01*
%TO.C,C10*%
X7110000Y94798933D02*
X7110000Y95091467D01*
X8130000Y94798933D02*
X8130000Y95091467D01*
%TO.C,R4*%
X2841100Y81012724D02*
X2841100Y80503276D01*
X1796100Y81012724D02*
X1796100Y80503276D01*
%TO.C,R6*%
X6995900Y58368476D02*
X6995900Y58877924D01*
X8040900Y58368476D02*
X8040900Y58877924D01*
%TO.C,U2*%
X4622800Y61194000D02*
X6572800Y61194000D01*
X4622800Y61194000D02*
X2672800Y61194000D01*
X4622800Y66314000D02*
X8072800Y66314000D01*
X4622800Y66314000D02*
X2672800Y66314000D01*
%TO.C,D2*%
X1491600Y20380400D02*
X1491600Y21580400D01*
X3341600Y21580400D02*
X1491600Y21580400D01*
X3341600Y20380400D02*
X1491600Y20380400D01*
%TO.C,C7*%
X1806000Y68540733D02*
X1806000Y68833267D01*
X2826000Y68540733D02*
X2826000Y68833267D01*
%TO.C,C14*%
X3098748Y51354400D02*
X4521252Y51354400D01*
X3098748Y49534400D02*
X4521252Y49534400D01*
%TO.C,R3*%
X7402300Y76097676D02*
X7402300Y76607124D01*
X8447300Y76097676D02*
X8447300Y76607124D01*
%TO.C,R1*%
X8421100Y101728276D02*
X8421100Y102237724D01*
X9466100Y101728276D02*
X9466100Y102237724D01*
%TO.C,C8*%
X6602000Y69957733D02*
X6602000Y70250267D01*
X7622000Y69957733D02*
X7622000Y70250267D01*
%TO.C,J7*%
X8899200Y107298800D02*
X8899200Y104638800D01*
X3759200Y107298800D02*
X8899200Y107298800D01*
X3759200Y107298800D02*
X3759200Y104638800D01*
X2489200Y107298800D02*
X1159200Y107298800D01*
X1159200Y107298800D02*
X1159200Y105968800D01*
X3759200Y104638800D02*
X8899200Y104638800D01*
%TO.C,U1*%
X4983000Y87463000D02*
X6933000Y87463000D01*
X4983000Y87463000D02*
X3033000Y87463000D01*
X4983000Y92583000D02*
X8433000Y92583000D01*
X4983000Y92583000D02*
X3033000Y92583000D01*
%TO.C,C9*%
X1776000Y96170533D02*
X1776000Y96463067D01*
X2796000Y96170533D02*
X2796000Y96463067D01*
%TO.C,R11*%
X4369524Y52919100D02*
X3860076Y52919100D01*
X4369524Y53964100D02*
X3860076Y53964100D01*
%TO.C,C12*%
X9503600Y80054267D02*
X9503600Y79761733D01*
X8483600Y80054267D02*
X8483600Y79761733D01*
%TO.C,C1*%
X2741200Y41103333D02*
X2741200Y41395867D01*
X3761200Y41103333D02*
X3761200Y41395867D01*
%TO.C,J6*%
X6473600Y6493000D02*
X1273600Y6493000D01*
X6473600Y16713000D02*
X6473600Y6493000D01*
X6473600Y16713000D02*
X3873600Y16713000D01*
X6473600Y17983000D02*
X6473600Y19313000D01*
X6473600Y19313000D02*
X5143600Y19313000D01*
X3873600Y16713000D02*
X3873600Y19313000D01*
X3873600Y19313000D02*
X1273600Y19313000D01*
X1273600Y19313000D02*
X1273600Y6493000D01*
%TO.C,R2*%
X8498100Y85446324D02*
X8498100Y84936876D01*
X7453100Y85446324D02*
X7453100Y84936876D01*
%TD*%
%LPC*%
D14*
%TO.C,R15*%
X2318600Y83345500D03*
X2318600Y85170500D03*
%TD*%
%TO.C,R16*%
X8943600Y97520500D03*
X8943600Y99345500D03*
%TD*%
D15*
%TO.C,J1*%
X5030000Y97142000D03*
D16*
X5030000Y108542000D03*
D17*
X5030000Y100242000D03*
%TD*%
D15*
%TO.C,J4*%
X5030000Y71093000D03*
D16*
X5030000Y59693000D03*
D17*
X5030000Y67993000D03*
%TD*%
D14*
%TO.C,R13*%
X3048000Y30274900D03*
X3048000Y28449900D03*
%TD*%
D18*
%TO.C,C11*%
X2743200Y101194700D03*
X2743200Y102919700D03*
%TD*%
D19*
%TO.C,R5*%
X3931100Y79833000D03*
X5756100Y79833000D03*
%TD*%
D20*
%TO.C,C3*%
X8343600Y4716700D03*
X8343600Y7841700D03*
%TD*%
D21*
%TO.C,U3*%
X7458000Y38588000D03*
X7458000Y37318000D03*
X7458000Y36048000D03*
X7458000Y34778000D03*
X2508000Y34778000D03*
X2508000Y36048000D03*
X2508000Y37318000D03*
X2508000Y38588000D03*
%TD*%
D22*
%TO.C,C13*%
X5982100Y76809600D03*
X2857100Y76809600D03*
%TD*%
D18*
%TO.C,C2*%
X7523000Y40519500D03*
X7523000Y42244500D03*
%TD*%
D23*
%TO.C,R14*%
X4826000Y28399100D03*
X4826000Y30224100D03*
%TD*%
%TO.C,R8*%
X7368600Y78995900D03*
X7368600Y80820900D03*
%TD*%
D20*
%TO.C,C4*%
X8343600Y16604700D03*
X8343600Y13479700D03*
%TD*%
D23*
%TO.C,R12*%
X9042400Y53240300D03*
X9042400Y55065300D03*
%TD*%
D24*
%TO.C,C5*%
X8743600Y11545500D03*
X8743600Y9820500D03*
%TD*%
D14*
%TO.C,R9*%
X7416800Y55065300D03*
X7416800Y53240300D03*
%TD*%
D25*
%TO.C,D1*%
X3341600Y4876800D03*
X1941600Y4876800D03*
%TD*%
D19*
%TO.C,R10*%
X6453500Y30226000D03*
X8278500Y30226000D03*
%TD*%
D18*
%TO.C,C6*%
X8081800Y18573900D03*
X8081800Y20298900D03*
%TD*%
D14*
%TO.C,R7*%
X1168400Y102969700D03*
X1168400Y101144700D03*
%TD*%
D18*
%TO.C,C10*%
X7620000Y94082700D03*
X7620000Y95807700D03*
%TD*%
D14*
%TO.C,R4*%
X2318600Y81670500D03*
X2318600Y79845500D03*
%TD*%
D23*
%TO.C,R6*%
X7518400Y57710700D03*
X7518400Y59535700D03*
%TD*%
D21*
%TO.C,U2*%
X7097800Y65659000D03*
X7097800Y64389000D03*
X7097800Y63119000D03*
X7097800Y61849000D03*
X2147800Y61849000D03*
X2147800Y63119000D03*
X2147800Y64389000D03*
X2147800Y65659000D03*
%TD*%
D25*
%TO.C,D2*%
X1941600Y20980400D03*
X3341600Y20980400D03*
%TD*%
D18*
%TO.C,C7*%
X2316000Y67824500D03*
X2316000Y69549500D03*
%TD*%
D26*
%TO.C,C14*%
X2247500Y50444400D03*
X5372500Y50444400D03*
%TD*%
D23*
%TO.C,R3*%
X7924800Y75439900D03*
X7924800Y77264900D03*
%TD*%
%TO.C,R1*%
X8943600Y101070500D03*
X8943600Y102895500D03*
%TD*%
D18*
%TO.C,C8*%
X7112000Y69241500D03*
X7112000Y70966500D03*
%TD*%
D27*
%TO.C,J7*%
X2489200Y105968800D03*
D28*
X5029200Y105968800D03*
X7569200Y105968800D03*
%TD*%
D21*
%TO.C,U1*%
X7458000Y91928000D03*
X7458000Y90658000D03*
X7458000Y89388000D03*
X7458000Y88118000D03*
X2508000Y88118000D03*
X2508000Y89388000D03*
X2508000Y90658000D03*
X2508000Y91928000D03*
%TD*%
D18*
%TO.C,C9*%
X2286000Y95454300D03*
X2286000Y97179300D03*
%TD*%
D29*
%TO.C,R11*%
X5027300Y53441600D03*
X3202300Y53441600D03*
%TD*%
D24*
%TO.C,C12*%
X8993600Y80770500D03*
X8993600Y79045500D03*
%TD*%
D18*
%TO.C,C1*%
X3251200Y40387100D03*
X3251200Y42112100D03*
%TD*%
D27*
%TO.C,J6*%
X5143600Y17983000D03*
D28*
X2603600Y17983000D03*
X5143600Y15443000D03*
X2603600Y15443000D03*
X5143600Y12903000D03*
X2603600Y12903000D03*
X5143600Y10363000D03*
X2603600Y10363000D03*
X5143600Y7823000D03*
X2603600Y7823000D03*
%TD*%
D14*
%TO.C,R2*%
X7975600Y86104100D03*
X7975600Y84279100D03*
%TD*%
D15*
%TO.C,J5*%
X5030000Y44056000D03*
D16*
X5030000Y55456000D03*
D17*
X5030000Y47156000D03*
%TD*%
D30*
%TO.C,RV1*%
X2489200Y26416000D03*
D31*
X4989200Y26416000D03*
X7489200Y26416000D03*
X2489200Y23916000D03*
X4989200Y23916000D03*
X7489200Y23916000D03*
%TD*%
D15*
%TO.C,J3*%
X5030000Y97122600D03*
D16*
X5030000Y85722600D03*
D17*
X5030000Y94022600D03*
%TD*%
D15*
%TO.C,J2*%
X5030000Y71107000D03*
D16*
X5030000Y82507000D03*
D17*
X5030000Y74207000D03*
%TD*%
D27*
%TO.C,J8*%
X3805000Y2159000D03*
D28*
X6345000Y2159000D03*
%TD*%
%LPD*%
M02*
