M48
INCH
T1C0.0157
T2C0.0197
T3C0.0236
T4C0.0394
%
G90
G05
T1
X0.028Y2.734
X0.044Y2.064
X0.0525Y1.236
X0.066Y1.864
X0.072Y3.69
X0.074Y3.882
X0.074Y1.708
X0.0748Y3.4285
X0.08Y1.59
X0.082Y1.656
X0.0902Y2.7982
X0.096Y3.0958
X0.108Y2.866
X0.114Y3.888
X0.1225Y3.334
X0.134Y1.324
X0.1413Y2.2635
X0.152Y2.736
X0.152Y1.252
X0.1573Y3.518
X0.162Y3.57
X0.172Y2.436
X0.178Y3.024
X0.1925Y0.8745
X0.198Y2.276
X0.2152Y1.5688
X0.2242Y3.1942
X0.232Y2.532
X0.238Y2.06
X0.242Y2.612
X0.244Y1.276
X0.2705Y2.2335
X0.2822Y0.4226
X0.298Y1.9825
X0.3009Y3.8237
X0.3015Y2.638
X0.3018Y2.0475
X0.3023Y3.27
X0.3064Y2.3995
X0.318Y1.902
X0.3226Y0.2493
X0.323Y2.885
X0.324Y2.734
X0.3352Y1.602
X0.3413Y3.704
X0.3413Y3.47
X0.3426Y1.5588
X0.3452Y0.5889
X0.35Y1.372
X0.3632Y0.7982
X0.364Y0.922
X0.3671Y3.7988
T4
X0.098Y4.172
X0.098Y1.04
X0.098Y0.9416
X0.1025Y0.708
X0.1025Y0.608
X0.1025Y0.508
X0.1025Y0.408
X0.1025Y0.308
X0.1498Y0.085
X0.1964Y1.04
X0.1964Y0.9416
X0.198Y4.172
X0.2025Y0.708
X0.2025Y0.608
X0.2025Y0.508
X0.2025Y0.408
X0.2025Y0.308
X0.2498Y0.085
X0.2949Y1.04
X0.2949Y0.9416
X0.298Y4.172
T2
G00X0.1783Y4.2733
M15
G01X0.2177Y4.2733
M16
G05
G00X0.2177Y3.3749
M15
G01X0.1783Y3.3749
M16
G05
G00X0.1783Y3.2483
M15
G01X0.2177Y3.2483
M16
G05
G00X0.2177Y2.3501
M15
G01X0.1783Y2.3501
M16
G05
G00X0.1783Y2.1833
M15
G01X0.2177Y2.1833
M16
G05
T3
G00X0.1803Y3.9465
M15
G01X0.2157Y3.9465
M16
G05
G00X0.1843Y3.8245
M15
G01X0.2118Y3.8245
M16
G05
G00X0.2118Y3.8237
M15
G01X0.1843Y3.8237
M16
G05
G00X0.2157Y3.7017
M15
G01X0.1803Y3.7017
M16
G05
G00X0.1803Y2.9215
M15
G01X0.2157Y2.9215
M16
G05
G00X0.1843Y2.7995
M15
G01X0.2118Y2.7995
M16
G05
G00X0.2118Y2.7989
M15
G01X0.1843Y2.7989
M16
G05
G00X0.2157Y2.6769
M15
G01X0.1803Y2.6769
M16
G05
G00X0.1803Y1.8565
M15
G01X0.2157Y1.8565
M16
G05
G00X0.1843Y1.7345
M15
G01X0.2118Y1.7345
M16
G05
T0
M30
