%TF.GenerationSoftware,KiCad,Pcbnew,7.0.7*%
%TF.CreationDate,2023-08-29T15:38:33+10:00*%
%TF.ProjectId,headphone_sum,68656164-7068-46f6-9e65-5f73756d2e6b,rev?*%
%TF.SameCoordinates,Original*%
%TF.FileFunction,Soldermask,Bot*%
%TF.FilePolarity,Negative*%
%FSLAX46Y46*%
G04 Gerber Fmt 4.6, Leading zero omitted, Abs format (unit mm)*
G04 Created by KiCad (PCBNEW 7.0.7) date 2023-08-29 15:38:33*
%MOMM*%
%LPD*%
G01*
G04 APERTURE LIST*
G04 Aperture macros list*
%AMRoundRect*
0 Rectangle with rounded corners*
0 $1 Rounding radius*
0 $2 $3 $4 $5 $6 $7 $8 $9 X,Y pos of 4 corners*
0 Add a 4 corners polygon primitive as box body*
4,1,4,$2,$3,$4,$5,$6,$7,$8,$9,$2,$3,0*
0 Add four circle primitives for the rounded corners*
1,1,$1+$1,$2,$3*
1,1,$1+$1,$4,$5*
1,1,$1+$1,$6,$7*
1,1,$1+$1,$8,$9*
0 Add four rect primitives between the rounded corners*
20,1,$1+$1,$2,$3,$4,$5,0*
20,1,$1+$1,$4,$5,$6,$7,0*
20,1,$1+$1,$6,$7,$8,$9,0*
20,1,$1+$1,$8,$9,$2,$3,0*%
G04 Aperture macros list end*
%ADD10RoundRect,0.237500X-0.237500X0.250000X-0.237500X-0.250000X0.237500X-0.250000X0.237500X0.250000X0*%
%ADD11R,2.200000X1.500000*%
%ADD12O,2.500000X1.400000*%
%ADD13O,2.400000X1.500000*%
%ADD14RoundRect,0.237500X0.237500X-0.300000X0.237500X0.300000X-0.237500X0.300000X-0.237500X-0.300000X0*%
%ADD15RoundRect,0.237500X-0.250000X-0.237500X0.250000X-0.237500X0.250000X0.237500X-0.250000X0.237500X0*%
%ADD16RoundRect,0.250000X0.650000X-0.412500X0.650000X0.412500X-0.650000X0.412500X-0.650000X-0.412500X0*%
%ADD17RoundRect,0.150000X0.825000X0.150000X-0.825000X0.150000X-0.825000X-0.150000X0.825000X-0.150000X0*%
%ADD18RoundRect,0.250000X0.412500X0.650000X-0.412500X0.650000X-0.412500X-0.650000X0.412500X-0.650000X0*%
%ADD19RoundRect,0.237500X0.237500X-0.250000X0.237500X0.250000X-0.237500X0.250000X-0.237500X-0.250000X0*%
%ADD20RoundRect,0.237500X-0.237500X0.300000X-0.237500X-0.300000X0.237500X-0.300000X0.237500X0.300000X0*%
%ADD21R,0.600000X0.700000*%
%ADD22RoundRect,0.250000X-0.412500X-0.650000X0.412500X-0.650000X0.412500X0.650000X-0.412500X0.650000X0*%
%ADD23R,1.700000X1.700000*%
%ADD24O,1.700000X1.700000*%
%ADD25RoundRect,0.237500X0.250000X0.237500X-0.250000X0.237500X-0.250000X-0.237500X0.250000X-0.237500X0*%
%ADD26R,1.800000X1.800000*%
%ADD27C,1.800000*%
G04 APERTURE END LIST*
D10*
%TO.C,R15*%
X2318600Y83345500D03*
X2318600Y85170500D03*
%TD*%
%TO.C,R16*%
X8943600Y97520500D03*
X8943600Y99345500D03*
%TD*%
D11*
%TO.C,J1*%
X5030000Y97142000D03*
D12*
X5030000Y108542000D03*
D13*
X5030000Y100242000D03*
%TD*%
D11*
%TO.C,J4*%
X5030000Y71093000D03*
D12*
X5030000Y59693000D03*
D13*
X5030000Y67993000D03*
%TD*%
D10*
%TO.C,R13*%
X3048000Y30274900D03*
X3048000Y28449900D03*
%TD*%
D14*
%TO.C,C11*%
X2743200Y101194700D03*
X2743200Y102919700D03*
%TD*%
D15*
%TO.C,R5*%
X3931100Y79833000D03*
X5756100Y79833000D03*
%TD*%
D16*
%TO.C,C3*%
X8343600Y4716700D03*
X8343600Y7841700D03*
%TD*%
D17*
%TO.C,U3*%
X7458000Y38588000D03*
X7458000Y37318000D03*
X7458000Y36048000D03*
X7458000Y34778000D03*
X2508000Y34778000D03*
X2508000Y36048000D03*
X2508000Y37318000D03*
X2508000Y38588000D03*
%TD*%
D18*
%TO.C,C13*%
X5982100Y76809600D03*
X2857100Y76809600D03*
%TD*%
D14*
%TO.C,C2*%
X7523000Y40519500D03*
X7523000Y42244500D03*
%TD*%
D19*
%TO.C,R14*%
X4826000Y28399100D03*
X4826000Y30224100D03*
%TD*%
%TO.C,R8*%
X7368600Y78995900D03*
X7368600Y80820900D03*
%TD*%
D16*
%TO.C,C4*%
X8343600Y16604700D03*
X8343600Y13479700D03*
%TD*%
D19*
%TO.C,R12*%
X9042400Y53240300D03*
X9042400Y55065300D03*
%TD*%
D20*
%TO.C,C5*%
X8743600Y11545500D03*
X8743600Y9820500D03*
%TD*%
D10*
%TO.C,R9*%
X7416800Y55065300D03*
X7416800Y53240300D03*
%TD*%
D21*
%TO.C,D1*%
X3341600Y4876800D03*
X1941600Y4876800D03*
%TD*%
D15*
%TO.C,R10*%
X6453500Y30226000D03*
X8278500Y30226000D03*
%TD*%
D14*
%TO.C,C6*%
X8081800Y18573900D03*
X8081800Y20298900D03*
%TD*%
D10*
%TO.C,R7*%
X1168400Y102969700D03*
X1168400Y101144700D03*
%TD*%
D14*
%TO.C,C10*%
X7620000Y94082700D03*
X7620000Y95807700D03*
%TD*%
D10*
%TO.C,R4*%
X2318600Y81670500D03*
X2318600Y79845500D03*
%TD*%
D19*
%TO.C,R6*%
X7518400Y57710700D03*
X7518400Y59535700D03*
%TD*%
D17*
%TO.C,U2*%
X7097800Y65659000D03*
X7097800Y64389000D03*
X7097800Y63119000D03*
X7097800Y61849000D03*
X2147800Y61849000D03*
X2147800Y63119000D03*
X2147800Y64389000D03*
X2147800Y65659000D03*
%TD*%
D21*
%TO.C,D2*%
X1941600Y20980400D03*
X3341600Y20980400D03*
%TD*%
D14*
%TO.C,C7*%
X2316000Y67824500D03*
X2316000Y69549500D03*
%TD*%
D22*
%TO.C,C14*%
X2247500Y50444400D03*
X5372500Y50444400D03*
%TD*%
D19*
%TO.C,R3*%
X7924800Y75439900D03*
X7924800Y77264900D03*
%TD*%
%TO.C,R1*%
X8943600Y101070500D03*
X8943600Y102895500D03*
%TD*%
D14*
%TO.C,C8*%
X7112000Y69241500D03*
X7112000Y70966500D03*
%TD*%
D23*
%TO.C,J7*%
X2489200Y105968800D03*
D24*
X5029200Y105968800D03*
X7569200Y105968800D03*
%TD*%
D17*
%TO.C,U1*%
X7458000Y91928000D03*
X7458000Y90658000D03*
X7458000Y89388000D03*
X7458000Y88118000D03*
X2508000Y88118000D03*
X2508000Y89388000D03*
X2508000Y90658000D03*
X2508000Y91928000D03*
%TD*%
D14*
%TO.C,C9*%
X2286000Y95454300D03*
X2286000Y97179300D03*
%TD*%
D25*
%TO.C,R11*%
X5027300Y53441600D03*
X3202300Y53441600D03*
%TD*%
D20*
%TO.C,C12*%
X8993600Y80770500D03*
X8993600Y79045500D03*
%TD*%
D14*
%TO.C,C1*%
X3251200Y40387100D03*
X3251200Y42112100D03*
%TD*%
D23*
%TO.C,J6*%
X5143600Y17983000D03*
D24*
X2603600Y17983000D03*
X5143600Y15443000D03*
X2603600Y15443000D03*
X5143600Y12903000D03*
X2603600Y12903000D03*
X5143600Y10363000D03*
X2603600Y10363000D03*
X5143600Y7823000D03*
X2603600Y7823000D03*
%TD*%
D10*
%TO.C,R2*%
X7975600Y86104100D03*
X7975600Y84279100D03*
%TD*%
D11*
%TO.C,J5*%
X5030000Y44056000D03*
D12*
X5030000Y55456000D03*
D13*
X5030000Y47156000D03*
%TD*%
D26*
%TO.C,RV1*%
X2489200Y26416000D03*
D27*
X4989200Y26416000D03*
X7489200Y26416000D03*
X2489200Y23916000D03*
X4989200Y23916000D03*
X7489200Y23916000D03*
%TD*%
D11*
%TO.C,J3*%
X5030000Y97122600D03*
D12*
X5030000Y85722600D03*
D13*
X5030000Y94022600D03*
%TD*%
D11*
%TO.C,J2*%
X5030000Y71107000D03*
D12*
X5030000Y82507000D03*
D13*
X5030000Y74207000D03*
%TD*%
D23*
%TO.C,J8*%
X3805000Y2159000D03*
D24*
X6345000Y2159000D03*
%TD*%
M02*
